<svg xmlns="http://www.w3.org/2000/svg" xmlns:xlink="http://www.w3.org/1999/xlink" viewBox="0 0 1010 550" width="1010" height="550" style="width: 100%; height: 100%; transform: translate3d(0,0,0); content-visibility: visible;" preserveAspectRatio="xMidYMid meet"><defs><clipPath id="lottie-id"><rect width="1010" height="550" x="0" y="0"></rect></clipPath><clipPath id="lottie-id"><path d="M0,0 L1080,0 L1080,1080 L0,1080z"></path></clipPath><clipPath id="lottie-id"><path d="M0,0 L1080,0 L1080,1080 L0,1080z"></path></clipPath><clipPath id="lottie-id"><path d="M0,0 L1080,0 L1080,1080 L0,1080z"></path></clipPath><clipPath id="lottie-id"><path d="M0,0 L1080,0 L1080,1080 L0,1080z"></path></clipPath><clipPath id="lottie-id"><path d="M0,0 L1080,0 L1080,1080 L0,1080z"></path></clipPath><clipPath id="lottie-id"><path d="M0,0 L1080,0 L1080,1080 L0,1080z"></path></clipPath></defs><g clip-path="url(#lottie-id)"><g style="display: none;"><g><path></path></g><g><g><path></path></g><g><path></path></g><g><path></path></g><g><path></path></g><g><path></path></g><g><path></path></g><g><path></path></g><g><path></path></g></g></g><g style="display: block;" transform="matrix(0.9999949336051941,0.0031844337936490774,-0.0031844337936490774,0.9999949336051941,1.56243896484375,-270.1053161621094)" opacity="1"><g opacity="1" transform="matrix(1,0,0,1,771.27197265625,447.93499755859375)"><path fill="rgb(174,199,230)" fill-opacity="1" d=" M-97.69499969482422,77.6510009765625 C-97.69499969482422,77.6510009765625 -125.36599731445312,15.230999946594238 -125.36599731445312,15.230999946594238 C-125.36599731445312,15.230999946594238 -60.76976776123047,-12.32791519165039 -1.6557964086532593,-38.099266052246094 C44.329288482666016,-58.14299392700195 84.1873779296875,-78.52092742919922 90.48614501953125,-81.40253448486328 C108.62090301513672,-89.7025146484375 133.70217895507812,-35.010032653808594 119.03193664550781,-27.195112228393555 C108.71348571777344,-21.687692642211914 62.568355560302734,3.1636548042297363 15.239234924316406,25.404876708984375 C-40.327030181884766,51.482017517089844 -97.69499969482422,77.6510009765625 -97.69499969482422,77.6510009765625 C-97.69499969482422,77.6510009765625 -97.69499969482422,77.6510009765625 -97.69499969482422,77.6510009765625z"></path></g><g opacity="1" transform="matrix(1,0,0,1,0,0)"><g opacity="1" transform="matrix(1,0,0,1,906.2960205078125,382.7179870605469)"><path fill="rgb(255,197,179)" fill-opacity="1" d=" M-18.262731552124023,-40.40007019042969 C-28.311134338378906,-34.67322540283203 -36.34832000732422,-15.005793571472168 -36.34832000732422,-15.005793571472168 C-36.34832000732422,-15.005793571472168 -51.7296028137207,-6.882950305938721 -37.687477111816406,15.130901336669922 C-22.659568786621094,38.689361572265625 -15.508370399475098,28.88862419128418 -15.508370399475098,28.88862419128418 C-15.508370399475098,28.88862419128418 21.660322189331055,8.888429641723633 30.814699172973633,2.905442476272583 C39.969078063964844,-3.077545166015625 36.90474319458008,-33.24525451660156 23.065017700195312,-37.468997955322266 C9.225295066833496,-41.6927375793457 -8.248327255249023,-46.124855041503906 -18.262731552124023,-40.40007019042969 C-18.262731552124023,-40.40007019042969 -18.262731552124023,-40.40007019042969 -18.262731552124023,-40.40007019042969z"></path></g><g opacity="1" transform="matrix(1,0,0,1,920.510986328125,382.1759948730469)"><path fill="rgb(242,162,155)" fill-opacity="1" d=" M16.631481170654297,3.412224292755127 C11.694397926330566,6.626445770263672 -11.74511432647705,15.756551742553711 -15.026101112365723,15.190181732177734 C-25.720794677734375,10.897151947021484 -23.828733444213867,0.264290452003479 -23.828733444213867,0.264290452003479 C-29.47150993347168,-1.3925892114639282 -34.33899688720703,-12.52860164642334 -22.92967987060547,-18.67601776123047 C-10.628105163574219,-25.30419921875 -13.498820304870605,-28.90540313720703 -13.498820304870605,-28.90540313720703 C-13.498820304870605,-28.90540313720703 6.459839344024658,-26.707487106323242 19.653316497802734,-24.412662506103516 C23.337345123291016,-13.948670387268066 22.45747947692871,-0.38060593605041504 16.631481170654297,3.412224292755127z"></path></g><g opacity="1" transform="matrix(1,0,0,1,939.885009765625,372.6300048828125)"><path fill="rgb(232,130,130)" fill-opacity="1" d=" M-2.8456151485443115,16.652936935424805 C-7.031302452087402,16.880550384521484 -11.176570892333984,14.66754150390625 -13.193747520446777,10.648634910583496 C-15.890180587768555,5.276936054229736 -13.74116039276123,-1.273300051689148 -8.3375244140625,-4.004951477050781 C-8.27174186706543,-4.042231559753418 -8.140022277832031,-4.116635322570801 -8.007083892822266,-4.158039093017578 C-4.5101518630981445,-5.838287830352783 -3.1114048957824707,-7.50604248046875 -2.8031764030456543,-8.064129829406738 C-2.8457984924316406,-8.23106861114502 -2.9835736751556396,-8.570195198059082 -3.298501491546631,-9.086700439453125 C-4.116757869720459,-10.430244445800781 -5.131141662597656,-11.650949478149414 -8.373734474182129,-11.518475532531738 C-10.873640060424805,-11.416457176208496 -13.194809913635254,-10.51184368133545 -13.194809913635254,-10.51184368133545 C-18.680410385131836,-8.04691219329834 -25.1345157623291,-10.50927448272705 -27.6126651763916,-16.024030685424805 C-30.07759666442871,-21.509632110595703 -27.6193904876709,-27.97489356994629 -22.099790573120117,-30.44188690185547 C-21.10709571838379,-30.86815071105957 -15.8449068069458,-33.07917785644531 -9.11997127532959,-33.31487274169922 C1.3556177616119385,-33.68159103393555 10.038089752197266,-29.112192153930664 15.346305847167969,-20.46070098876953 C19.990074157714844,-12.893001556396484 19.45767593383789,-6.267080783843994 18.211069107055664,-2.0303258895874023 C16.12566566467285,5.0578484535217285 10.16618537902832,11.272643089294434 1.490932583808899,15.468953132629395 C1.490932583808899,15.468953132629395 1.4230889081954956,15.473076820373535 1.4230889081954956,15.473076820373535 C0.04035888984799385,16.191551208496094 -1.3958334922790527,16.540401458740234 -2.8136770725250244,16.617876052856445 C-2.8136770725250244,16.617876052856445 -2.8456151485443115,16.652936935424805 -2.8456151485443115,16.652936935424805z M-2.7277727127075195,-7.93241024017334 C-2.7277727127075195,-7.93241024017334 -2.7277727127075195,-7.93241024017334 -2.7277727127075195,-7.93241024017334z"></path></g><g opacity="1" transform="matrix(1,0,0,1,921.6640014648438,407.0169982910156)"><path fill="rgb(255,197,179)" fill-opacity="1" d=" M-30.877588272094727,4.555624485015869 C-30.877588272094727,4.555624485015869 -9.991815567016602,12.622861862182617 2.415933609008789,6.670557022094727 C12.446258544921875,1.8588337898254395 23.8570499420166,-8.142484664916992 27.888702392578125,-11.74484634399414 C28.85696792602539,-12.61011028289795 29.238616943359375,-13.989913940429688 28.849390029907227,-15.251200675964355 C27.657739639282227,-19.11368751525879 24.026973724365234,-26.729494094848633 14.442252159118652,-24.284603118896484 C1.7865827083587646,-21.056644439697266 -33.90361022949219,0.5891374349594116 -33.90361022949219,0.5891374349594116 C-33.90361022949219,0.5891374349594116 -30.87843132019043,4.555624485015869 -30.87843132019043,4.555624485015869 C-30.87843132019043,4.555624485015869 -30.877588272094727,4.555624485015869 -30.877588272094727,4.555624485015869z"></path></g><g opacity="1" transform="matrix(1,0,0,1,930.1519775390625,397.8160095214844)"><path fill="rgb(242,162,155)" fill-opacity="1" d=" M18.959388732910156,-9.426097869873047 C12.215408325195312,-20.739362716674805 -6.765932559967041,-5.712589263916016 -11.74782657623291,-2.5754621028900146 C-17.574542999267578,1.09352445602417 -24.4608211517334,-0.39350253343582153 -24.66694450378418,-0.4498186409473419 C-13.791566848754883,-6.526306629180908 -0.6869279146194458,-13.362067222595215 5.989252090454102,-15.085665702819824 C13.133934020996094,-16.929912567138672 16.99829864501953,-13.111065864562988 18.957326889038086,-9.459940910339355 C18.957326889038086,-9.459940910339355 18.959388732910156,-9.426097869873047 18.959388732910156,-9.426097869873047z"></path></g><g opacity="1" transform="matrix(1,0,0,1,939.8200073242188,369.2099914550781)"><path fill="rgb(232,148,144)" fill-opacity="1" d=" M-6.511241912841797,16.857593536376953 C-10.527929306030273,17.076427459716797 -14.523513793945312,15.054640769958496 -16.630882263183594,11.313919067382812 C-19.59113121032715,6.058028221130371 -17.71829605102539,-0.5784001350402832 -12.46240520477295,-3.5386476516723633 C-12.297528266906738,-3.615269660949707 -12.036931991577148,-3.7692337036132812 -11.672554016113281,-3.953383207321167 C-7.850523948669434,-5.887876033782959 -6.745311260223389,-7.370448589324951 -6.465741157531738,-7.825474262237549 C-6.508363246917725,-7.992412567138672 -6.664512634277344,-8.356696128845215 -6.964128017425537,-8.881888389587402 C-9.565956115722656,-13.141804695129395 -15.769021987915039,-10.806636810302734 -16.992374420166016,-10.265783309936523 C-16.992374420166016,-10.265783309936523 -16.891374588012695,-10.27196979522705 -16.891374588012695,-10.27196979522705 C-16.893436431884766,-10.30596923828125 -25.798418045043945,-30.236013412475586 -25.798418045043945,-30.236013412475586 C-24.805723190307617,-30.662277221679688 -19.543533325195312,-32.87330627441406 -12.818597793579102,-33.1089973449707 C-2.3430087566375732,-33.4757194519043 6.336463451385498,-28.904319763183594 11.647679328918457,-20.25482749938965 C16.254167556762695,-12.752909660339355 15.79333209991455,-6.194112300872803 14.60466480255127,-1.9977937936782837 C12.588478088378906,5.1202569007873535 7.084972858428955,11.005403518676758 -1.7783160209655762,15.482397079467773 C-1.7783160209655762,15.482397079467773 -1.9430359601974487,15.559019088745117 -1.9430359601974487,15.559019088745117 C-3.3896422386169434,16.348773956298828 -4.958398342132568,16.773557662963867 -6.511241912841797,16.857593536376953z M-1.7783160209655762,15.482397079467773 C-1.7783160209655762,15.482397079467773 -1.8453160524368286,15.486520767211914 -1.8772541284561157,15.52173900604248 C-1.8432540893554688,15.51967716217041 -1.8102540969848633,15.51761531829834 -1.7783160209655762,15.482397079467773z"></path></g><g opacity="1" transform="matrix(1,0,0,1,927.3209838867188,370.0769958496094)"><path fill="rgb(242,162,155)" fill-opacity="1" d=" M-3.236969470977783,18.7937068939209 C-7.523656845092773,19.026662826538086 -11.754583358764648,16.914152145385742 -14.050698280334473,12.949896812438965 C-17.301939010620117,7.337813377380371 -15.390032768249512,0.15810489654541016 -9.777949333190918,-3.0931358337402344 C-9.415571212768555,-3.282285451889038 -9.118974685668945,-3.4333112239837646 -8.822535514831543,-3.5851807594299316 C-8.163717269897461,-3.925356388092041 -7.608710765838623,-4.326033592224121 -7.160078525543213,-4.759524822235107 C-4.7473835945129395,-7.0914483070373535 -6.96524715423584,-11.110827445983887 -10.243537902832031,-10.414230346679688 C-11.314915657043457,-10.186687469482422 -12.442453384399414,-9.75317668914795 -13.553277969360352,-9.015509605407715 C-19.98053741455078,-4.569409370422363 -36.86292266845703,-20.51122283935547 -27.448177337646484,-27.930143356323242 C-23.388938903808594,-31.09650421142578 2.3918797969818115,-43.46015930175781 16.356969833374023,-21.172653198242188 C21.362167358398438,-13.184197425842285 20.760103225708008,-6.077777862548828 19.488462448120117,-1.5711177587509155 C17.984399795532227,3.7581937313079834 13.690458297729492,11.338421821594238 1.7968943119049072,17.369173049926758 C1.7968943119049072,17.369173049926758 1.6958943605422974,17.374671936035156 1.6958943605422974,17.374671936035156 C0.11962998658418655,18.272830963134766 -1.5479077100753784,18.736268997192383 -3.2357513904571533,18.827707290649414 C-3.2357513904571533,18.827707290649414 -3.236969470977783,18.7937068939209 -3.236969470977783,18.7937068939209z M1.9945523738861084,17.25664520263672 C1.9287705421447754,17.293926239013672 1.8636760711669922,17.3310489654541 1.7638943195343018,17.370391845703125 C1.8636760711669922,17.3310489654541 1.9287705421447754,17.293926239013672 1.9945523738861084,17.25664520263672z"></path></g><g opacity="1" transform="matrix(1,0,0,1,912.77197265625,374.2590026855469)"><path fill="rgb(255,197,179)" fill-opacity="1" d=" M-1.8090089559555054,21.115468978881836 C-5.8256964683532715,21.33430290222168 -9.866659164428711,19.47579574584961 -12.251842498779297,15.86056900024414 C-15.831460952758789,10.43557357788086 -14.363896369934082,3.1774513721466064 -8.9389009475708,-0.40132370591163635 C-8.9389009475708,-0.40132370591163635 -8.578584671020508,-0.623629629611969 -8.578584671020508,-0.623629629611969 C-8.578584671020508,-0.623629629611969 -8.578584671020508,-0.623629629611969 -8.578584671020508,-0.623629629611969 C-6.189310550689697,-2.1414294242858887 -6.525089740753174,-5.735713005065918 -9.147226333618164,-6.7202582359313965 C-13.951345443725586,-8.523935317993164 -20.083444595336914,-6.125890731811523 -20.183225631713867,-6.086548805236816 C-26.42018699645996,-4.35922384262085 -27.956789016723633,-12.671211242675781 -29.684112548828125,-18.908172607421875 C-31.41143798828125,-25.14513397216797 -27.768171310424805,-31.636125564575195 -21.499052047729492,-33.370513916015625 C-11.29326343536377,-36.194515228271484 10.163501739501953,-36.519290924072266 18.50752830505371,-17.4010066986084 C24.3096923828125,-4.106573104858398 18.956300735473633,9.523755073547363 4.1749267578125,19.0970458984375 C4.1749267578125,19.0970458984375 4.012269020080566,19.20751190185547 4.012269020080566,19.20751190185547 C2.2148122787475586,20.388416290283203 0.18474020063877106,21.040847778320312 -1.806947112083435,21.149311065673828 C-1.806947112083435,21.149311065673828 -1.8090089559555054,21.115468978881836 -1.8090089559555054,21.115468978881836z"></path></g></g></g><g style="display: block;" transform="matrix(1,0,0,1,0,-268)" opacity="1"><g opacity="1" transform="matrix(1,0,0,1,200.61399841308594,475.7359924316406)"><path fill="rgb(7,31,59)" fill-opacity="1" d=" M28.777999877929688,-80.6449966430664 C12.178999900817871,-78.91300201416016 1.8049999475479126,-66.64700317382812 -4.061999797821045,-53.5 C-9.916000366210938,-40.382999420166016 -10.126999855041504,-35.082000732421875 -17.344999313354492,-25.305999755859375 C-24.55500030517578,-15.541999816894531 -42.82899856567383,4.409999847412109 -40.66600036621094,28.389999389648438 C-38.50299835205078,52.369998931884766 -23.9060001373291,59.816001892089844 -3.306999921798706,53.012001037597656 C13.258999824523926,47.540000915527344 18.47100067138672,26.37700080871582 21.906999588012695,13.423999786376953 C25.343000411987305,0.47099998593330383 31.36400032043457,-9.223999977111816 39.35499954223633,-12.987000465393066 C47.34600067138672,-16.75 68.45899963378906,-37.57600021362305 60.54499816894531,-51.14899826049805 C52.63100051879883,-64.72200012207031 51.27399826049805,-67.72899627685547 48.84299850463867,-71.40499877929688 C46.4119987487793,-75.08100128173828 40.891998291015625,-81.90899658203125 28.704999923706055,-80.6259994506836 C28.704999923706055,-80.6259994506836 28.777999877929688,-80.6449966430664 28.777999877929688,-80.6449966430664z"></path></g><g opacity="1" transform="matrix(1,0,0,1,0,0)"><g opacity="1" transform="matrix(1,0,0,1,354.2030029296875,529.9140014648438)"><path fill="rgb(17,64,119)" fill-opacity="1" d=" M165.87899780273438,10.236000061035156 C165.87899780273438,10.236000061035156 163,64.59600067138672 163,64.59600067138672 C163,64.59600067138672 160.9340057373047,104.05400085449219 160.9340057373047,104.05400085449219 C-69.64700317382812,124.78199768066406 -138.08999633789062,-43.803001403808594 -151.26699829101562,-73.71199798583984 C-153.5590057373047,-78.91500091552734 -152.25999450683594,-84.11299896240234 -148.75999450683594,-88.89399719238281 C-136.49600219726562,-105.64700317382812 -97.27300262451172,-117.22699737548828 -91.70700073242188,-105.60700225830078 C-80.91200256347656,-83.072998046875 -70.05699920654297,-53.71200180053711 -39.915000915527344,-28.658000946044922 C1.5770000219345093,5.829999923706055 66.27999877929688,27.695999145507812 165.87899780273438,10.236000061035156z"></path></g><g opacity="1" transform="matrix(1,0,0,1,352.7980041503906,545.2000122070312)"><path fill="rgb(12,52,97)" fill-opacity="1" d=" M164.43899536132812,49.277000427246094 C164.43899536132812,49.277000427246094 162.3730010986328,88.73400115966797 162.3730010986328,88.73400115966797 C-68.20800018310547,109.46199798583984 -136.6439971923828,-59.11600112915039 -149.82200622558594,-89.0250015258789 C-152.11399841308594,-94.22799682617188 -150.81300354003906,-99.4229965209961 -147.31500244140625,-104.20600128173828 C-140.41700744628906,-85.30999755859375 -119.2979965209961,-35.20000076293945 -86.30799865722656,-2.2760000228881836 C-56.262001037597656,27.709999084472656 -12.255000114440918,50.361000061035156 26.999000549316406,34.20500183105469 C55.92300033569336,22.316999435424805 92.16300201416016,12.866999626159668 118.30999755859375,24.891000747680664 C135.99000549316406,33.02000045776367 150.9929962158203,35.1879997253418 164.43899536132812,49.31100082397461 C164.43899536132812,49.31100082397461 164.43899536132812,49.277000427246094 164.43899536132812,49.277000427246094z"></path></g></g></g><g style="display: block;" transform="matrix(0.9975640773773193,-0.06975647062063217,0.06975647062063217,0.9975640773773193,-41.32635498046875,-235.250244140625)" opacity="1"><g opacity="1" transform="matrix(1,0,0,1,179.38400268554688,567.0040283203125)"><path fill="rgb(8,38,71)" fill-opacity="1" d=" M12.70199966430664,15.829000473022461 C12.70199966430664,15.829000473022461 11.166000366210938,14.946000099182129 9.335000038146973,13.87600040435791 C7.478000164031982,12.791000366210938 -1.593000054359436,1.371000051498413 -11.98799991607666,-3.5239999294281006 C-22.382999420166016,-8.418999671936035 -24.302000045776367,-9.904999732971191 -29.054000854492188,-7.695000171661377 C-39.33399963378906,-2.9140000343322754 -51.77199935913086,19.209999084472656 -55.90800094604492,22.291000366210938 C-62.327999114990234,27.072999954223633 -74.34100341796875,40.9379997253418 -81.10900115966797,55.44599914550781 C-87.33599853515625,68.7959976196289 -87.98100280761719,81.70800018310547 -86.98699951171875,88.75900268554688 C-85.7249984741211,97.71399688720703 -73.06800079345703,109.76399993896484 -59.939998626708984,101.06400299072266 C-58.10499954223633,99.8479995727539 -37.96500015258789,75.85299682617188 -29.417999267578125,73.23999786376953 C-22.018999099731445,70.97799682617188 -16.945999145507812,69.46700286865234 -13.3100004196167,70.56900024414062 C-12.09000015258789,70.93900299072266 -11.71399974822998,71.13700103759766 -10.616999626159668,71.7509994506836 C3.489000082015991,79.79299926757812 24.902999877929688,22.89900016784668 12.758000373840332,15.791999816894531 C12.758000373840332,15.791999816894531 12.70199966430664,15.829000473022461 12.70199966430664,15.829000473022461z"></path></g><g opacity="1" transform="matrix(1,0,0,1,329.531005859375,643.2169799804688)"><path fill="rgb(17,64,119)" fill-opacity="1" d=" M130.36599731445312,26.719999313354492 C109.46900177001953,63.70500183105469 36.91600036621094,59.90700149536133 -23.743000030517578,52.72700119018555 C-99.06800079345703,43.819000244140625 -155.41600036621094,9.958999633789062 -168.5570068359375,-2.303999900817871 C-172.0709991455078,-5.583000183105469 -172.14700317382812,-11.829000473022461 -170.1269989013672,-19.018999099731445 C-164.58700561523438,-38.7400016784668 -143.20799255371094,-65.8290023803711 -133.06900024414062,-60.03300094604492 C-122.99600219726562,-54.275001525878906 -57.51100158691406,-26.392000198364258 -15.817999839782715,-33.87699890136719 C20.014999389648438,-40.3120002746582 43.6609992980957,-82.77899932861328 102.66100311279297,-79.86599731445312 C104.86199951171875,-79.76399993896484 106.99600219726562,-79.56199645996094 109.02799987792969,-79.2229995727539 C155.46200561523438,-72.14399719238281 153.46499633789062,-14.12600040435791 130.36599731445312,26.753999710083008 C130.36599731445312,26.753999710083008 130.36599731445312,26.719999313354492 130.36599731445312,26.719999313354492z"></path></g><g opacity="1" transform="matrix(1,0,0,1,329.531005859375,643.5670166015625)"><path fill="rgb(12,52,97)" fill-opacity="1" d=" M130.36599731445312,26.3700008392334 C109.46900177001953,63.35499954223633 36.91600036621094,59.555999755859375 -23.743000030517578,52.375999450683594 C-99.06800079345703,43.46799850463867 -155.41600036621094,9.609000205993652 -168.5570068359375,-2.6540000438690186 C-172.0709991455078,-5.933000087738037 -172.1479949951172,-12.178999900817871 -170.1269989013672,-19.368999481201172 C-147.98199462890625,-3.7330000400543213 -121.4209976196289,-2.7960000038146973 -45.11399841308594,18.84600067138672 C18.864999771118164,37 78.81700134277344,27.01300048828125 78.98600006103516,5.539999961853027 C79.12200164794922,-11.631999969482422 78.51300048828125,-27.516000747680664 84.677001953125,-43.46799850463867 C87.96199798583984,-51.935001373291016 97.64800262451172,-73.74700164794922 109.02799987792969,-79.60600280761719 C155.46200561523438,-72.5270004272461 153.46499633789062,-14.510000228881836 130.36599731445312,26.3700008392334z"></path></g></g><g clip-path="url(#lottie-id)" style="display: none;"><g style="display: none;"><g><path stroke-linecap="round" stroke-linejoin="miter" fill-opacity="0" stroke-miterlimit="4"></path></g></g><g style="display: none;"><g><path stroke-linecap="round" stroke-linejoin="miter" fill-opacity="0" stroke-miterlimit="4"></path></g></g><g style="display: none;"><g><path stroke-linecap="round" stroke-linejoin="miter" fill-opacity="0" stroke-miterlimit="4"></path></g></g><g style="display: none;"><g><path stroke-linecap="round" stroke-linejoin="miter" fill-opacity="0" stroke-miterlimit="4"></path></g></g><g style="display: none;"><g><path stroke-linecap="round" stroke-linejoin="miter" fill-opacity="0" stroke-miterlimit="4"></path></g></g><g style="display: none;"><g><path stroke-linecap="round" stroke-linejoin="miter" fill-opacity="0" stroke-miterlimit="4"></path></g></g><g style="display: none;"><g><path stroke-linecap="round" stroke-linejoin="miter" fill-opacity="0" stroke-miterlimit="4"></path></g></g></g><g clip-path="url(#lottie-id)" style="display: block;" transform="matrix(1,0,0,1,0,-268)" opacity="1"><g style="display: none;"><g><path stroke-linecap="round" stroke-linejoin="miter" fill-opacity="0" stroke-miterlimit="4"></path></g></g><g style="display: none;"><g><path stroke-linecap="round" stroke-linejoin="miter" fill-opacity="0" stroke-miterlimit="4"></path></g></g><g style="display: none;"><g><path stroke-linecap="round" stroke-linejoin="miter" fill-opacity="0" stroke-miterlimit="4"></path></g></g><g style="display: block;" transform="matrix(0.5446390509605408,-0.838670551776886,0.838670551776886,0.5446390509605408,422.7869567871094,367.0533447265625)" opacity="1"><g opacity="1" transform="matrix(1,0,0,1,0,0)"><path stroke-linecap="round" stroke-linejoin="miter" fill-opacity="0" stroke-miterlimit="4" stroke="rgb(251,201,119)" stroke-opacity="1" stroke-width="20" d=" M-190.3509979248047,-92.71099853515625 C-201.6060028076172,-99.33699798583984 -213.58200073242188,-106.38700103759766 -225.79200744628906,-113.57499694824219"></path></g></g><g style="display: block;" transform="matrix(0.5446390509605408,-0.838670551776886,0.838670551776886,0.5446390509605408,504.0999755859375,476.9453430175781)" opacity="1"><g opacity="1" transform="matrix(1,0,0,1,0,0)"><path stroke-linecap="round" stroke-linejoin="miter" fill-opacity="0" stroke-miterlimit="4" stroke="rgb(237,85,81)" stroke-opacity="1" stroke-width="20" d=" M-241.20899963378906,-121.85399627685547 C-251.69500732421875,-127.95899963378906 -261.9809875488281,-133.94700622558594 -271.64801025390625,-139.57400512695312"></path></g></g><g style="display: none;"><g><path stroke-linecap="round" stroke-linejoin="miter" fill-opacity="0" stroke-miterlimit="4"></path></g></g><g style="display: none;"><g><path stroke-linecap="round" stroke-linejoin="miter" fill-opacity="0" stroke-miterlimit="4"></path></g></g></g><g clip-path="url(#lottie-id)" style="display: none;"><g style="display: none;"><g><path stroke-linecap="round" stroke-linejoin="miter" fill-opacity="0" stroke-miterlimit="4"></path></g></g><g style="display: none;"><g><path stroke-linecap="round" stroke-linejoin="miter" fill-opacity="0" stroke-miterlimit="4"></path></g></g><g style="display: none;"><g><path stroke-linecap="round" stroke-linejoin="miter" fill-opacity="0" stroke-miterlimit="4"></path></g></g><g style="display: none;"><g><path stroke-linecap="round" stroke-linejoin="miter" fill-opacity="0" stroke-miterlimit="4"></path></g></g><g style="display: none;"><g><path stroke-linecap="round" stroke-linejoin="miter" fill-opacity="0" stroke-miterlimit="4"></path></g></g><g style="display: none;"><g><path stroke-linecap="round" stroke-linejoin="miter" fill-opacity="0" stroke-miterlimit="4"></path></g></g><g style="display: none;"><g><path stroke-linecap="round" stroke-linejoin="miter" fill-opacity="0" stroke-miterlimit="4"></path></g></g></g><g clip-path="url(#lottie-id)" style="display: none;"><g style="display: none;"><g><path stroke-linecap="round" stroke-linejoin="miter" fill-opacity="0" stroke-miterlimit="4"></path></g></g><g style="display: none;"><g><path stroke-linecap="round" stroke-linejoin="miter" fill-opacity="0" stroke-miterlimit="4"></path></g></g><g style="display: none;"><g><path stroke-linecap="round" stroke-linejoin="miter" fill-opacity="0" stroke-miterlimit="4"></path></g></g><g style="display: none;"><g><path stroke-linecap="round" stroke-linejoin="miter" fill-opacity="0" stroke-miterlimit="4"></path></g></g><g style="display: none;"><g><path stroke-linecap="round" stroke-linejoin="miter" fill-opacity="0" stroke-miterlimit="4"></path></g></g><g style="display: none;"><g><path stroke-linecap="round" stroke-linejoin="miter" fill-opacity="0" stroke-miterlimit="4"></path></g></g><g style="display: none;"><g><path stroke-linecap="round" stroke-linejoin="miter" fill-opacity="0" stroke-miterlimit="4"></path></g></g></g><g clip-path="url(#lottie-id)" style="display: none;"><g style="display: none;"><g><path stroke-linecap="round" stroke-linejoin="miter" fill-opacity="0" stroke-miterlimit="4"></path></g></g><g style="display: none;"><g><path stroke-linecap="round" stroke-linejoin="miter" fill-opacity="0" stroke-miterlimit="4"></path></g></g><g style="display: none;"><g><path stroke-linecap="round" stroke-linejoin="miter" fill-opacity="0" stroke-miterlimit="4"></path></g></g><g style="display: none;"><g><path stroke-linecap="round" stroke-linejoin="miter" fill-opacity="0" stroke-miterlimit="4"></path></g></g><g style="display: none;"><g><path stroke-linecap="round" stroke-linejoin="miter" fill-opacity="0" stroke-miterlimit="4"></path></g></g><g style="display: none;"><g><path stroke-linecap="round" stroke-linejoin="miter" fill-opacity="0" stroke-miterlimit="4"></path></g></g><g style="display: none;"><g><path stroke-linecap="round" stroke-linejoin="miter" fill-opacity="0" stroke-miterlimit="4"></path></g></g></g><g clip-path="url(#lottie-id)" style="display: none;"><g style="display: none;"><g><path stroke-linecap="round" stroke-linejoin="miter" fill-opacity="0" stroke-miterlimit="4"></path></g></g><g style="display: none;"><g><path stroke-linecap="round" stroke-linejoin="miter" fill-opacity="0" stroke-miterlimit="4"></path></g></g><g style="display: none;"><g><path stroke-linecap="round" stroke-linejoin="miter" fill-opacity="0" stroke-miterlimit="4"></path></g></g><g style="display: none;"><g><path stroke-linecap="round" stroke-linejoin="miter" fill-opacity="0" stroke-miterlimit="4"></path></g></g><g style="display: none;"><g><path stroke-linecap="round" stroke-linejoin="miter" fill-opacity="0" stroke-miterlimit="4"></path></g></g><g style="display: none;"><g><path stroke-linecap="round" stroke-linejoin="miter" fill-opacity="0" stroke-miterlimit="4"></path></g></g><g style="display: none;"><g><path stroke-linecap="round" stroke-linejoin="miter" fill-opacity="0" stroke-miterlimit="4"></path></g></g></g><g style="display: block;" transform="matrix(1,0,0,1,326.4530029296875,218.75)" opacity="1"><g opacity="1" transform="matrix(1,0,0,1,0,0)"><path fill="rgb(237,73,68)" fill-opacity="1" d=" M-0.2709999978542328,-85.1240005493164 C-1.5240000486373901,-84.51399993896484 -2.7769999504089355,-83.83699798583984 -4.03000020980835,-83.09200286865234 C-36.882999420166016,-63.82099914550781 -45.28300094604492,-15.253000259399414 -22.72599983215332,25.389999389648438 C-1.0499999523162842,64.50900268554688 41.354000091552734,82.01899719238281 73.8010025024414,66.10099792480469 C73.8010025024414,66.10099792480469 71.66699981689453,67.1510009765625 71.66699981689453,67.1510009765625 C48.60200119018555,78.46299743652344 31.531999588012695,86.3550033569336 22.149999618530273,84.96600341796875 C18.93199920654297,84.49199676513672 19.37299919128418,82.56199645996094 19.643999099731445,81.41000366210938 C20.490999221801758,77.54900360107422 17.409000396728516,73.31500244140625 -2.2009999752044678,75.04199981689453 C-19.947999954223633,76.5999984741211 -28.042999267578125,77.31099700927734 -34.34299850463867,74.05999755859375 C-51.37900161743164,65.28800201416016 -47.755001068115234,54.823001861572266 -45.99399948120117,49.810001373291016 C-42.47200012207031,39.68299865722656 -41.1510009765625,35.88999938964844 -44.60599899291992,30.368999481201172 C-51.71900177001953,18.98900032043457 -70.21099853515625,20.91900062561035 -73.8010025024414,5.440999984741211 C-73.56400299072266,3.2060000896453857 -73.93599700927734,0.02199999988079071 -72.98799896240234,-2.009999990463257 C-72.2770004272461,-3.6019999980926514 -71.26100158691406,-5.668000221252441 -70.447998046875,-7.22599983215332 C-64.69000244140625,-18.639999389648438 -53.2760009765625,-25.041000366210938 -45.75699996948242,-34.89699935913086 C-45.722999572753906,-34.930999755859375 -42.20100021362305,-40.04399871826172 -41.86199951171875,-45.29399871826172 C-41.69300079345703,-48.0369987487793 -42.70899963378906,-48.849998474121094 -45.249000549316406,-50.23899841308594 C-48.80500030517578,-52.16999816894531 -48.12799835205078,-54.13399887084961 -44.19900131225586,-59.04499816894531 C-38.40700149536133,-66.3270034790039 -15.140000343322754,-77.7750015258789 -2.6419999599456787,-83.93900299072266 C-2.6419999599456787,-83.93900299072266 -0.2709999978542328,-85.09100341796875 -0.2709999978542328,-85.09100341796875 C-0.2709999978542328,-85.09100341796875 -0.2709999978542328,-85.09100341796875 -0.2709999978542328,-85.09100341796875 C-0.2709999978542328,-85.09100341796875 -0.2709999978542328,-85.1240005493164 -0.2709999978542328,-85.1240005493164z"></path></g></g><g style="display: block;" transform="matrix(1,0,0,1,0,-268)" opacity="1"><g opacity="1" transform="matrix(1,0,0,1,0,0)"><g opacity="1" transform="matrix(1,0,0,1,0,0)"><g opacity="1" transform="matrix(1,0,0,1,0,0)"><g opacity="1" transform="matrix(1,0,0,1,348.5419921875,478.8349914550781)"><path fill="rgb(255,134,102)" fill-opacity="1" d=" M-40.17599868774414,34.694000244140625 C-66.62799835205078,-14.043999671936035 -54.97600173950195,-72.26399993896484 -15.687999725341797,-90.7229995727539 C-25.916000366210938,-85.91400146484375 -35.36600112915039,-78.08899688720703 -41.80099868774414,-69.41899871826172 C-63.34199905395508,-39.85100173950195 -63.512001037597656,-3.069000005722046 -48.16899871826172,30.9689998626709 C-33.67300033569336,60.09600067138672 -13.14799976348877,80.62100219726562 20.077999114990234,88.88500213623047 C34.87900161743164,91.86499786376953 45.479000091552734,91.18800354003906 58.92499923706055,87.08999633789062 C40.534000396728516,96.9800033569336 -18.025999069213867,82.5510025024414 -40.17599868774414,34.694000244140625z"></path></g><g opacity="1" transform="matrix(1,0,0,1,413.4620056152344,563.60498046875)"><path fill="rgb(17,64,119)" fill-opacity="1" d=" M-1.7610000371932983,0.7620000243186951 C-0.5759999752044678,0.2879999876022339 0.609000027179718,-0.2199999988079071 1.7610000371932983,-0.7620000243186951 C0.6769999861717224,-0.32199999690055847 -0.5419999957084656,0.2199999988079071 -1.7610000371932983,0.7620000243186951z"></path></g></g><g opacity="1" transform="matrix(1,0,0,1,423.02899169921875,446.13800048828125)"><g opacity="1" transform="matrix(1,0,0,1,0,0)"><path fill="rgb(61,117,169)" fill-opacity="1" d=" M-89.8030014038086,-58.19599914550781 C-89.8030014038086,-58.19599914550781 46.926998138427734,-122.44499969482422 46.926998138427734,-122.44499969482422 C45.36899948120117,-121.69999694824219 43.845001220703125,-120.9219970703125 42.32099914550781,-120.04100036621094 C5.946000099182129,-98.9739990234375 -3.0980000495910645,-43.83599853515625 22.066999435424805,3.1070001125335693 C46.215999603271484,48.11899948120117 93.05699920654297,69.25399780273438 128.9239959716797,52.42100143432617 C128.9239959716797,52.42100143432617 -7.804999828338623,116.66999816894531 -7.804999828338623,116.66999816894531 C-43.672000885009766,133.53700256347656 -90.51300048828125,112.36900329589844 -114.66200256347656,67.35700225830078 C-139.86099243164062,20.413999557495117 -130.78399658203125,-34.757999420166016 -94.40899658203125,-55.79100036621094 C-92.88500213623047,-56.672000885009766 -91.36000061035156,-57.48500061035156 -89.802001953125,-58.19599914550781 C-89.802001953125,-58.19599914550781 -89.802001953125,-58.19599914550781 -89.802001953125,-58.19599914550781 C-89.802001953125,-58.19599914550781 -89.8030014038086,-58.19599914550781 -89.8030014038086,-58.19599914550781z"></path></g></g><g opacity="1" transform="matrix(1,0,0,1,516.3109741210938,409.97900390625)"><path fill="rgb(17,64,119)" fill-opacity="1" d=" M85.46299743652344,5.432000160217285 C85.3949966430664,2.0789999961853027 85.125,-2.188999891281128 84.61699676513672,-6.118000030517578 C87.59700012207031,17.04800033569336 82.38099670410156,42.790000915527344 64.63400268554688,59.01300048828125 C44.75299835205078,77.60700225830078 15.151000022888184,76.48899841308594 -7.10099983215332,62.737998962402344 C-29.59000015258789,49.2239990234375 -45.3390007019043,25.922000885009766 -51.80799865722656,0.656000018119812 C-63.763999938964844,-42.154998779296875 -41.375999450683594,-92.68699645996094 5.736000061035156,-90.0790023803711 C25.753000259399414,-88.96099853515625 44.244998931884766,-77.91999816894531 57.65700149536133,-63.492000579833984 C51.56100082397461,-70.06300354003906 44.6510009765625,-75.81999969482422 36.9630012512207,-80.49400329589844 C20.875,-90.9260025024414 -4.019000053405762,-97.3949966430664 -26.4060001373291,-92.75499725341797 C-83.54299926757812,-83.0009994506836 -101.4260025024414,-16.041000366210938 -70.47000122070312,40.62200164794922 C-42.52799987792969,90.41000366210938 10.74899959564209,109.88400268554688 49.46099853515625,80.41799926757812 C73.54199981689453,63.31399917602539 86.34500122070312,33.03499984741211 85.46399688720703,5.363999843597412 C85.46399688720703,5.363999843597412 85.46299743652344,5.432000160217285 85.46299743652344,5.432000160217285z"></path></g><g opacity="1" transform="matrix(1,0,0,1,572.8499755859375,382.0830078125)"><path fill="rgb(251,201,119)" fill-opacity="1" d=" M6.77400016784668,12.633000373840332 C1.3550000190734863,15.74899959564209 -6.061999797821045,12.633000373840332 -9.788000106811523,5.656000137329102 C-13.54699993133545,-1.3209999799728394 -12.192999839782715,-9.517000198364258 -6.77400016784668,-12.633000373840332 C-1.3550000190734863,-15.74899959564209 6.061999797821045,-12.633000373840332 9.788000106811523,-5.656000137329102 C13.54699993133545,1.3209999799728394 12.192999839782715,9.517000198364258 6.77400016784668,12.633000373840332z"></path></g><g opacity="1" transform="matrix(1,0,0,1,0,0)"><g opacity="1" transform="matrix(1,0,0,1,532.6480102539062,387.739013671875)"><path fill="rgb(51,83,112)" fill-opacity="1" d=" M0,0 C0,0 0,0 0,0 C0,0 0,0 0,0 C0,0 0,0 0,0z"></path></g><g opacity="1" transform="matrix(1,0,0,1,565.4299926757812,385.60198974609375)"><path fill="rgb(12,52,97)" fill-opacity="1" d=" M24.76099967956543,31.298999786376953 C41.15399932861328,13.145000457763672 32.99100112915039,-16.354999542236328 15.98900032043457,-30.44499969482422 C8.538000106811523,-36.77899932861328 -2.0290000438690186,-40.74100112915039 -11.715999603271484,-38.64099884033203 C-35.356998443603516,-33.527000427246094 -38.540000915527344,-2.434999942779541 -27.770000457763672,16.02400016784668 C-18.150999069213867,34.99100112915039 7.48799991607666,48.50400161743164 24.76099967956543,31.298999786376953 C24.76099967956543,31.298999786376953 24.76099967956543,31.298999786376953 24.76099967956543,31.298999786376953z M-2.368000030517578,2.13700008392334 C-10.902999877929688,-14.390999794006348 7.623000144958496,-25.9060001373291 17.20800018310547,-9.208999633789062 C25.743000030517578,7.318999767303467 7.2170000076293945,18.833999633789062 -2.368000030517578,2.13700008392334z"></path></g></g><g opacity="1" transform="matrix(1,0,0,1,531.572998046875,401.4639892578125)"><path fill="rgb(233,240,247)" fill-opacity="1" d=" M51.87799835205078,65.08799743652344 C65.45899963378906,50.96500015258789 70.84400177001953,30.67799949645996 70.0989990234375,11.4399995803833 C69.72599792480469,2.6679999828338623 68.10099792480469,-6.002999782562256 67.08499908447266,-14.706999778747559 C67.35600280761719,-12.572999954223633 67.49199676513672,-10.4399995803833 67.49199676513672,-8.305999755859375 C67.66100311279297,4.734000205993652 60.37900161743164,18.85700035095215 47.06800079345703,22.378999710083008 C28.7450008392334,27.187999725341797 11.269000053405762,12.692999839782715 4.360000133514404,-3.3949999809265137 C-3.802000045776367,-20.600000381469727 -0.7210000157356262,-47.22200012207031 19.70199966430664,-53.82600021362305 C32.13199996948242,-57.85599899291992 45.91699981689453,-51.2859992980957 54.07899856567383,-42.277000427246094 C52.1150016784668,-44.37699890136719 49.91400146484375,-46.74800109863281 48.05099868774414,-48.779998779296875 C43.75,-53.38600158691406 39.6510009765625,-58.09400177001953 34.94300079345703,-62.124000549316406 C21.158000946044922,-74.11399841308594 3.242000102996826,-82.2760009765625 -15.25100040435791,-81.53099822998047 C-57.349998474121094,-79.33000183105469 -75.53800201416016,-36.619998931884766 -68.7979965209961,0.8050000071525574 C-64.49700164794922,26.444000244140625 -50.54199981689453,50.65999984741211 -29.71299934387207,66.34100341796875 C-5.394999980926514,85.03700256347656 29.457000732421875,88.66100311279297 51.9119987487793,65.08799743652344 C51.9119987487793,65.08799743652344 51.87799835205078,65.08799743652344 51.87799835205078,65.08799743652344z"></path></g></g><g opacity="1" transform="matrix(1,0,0,1,0,0)"><g opacity="1" transform="matrix(1,0,0,1,344.62298583984375,350.1449890136719)"><path fill="rgb(174,199,230)" fill-opacity="1" d=" M14.817999839782715,3.624000072479248 C8.517999649047852,-4.165999889373779 0.9990000128746033,-11.142999649047852 -7.941999912261963,-15.74899959564209 C-13.529999732971191,-18.729000091552734 -19.829999923706055,-20.320999145507812 -26.1299991607666,-20.320999145507812 C-24.94499969482422,-20.253000259399414 -23.72599983215332,-20.118000030517578 -22.573999404907227,-19.915000915527344 C-12.819999694824219,-18.187999725341797 -4.183000087738037,-12.666999816894531 3.132999897003174,-6.164000034332275 C10.144000053405762,-0.2370000034570694 19.898000717163086,13.175000190734863 25.825000762939453,20.320999145507812 C25.825000762939453,20.320999145507812 26.1299991607666,17.7810001373291 26.1299991607666,17.7810001373291 C26.1299991607666,17.7810001373291 14.817999839782715,3.6579999923706055 14.817999839782715,3.6579999923706055 C14.817999839782715,3.6579999923706055 14.817999839782715,3.624000072479248 14.817999839782715,3.624000072479248z"></path></g><g opacity="1" transform="matrix(1,0,0,1,332.3290100097656,353.5010070800781)"><path fill="rgb(23,82,148)" fill-opacity="1" d=" M25.283000946044922,0.9110000133514404 C17.594999313354492,-8.571999549865723 8.07800006866455,-17.038999557495117 -3.4040000438690186,-21.408000946044922 C-9.60200023651123,-23.7450008392334 -16.613000869750977,-24.659000396728516 -22.979999542236328,-22.423999786376953 C-26.09600067138672,-21.510000228881836 -35.207000732421875,-15.244000434875488 -38.15399932861328,-13.652000427246094 C-38.15399932861328,-13.652000427246094 -35.00299835205078,-15.175999641418457 -33.310001373291016,-15.684000015258789 C-23.250999450683594,-18.73200035095215 -12.581999778747559,-14.803999900817871 -4.114999771118164,-9.317000389099121 C2.861999988555908,-4.744999885559082 8.923999786376953,1.1480000019073486 14.173999786376953,7.651000022888184 C14.173999786376953,7.651000022888184 27.04400062561035,23.704999923706055 27.04400062561035,23.704999923706055 C27.04400062561035,23.704999923706055 38.15399932861328,16.999000549316406 38.15399932861328,16.999000549316406 C38.15399932861328,16.999000549316406 25.283000946044922,0.9449999928474426 25.283000946044922,0.9449999928474426 C25.283000946044922,0.9449999928474426 25.283000946044922,0.9110000133514404 25.283000946044922,0.9110000133514404z"></path></g><g opacity="1" transform="matrix(1,0,0,1,316.1390075683594,357.1719970703125)"><path fill="rgb(174,199,230)" fill-opacity="1" d=" M30.36400032043457,3.9800000190734863 C19.83099937438965,-9.026000022888184 2.421999931335449,-23.488000869750977 -15.427000045776367,-20.066999435424805 C-20.575000762939453,-19.42300033569336 -36.29100036621094,-7.940999984741211 -40.89699935913086,-5.434999942779541 C-41.608001708984375,-5.0289998054504395 -42.013999938964844,-4.25 -42.319000244140625,-3.505000114440918 C-42.624000549316406,-2.8949999809265137 -42.92900085449219,-2.115999937057495 -43.20000076293945,-1.5399999618530273 C-42.42100143432617,-2.555999994277954 -22.979999542236328,-14.680999755859375 -21.016000747680664,-15.562000274658203 C-12.312000274658203,-19.388999938964844 -2.3540000915527344,-16.645999908447266 5.605000019073486,-12.277000427246094 C11.22700023651123,-9.16100025177002 16.308000564575195,-5.130000114440918 20.84600067138672,-0.5580000281333923 C25.486000061035156,3.878999948501587 34.2239990234375,15.529999732971191 38.42399978637695,20.576000213623047 C38.42399978637695,20.576000213623047 43.20000076293945,20.034000396728516 43.20000076293945,20.034000396728516 C43.20000076293945,20.034000396728516 30.329999923706055,3.9800000190734863 30.329999923706055,3.9800000190734863 C30.329999923706055,3.9800000190734863 30.36400032043457,3.9800000190734863 30.36400032043457,3.9800000190734863z"></path></g><g opacity="1" transform="matrix(1,0,0,1,339.9830017089844,385.5039978027344)"><path fill="rgb(152,173,212)" fill-opacity="1" d=" M14.581000328063965,-7.789999961853027 C14.581000328063965,-7.789999961853027 19.356000900268555,-8.331999778747559 19.356000900268555,-8.331999778747559 C19.356000900268555,-8.331999778747559 -16.57900047302246,8.331999778747559 -16.57900047302246,8.331999778747559 C-16.57900047302246,8.331999778747559 -19.356000900268555,7.925000190734863 -19.356000900268555,7.925000190734863 C-19.356000900268555,7.925000190734863 14.581000328063965,-7.789999961853027 14.581000328063965,-7.789999961853027z"></path></g><g opacity="1" transform="matrix(1,0,0,1,313.50799560546875,366.64599609375)"><path fill="rgb(233,240,247)" fill-opacity="1" d=" M41.05699920654297,11.067999839782715 C41.05699920654297,11.067999839782715 7.119999885559082,26.816999435424805 7.119999885559082,26.816999435424805 C7.119999885559082,26.816999435424805 -5.953999996185303,12.017000198364258 -5.953999996185303,12.017000198364258 C-5.953999996185303,12.017000198364258 -36.266998291015625,-1.496999979019165 -36.266998291015625,-1.496999979019165 C-37.79100036621094,-2.1740000247955322 -39.04399871826172,-3.5290000438690186 -39.89099884033203,-5.052999973297119 C-41.31399917602539,-7.626999855041504 -41.58399963378906,-10.642000198364258 -39.856998443603516,-11.72599983215332 C-39.856998443603516,-11.72599983215332 -20.889999389648438,-23.680999755859375 -20.889999389648438,-23.680999755859375 C-7.715000152587891,-31.979000091552734 13.385000228881836,-23.375999450683594 29.743999481201172,-2.986999988555908 C29.743999481201172,-2.986999988555908 41.05699920654297,11.13599967956543 41.05699920654297,11.13599967956543 C41.05699920654297,11.13599967956543 41.05699920654297,11.067999839782715 41.05699920654297,11.067999839782715z"></path></g></g><g opacity="1" transform="matrix(1,0,0,1,0,0)"><g opacity="1" transform="matrix(1,0,0,1,288.2619934082031,505.79901123046875)"><path fill="rgb(233,240,247)" fill-opacity="1" d=" M47.36899948120117,-22.649999618530273 C47.36899948120117,-22.649999618530273 32.060001373291016,-14.48799991607666 32.060001373291016,-14.48799991607666 C11.163000106811523,-3.3450000286102295 -12.307999610900879,8.170999526977539 -25.719999313354492,13.861000061035156 C-26.499000549316406,14.199999809265137 -27.211000442504883,14.470000267028809 -27.922000885009766,14.774999618530273 C-27.922000885009766,14.774999618530273 -46.481998443603516,22.36199951171875 -46.481998443603516,22.36199951171875 C-49.19200134277344,23.479999542236328 -45.26300048828125,21.14299964904785 -40.48699951171875,18.805999755859375 C-40.48699951171875,18.805999755859375 -4.348999977111816,1.0920000076293945 -4.348999977111816,1.0920000076293945 C-4.348999977111816,1.0920000076293945 13.026000022888184,-8.086000442504883 13.026000022888184,-8.086000442504883 C13.026000022888184,-8.086000442504883 47.36899948120117,-22.649999618530273 47.36899948120117,-22.649999618530273 C47.36899948120117,-22.649999618530273 47.36899948120117,-22.649999618530273 47.36899948120117,-22.649999618530273z"></path></g><g opacity="1" transform="matrix(1,0,0,1,297.7640075683594,524.3159790039062)"><path fill="rgb(174,199,230)" fill-opacity="1" d=" M32.11000061035156,-15.663999557495117 C18.697999954223633,-8.517999649047852 5.116000175476074,-1.6089999675750732 -8.567000389099121,4.927999973297119 C-20.25200080871582,10.720000267028809 -36.20399856567383,17.222000122070312 -48.39699935913086,22.16699981689453 C-48.70199966430664,22.302000045776367 -49.617000579833984,22.642000198364258 -49.54899978637695,22.540000915527344 C-48.430999755859375,23.35300064086914 -47.31399917602539,24.166000366210938 -46.19599914550781,24.94499969482422 C-30.514999389648438,18.916000366210938 -12.732999801635742,11.15999984741211 2.203000068664551,3.674999952316284 C17.274999618530273,-3.674999952316284 33.66699981689453,-12.413000106811523 48.5359992980957,-20.371999740600586 C48.5359992980957,-20.371999740600586 49.551998138427734,-24.94499969482422 49.551998138427734,-24.94499969482422 C49.551998138427734,-24.94499969482422 32.176998138427734,-15.663999557495117 32.176998138427734,-15.663999557495117 C32.176998138427734,-15.663999557495117 32.11000061035156,-15.663999557495117 32.11000061035156,-15.663999557495117z"></path></g><g opacity="1" transform="matrix(1,0,0,1,294.0570068359375,515.9849853515625)"><path fill="rgb(23,82,148)" fill-opacity="1" d=" M53.191001892089844,-16.613000869750977 C53.191001892089844,-16.613000869750977 45.90999984741211,-30.871999740600586 45.90999984741211,-30.871999740600586 C34.292999267578125,-24.639999389648438 19.389999389648438,-16.68000030517578 7.7729997634887695,-10.821000099182129 C-5.808000087738037,-4.013000011444092 -19.45800018310547,2.7950000762939453 -33.47999954223633,8.654000282287598 C-33.47999954223633,8.654000282287598 -52.040000915527344,16.239999771118164 -52.040000915527344,16.239999771118164 C-52.582000732421875,16.476999282836914 -53.055999755859375,16.64699935913086 -53.191001892089844,16.613000869750977 C-53.055999755859375,16.884000778198242 -45.875999450683594,30.9060001373291 -45.90999984741211,30.871999740600586 C-43.301998138427734,30.12700080871582 -26.1299991607666,22.81100082397461 -23.82699966430664,21.93000030517578 C2.2179999351501465,10.618000030517578 28.128000259399414,-3.2009999752044678 53.191001892089844,-16.613000869750977 C53.191001892089844,-16.613000869750977 53.191001892089844,-16.613000869750977 53.191001892089844,-16.613000869750977z"></path></g><g opacity="1" transform="matrix(1,0,0,1,290.4159851074219,507.885009765625)"><path fill="rgb(174,199,230)" fill-opacity="1" d=" M49.54999923706055,-22.77199935913086 C49.54999923706055,-22.77199935913086 45.21500015258789,-24.736000061035156 45.21500015258789,-24.736000061035156 C36.91699981689453,-20.298999786376953 24.62299919128418,-13.694999694824219 16.39299964904785,-9.494999885559082 C-4.605999946594238,1.3769999742507935 -27.399999618530273,12.180999755859375 -49.54999923706055,20.58099937438965 C-49.54999923706055,20.58099937438965 -49.54999923706055,20.58099937438965 -49.54999923706055,20.58099937438965 C-49.54999923706055,20.58099937438965 -49.54999923706055,20.58099937438965 -49.54999923706055,20.58099937438965 C-49.54999923706055,21.969999313354492 -49.54999923706055,23.323999404907227 -49.54999923706055,24.71299934387207 C-49.54999923706055,24.7810001373291 -49.178001403808594,24.71299934387207 -48.39899826049805,24.374000549316406 C-48.39899826049805,24.374000549316406 -29.839000701904297,16.78700065612793 -29.839000701904297,16.78700065612793 C-2.9130001068115234,5.339000225067139 23.708999633789062,-8.918999671936035 49.516998291015625,-22.738000869750977 C49.516998291015625,-22.738000869750977 49.54999923706055,-22.77199935913086 49.54999923706055,-22.77199935913086z"></path></g></g><g opacity="1" transform="matrix(1,0,0,1,0,0)"><g opacity="1" transform="matrix(1,0,0,1,371.718994140625,558.7139892578125)"><path fill="rgb(237,73,68)" fill-opacity="1" d=" M39.94900131225586,5.6529998779296875 C15.597000122070312,15.373000144958496 -12.312000274658203,7.313000202178955 -32.36199951171875,-8.267000198364258 C-33.4119987487793,-9.079999923706055 -34.46200180053711,-9.892999649047852 -35.512001037597656,-10.77400016784668 C-35.512001037597656,-10.77400016784668 -39.94900131225586,-8.809000015258789 -39.94900131225586,-8.809000015258789 C-39.13600158691406,-8.164999961853027 -38.323001861572266,-7.5229997634887695 -37.44200134277344,-6.879000186920166 C-15.765999794006348,9.513999938964844 14.446000099182129,16.288000106811523 39.94900131225586,5.6529998779296875 C39.94900131225586,5.6529998779296875 39.94900131225586,5.6529998779296875 39.94900131225586,5.6529998779296875z"></path></g><g opacity="1" transform="matrix(1,0,0,1,444.06298828125,527.2269897460938)"><path fill="rgb(23,82,148)" fill-opacity="1" d=" M-107.85600280761719,20.714000701904297 C-91.73400115966797,34.125999450683594 -70.83699798583984,42.93199920654297 -49.6349983215332,41.137001037597656 C-38.59400177001953,44.25299835205078 94.9520034790039,-24.09600067138672 107.88999938964844,-28.634000778198242 C102.87699890136719,-26.26300048828125 97.62799835205078,-24.670000076293945 92.20899963378906,-23.756000518798828 C80.96399688720703,-21.858999252319336 69.31300354003906,-23.14699935913086 58.542999267578125,-26.770999908447266 C50.34700012207031,-29.513999938964844 42.7599983215332,-33.444000244140625 35.47800064086914,-38.4900016784668 C34.15700149536133,-39.40399932861328 32.83599853515625,-40.38600158691406 31.548999786376953,-41.36800003051758 C31.548999786376953,-41.36800003051758 -107.88999938964844,20.714000701904297 -107.88999938964844,20.714000701904297 C-107.88999938964844,20.714000701904297 -107.85600280761719,20.714000701904297 -107.85600280761719,20.714000701904297z"></path></g><g opacity="1" transform="matrix(1,0,0,1,538.7329711914062,458.406005859375)"><path fill="rgb(7,31,59)" fill-opacity="1" d=" M63.04199981689453,-39.439998626708984 C63.21099853515625,-41.16699981689453 62.8380012512207,-47.63600158691406 62.939998626708984,-45.50199890136719 C64.15899658203125,-20.472999572753906 53.694000244140625,7.164000034332275 30.290000915527344,18.849000930786133 C13.253999710083008,27.722999572753906 -7.609000205993652,25.757999420166016 -24.34000015258789,17.155000686645508 C-27.659000396728516,15.494999885559082 -30.843000411987305,13.598999977111816 -33.89099884033203,11.49899959564209 C-42.66299819946289,15.326000213623047 -52.35100173950195,22.472999572753906 -63.08700180053711,27.45199966430664 C-41.91899871826172,44.14899826049805 -11.944999694824219,52.20899963378906 13.220000267028809,40.152000427246094 C43.93899917602539,26.23200035095215 62.9739990234375,-7.09499979019165 63.04199981689453,-39.4739990234375 C63.04199981689453,-39.4739990234375 63.04199981689453,-39.439998626708984 63.04199981689453,-39.439998626708984z"></path></g><g opacity="1" transform="matrix(1,0,0,1,580.510986328125,385.5889892578125)"><path fill="rgb(240,156,101)" fill-opacity="1" d=" M-0.8870000243186951,9.128000259399414 C4.836999893188477,5.741000175476074 5.310999870300293,-2.253000020980835 2.7709999084472656,-7.841000080108643 C2.3980000019073486,-8.687999725341797 1.9579999446868896,-9.5 1.4839999675750732,-10.279000282287598 C0.6370000243186951,-4.114999771118164 -1.1239999532699585,2.7939999103546143 -4.239999771118164,10.279000282287598 C-3.055000066757202,10.144000053405762 -1.937000036239624,9.772000312805176 -0.8529999852180481,9.128000259399414 C-0.8529999852180481,9.128000259399414 -0.8870000243186951,9.128000259399414 -0.8870000243186951,9.128000259399414z"></path></g><g opacity="1" transform="matrix(1,0,0,1,579.530029296875,390.1470031738281)"><path fill="rgb(7,31,59)" fill-opacity="1" d=" M8.324000358581543,-28.452999114990234 C6.427000045776367,-30.756000518798828 4.495999813079834,-32.78799819946289 2.260999917984009,-34.685001373291016 C3.1080000400543213,-29.503000259399414 3.515000104904175,-22.76300048828125 2.430999994277954,-14.838000297546387 C2.6679999828338623,-14.46500015258789 2.871000051498413,-14.093000411987305 3.0739998817443848,-13.720000267028809 C4.5980000495910645,-10.875 5.410999774932861,-7.557000160217285 5.139999866485596,-4.339000225067139 C4.86899995803833,-0.8169999718666077 3.2100000381469727,2.7739999294281006 0.05999999865889549,4.568999767303467 C-0.9900000095367432,5.178999900817871 -2.1419999599456787,5.551000118255615 -3.3269999027252197,5.71999979019165 C-6.7820000648498535,13.984000205993652 -11.96399974822998,22.926000595092773 -19.482999801635742,32.34199905395508 C-0.7200000286102295,40.20000076293945 17.264999389648438,27.36199951171875 19.195999145507812,7.785999774932861 C20.652000427246094,-5.828999996185303 16.486000061035156,-18.124000549316406 8.324000358581543,-28.420000076293945 C8.324000358581543,-28.420000076293945 8.324000358581543,-28.452999114990234 8.324000358581543,-28.452999114990234z"></path></g><g opacity="1" transform="matrix(1,0,0,1,552.93701171875,435.5)"><path fill="rgb(174,199,230)" fill-opacity="1" d=" M45.856998443603516,-47.48899841308594 C47.178001403808594,-36.143001556396484 43.65599822998047,-23.17099952697754 34.57899856567383,-16.194000244140625 C30.615999221801758,-13.07800006866455 25.773000717163086,-11.21500015258789 20.79400062561035,-10.809000015258789 C16.424999237060547,-10.470000267028809 12.09000015258789,-11.182000160217285 7.958000183105469,-12.67199993133545 C-5.114999771118164,-0.20800000429153442 -21.67799949645996,18.420000076293945 -48.56999969482422,34.1349983215332 C-19.746999740600586,54.82899856567383 19.878999710083008,52.45800018310547 38.77799987792969,20.07900047302246 C52.189998626708984,-1.7999999523162842 48.904998779296875,-28.759000778198242 45.823001861572266,-47.48899841308594 C45.823001861572266,-47.48899841308594 45.856998443603516,-47.48899841308594 45.856998443603516,-47.48899841308594z"></path></g></g></g><g opacity="1" transform="matrix(1,0,0,1,362.62298583984375,401.4599914550781)"><path fill="rgb(12,52,97)" fill-opacity="1" d=" M54.19300079345703,-25.812000274658203 C55.17499923706055,-32.95800018310547 53.481998443603516,-35.73500061035156 49.2140007019043,-34.007999420166016 C49.2140007019043,-34.007999420166016 -43.99399948120117,9.78499984741211 -43.99399948120117,9.78499984741211 C-54.391998291015625,15.34000015258789 -57.77799987792969,32.74700164794922 -50.80099868774414,34.40700149536133 C-49.61600112915039,34.678001403808594 -48.76900100708008,34.34000015258789 -47.85499954223633,34.000999450683594 C-47.85499954223633,34.000999450683594 45.35300064086914,-9.791999816894531 45.35300064086914,-9.791999816894531 C52.1609992980957,-13.550999641418457 54.125,-25.304000854492188 54.19300079345703,-25.812000274658203 C54.19300079345703,-25.812000274658203 54.19300079345703,-25.812000274658203 54.19300079345703,-25.812000274658203 C54.19300079345703,-25.812000274658203 54.19300079345703,-25.812000274658203 54.19300079345703,-25.812000274658203z"></path></g><g opacity="1" transform="matrix(1,0,0,1,0,0)"><g opacity="1" transform="matrix(1,0,0,1,410.22601318359375,464.07501220703125)"><path fill="rgb(20,75,138)" fill-opacity="1" d=" M4.083000183105469,-1.8240000009536743 C0.18799999356269836,-8.564000129699707 -4.315999984741211,-8.123000144958496 -5.331999778747559,-4.5329999923706055 C-7.025000095367432,1.3600000143051147 -0.04899999871850014,8.642000198364258 3.8459999561309814,6.813000202178955 C6.080999851226807,5.763000011444092 6.183000087738037,2.0369999408721924 4.083000183105469,-1.8240000009536743 C4.083000183105469,-1.8240000009536743 4.083000183105469,-1.8240000009536743 4.083000183105469,-1.8240000009536743z"></path></g><g opacity="1" transform="matrix(1,0,0,1,368.2279968261719,483.8210144042969)"><path fill="rgb(20,75,138)" fill-opacity="1" d=" M4.083000183105469,-1.8240000009536743 C0.18799999356269836,-8.564000129699707 -4.315999984741211,-8.123000144958496 -5.331999778747559,-4.5329999923706055 C-7.025000095367432,1.3600000143051147 -0.04899999871850014,8.642000198364258 3.8459999561309814,6.813000202178955 C6.080999851226807,5.763000011444092 6.183000087738037,2.0369999408721924 4.083000183105469,-1.8240000009536743 C4.083000183105469,-1.8240000009536743 4.083000183105469,-1.8240000009536743 4.083000183105469,-1.8240000009536743z"></path></g><g opacity="1" transform="matrix(1,0,0,1,389.36199951171875,473.7590026855469)"><path fill="rgb(233,240,247)" fill-opacity="1" d=" M6.928999900817871,-3.0399999618530273 C0.12099999934434891,-14.859999656677246 -7.228000164031982,-13.708999633789062 -9.090999603271484,-7.748000144958496 C-12.309000015258789,2.4800000190734863 -0.25200000405311584,14.87600040435791 6.690999984741211,11.590999603271484 C10.517999649047852,9.795999526977539 10.621000289916992,3.7679998874664307 6.894999980926514,-3.0399999618530273 C6.894999980926514,-3.0399999618530273 6.894999980926514,-3.0399999618530273 6.894999980926514,-3.0399999618530273 C6.894999980926514,-3.0399999618530273 6.928999900817871,-3.0399999618530273 6.928999900817871,-3.0399999618530273z"></path></g></g><g opacity="1" transform="matrix(1,0,0,1,425.635009765625,530.2540283203125)"><path fill="rgb(12,52,97)" fill-opacity="1" d=" M54.209999084472656,-24.98900032043457 C50.72100067138672,-26.378000259399414 41.98400115966797,-29.290000915527344 35.75199890136719,-26.784000396728516 C35.75199890136719,-26.784000396728516 -57.45600128173828,17.009000778198242 -57.45600128173828,17.009000778198242 C-62.7400016784668,19.922000885009766 -58.81100082397461,24.93400001525879 -51.96900177001953,26.83099937438965 C-47.566001892089844,28.049999237060547 -40.79199981689453,28.32200050354004 -35.61000061035156,26.15399932861328 C-35.61000061035156,26.15399932861328 57.59700012207031,-17.638999938964844 57.59700012207031,-17.638999938964844 C63.25299835205078,-20.618999481201172 57.0890007019043,-23.770000457763672 54.209999084472656,-24.98900032043457 C54.209999084472656,-24.98900032043457 54.209999084472656,-24.98900032043457 54.209999084472656,-24.98900032043457z"></path></g></g><g style="display: block;" transform="matrix(1,0,0,1,0,-268)" opacity="1"><g opacity="1" transform="matrix(1,0,0,1,0,0)"><g opacity="1" transform="matrix(1,0,0,1,564.5700073242188,569.4000244140625)"><path fill="rgb(233,240,247)" fill-opacity="1" d=" M146.0260009765625,-33.584999084472656 C140.33599853515625,-10.859000205993652 143.7570037841797,19.08099937438965 109.51499938964844,46.54899978637695 C101.79299926757812,52.74700164794922 92.13999938964844,58.810001373291016 80.08300018310547,64.63500213623047 C-6.824999809265137,106.53099822998047 -61.354000091552734,106.8030014038086 -89.0250015258789,109.00399780273438 C-108.0260009765625,110.49400329589844 -128.07699584960938,100.56999969482422 -139.08399963378906,81.6709976196289 C-140.60800170898438,79.13099670410156 -141.9290008544922,76.38800048828125 -143.0469970703125,73.50900268554688 C-160.9980010986328,28.090999603271484 -139.5240020751953,-10.824999809265137 -121.60700225830078,-19.326000213623047 C-120.55699920654297,-19.833999633789062 -119.4739990234375,-20.30900001525879 -118.35600280761719,-20.783000946044922 C-96.1719970703125,-30.402000427246094 3.7079999446868896,-77.68299865722656 3.7079999446868896,-77.68299865722656 C13.258999824523926,-82.83100128173828 26.062000274658203,-89.197998046875 37.17100143432617,-94.31199645996094 C90.10800170898438,-118.59600067138672 117.10199737548828,-105.76000213623047 117.10199737548828,-105.76000213623047 C133.2239990234375,-100.61199951171875 142.09800720214844,-91.43299865722656 146.3990020751953,-80.39199829101562 C151.9199981689453,-66.302001953125 149.9550018310547,-49.19900131225586 146.05999755859375,-33.584999084472656 C146.05999755859375,-33.584999084472656 146.0260009765625,-33.584999084472656 146.0260009765625,-33.584999084472656z"></path></g><g opacity="1" transform="matrix(1,0,0,1,549.802001953125,647.25)"><path fill="rgb(174,199,230)" fill-opacity="1" d=" M124.28299713134766,-31.301000595092773 C116.56099700927734,-25.10300064086914 106.90699768066406,-19.040000915527344 94.8499984741211,-13.21500015258789 C7.941999912261963,28.680999755859375 -46.58700180053711,28.952999114990234 -74.25800323486328,31.15399932861328 C-93.25900268554688,32.64400100708008 -113.30899810791016,22.72100067138672 -124.31600189208984,3.822000026702881 C-108.16000366210938,-9.793000221252441 -88.99099731445312,-19.819000244140625 -69.24500274658203,-23.44300079345703 C-57.22100067138672,-25.67799949645996 -5.978000164031982,-33.50199890136719 6.620999813079834,-30.14900016784668 C36.595001220703125,17.233999252319336 124.31600189208984,-31.301000595092773 124.31600189208984,-31.301000595092773 C124.31600189208984,-31.301000595092773 124.28299713134766,-31.301000595092773 124.28299713134766,-31.301000595092773z"></path></g></g><g opacity="1" transform="matrix(1,0,0,1,657.8270263671875,510.0840148925781)"><path fill="rgb(242,162,155)" fill-opacity="1" d=" M-12.361000061035156,-30.017000198364258 C-12.361000061035156,-30.017000198364258 -19.033000946044922,-27.985000610351562 -25.80699920654297,-24.666000366210938 C-49.854000091552734,-12.913000106811523 -31.22599983215332,53.97800064086914 23.676000595092773,23.02199935913086 C41.152000427246094,13.166000366210938 36.917999267578125,-4.00600004196167 30.788000106811523,-12.710000038146973 C20.525999069213867,-27.239999771118164 -1.590999960899353,-33.94599914550781 -12.361000061035156,-30.017000198364258z"></path></g><g opacity="1" transform="matrix(1,0,0,1,0,0)"><g opacity="1" transform="matrix(1,0,0,1,647.5040283203125,519.4559936523438)"><path fill="rgb(174,199,230)" fill-opacity="1" d=" M33.99800109863281,13.614999771118164 C33.99800109863281,13.614999771118164 30.408000946044922,37.42499923706055 30.408000946044922,37.42499923706055 C30.408000946044922,37.42499923706055 -10.031000137329102,37.832000732421875 -28.150999069213867,8.229999542236328 C-40.547000885009766,-11.989999771118164 -33.435001373291016,-32.277000427246094 -4.882999897003174,-37.42499923706055 C-4.882999897003174,-37.42499923706055 -24.458999633789062,-23.742000579833984 -8.541000366210938,-0.03400000184774399 C5.413000106811523,20.72800064086914 33.99800109863281,13.614999771118164 33.99800109863281,13.614999771118164 C33.99800109863281,13.614999771118164 33.99800109863281,13.614999771118164 33.99800109863281,13.614999771118164z"></path></g><g opacity="1" transform="matrix(1,0,0,1,691.4619750976562,523.4869995117188)"><path fill="rgb(174,199,230)" fill-opacity="1" d=" M-9.960000038146973,9.585000038146973 C-9.960000038146973,9.585000038146973 3.9600000381469727,23.26799964904785 3.9600000381469727,23.26799964904785 C3.9600000381469727,23.26799964904785 20.792999267578125,-1.1510000228881836 -1.9329999685287476,-23.26799964904785 C-1.9329999685287476,-23.26799964904785 5.992000102996826,-5.520999908447266 -9.960000038146973,9.585000038146973 C-9.960000038146973,9.585000038146973 -9.960000038146973,9.585000038146973 -9.960000038146973,9.585000038146973z"></path></g></g><g opacity="1" transform="matrix(1,0,0,1,0,0)"><g opacity="1" transform="matrix(1,0,0,1,647.7620239257812,516.2050170898438)"><path fill="rgb(233,240,247)" fill-opacity="1" d=" M33.7400016784668,16.865999221801758 C33.7400016784668,16.865999221801758 28.863000869750977,36.13800048828125 28.863000869750977,36.13800048828125 C28.863000869750977,36.13800048828125 -10.831000328063965,36.74700164794922 -28.714000701904297,7.789000034332275 C-40.941001892089844,-12.02400016784668 -30.37299919128418,-31.15999984741211 -2.2960000038146973,-36.138999938964844 C-2.2960000038146973,-36.138999938964844 -25.02199935913086,-23.437999725341797 -9.307000160217285,-0.17000000178813934 C4.443999767303467,20.184999465942383 33.7400016784668,16.899999618530273 33.7400016784668,16.899999618530273 C33.7400016784668,16.899999618530273 33.7400016784668,16.865999221801758 33.7400016784668,16.865999221801758z"></path></g><g opacity="1" transform="matrix(1,0,0,1,691.0079956054688,519.5919799804688)"><path fill="rgb(233,240,247)" fill-opacity="1" d=" M-9.505000114440918,13.479999542236328 C-9.505000114440918,13.479999542236328 3.8389999866485596,22.25200080871582 3.8389999866485596,22.25200080871582 C3.8389999866485596,22.25200080871582 20.062000274658203,-0.5080000162124634 -2.3929998874664307,-22.25200080871582 C-2.3929998874664307,-22.25200080871582 6.447000026702881,-1.659000039100647 -9.505000114440918,13.479999542236328 C-9.505000114440918,13.479999542236328 -9.505000114440918,13.479999542236328 -9.505000114440918,13.479999542236328z"></path></g></g></g><g style="display: block;" transform="matrix(1.2000000476837158,0,0,1.2000000476837158,-123.08062744140625,-163.3179931640625)" opacity="1"><g opacity="1" transform="matrix(1,0,0,1,0,0)"><g opacity="1" transform="matrix(1,0,0,1,646.4829711914062,377.9339904785156)"><path fill="rgb(237,73,68)" fill-opacity="1" d=" M24.893999099731445,-8.746000289916992 C24.893999099731445,-8.746000289916992 26.573999404907227,15.76200008392334 5.427000045776367,18.51799964904785 C-8.571000099182129,20.32699966430664 -19.683000564575195,0.9020000100135803 -23.90399932861328,-5.3429999351501465 C-23.90399932861328,-5.3429999351501465 -33.85300064086914,11.842000007629395 -33.85300064086914,11.842000007629395 C-33.85300064086914,11.842000007629395 -1.9809999465942383,38.97600173950195 24.033000946044922,20.756999969482422 C36.99700164794922,11.668999671936035 32.689998626708984,-11.673999786376953 32.689998626708984,-11.673999786376953 C32.689998626708984,-11.673999786376953 33.85300064086914,-27.049999237060547 33.85300064086914,-27.049999237060547 C33.85300064086914,-27.049999237060547 24.937999725341797,-20.93400001525879 24.937999725341797,-20.93400001525879 C24.937999725341797,-20.93400001525879 10.854000091552734,-19.082000732421875 10.854000091552734,-19.082000732421875 C10.854000091552734,-19.082000732421875 24.893999099731445,-8.746000289916992 24.893999099731445,-8.746000289916992z"></path></g><g opacity="1" transform="matrix(1,0,0,1,608.2579956054688,364.79998779296875)"><path fill="rgb(255,134,102)" fill-opacity="1" d=" M-58.3380012512207,-20.375999450683594 C-58.3380012512207,-20.375999450683594 -36.02799987792969,-23.176000595092773 -21.51300048828125,-5.130000114440918 C-3.121999979019165,17.739999771118164 11.994999885559082,62.92100143432617 58.3380012512207,36.21799850463867 C58.3380012512207,36.21799850463867 41.92900085449219,45.176998138427734 22.246000289916992,13.951000213623047 C1.6579999923706055,-18.695999145507812 -13.029000282287598,-40.23099899291992 -39.38800048828125,-44.409000396728516 C-39.38800048828125,-44.409000396728516 -55.797000885009766,-37.73400115966797 -55.797000885009766,-37.73400115966797 C-55.797000885009766,-37.73400115966797 -58.3380012512207,-20.375999450683594 -58.3380012512207,-20.375999450683594z"></path></g></g></g><g style="display: block;" transform="matrix(1,0,0,1,0,-268)" opacity="1"><g opacity="1" transform="matrix(1,0,0,1,0,0)"><g opacity="1" transform="matrix(1,0,0,1,0,0)"><g opacity="1" transform="matrix(1,0,0,1,663.4320068359375,408.62799072265625)"><path fill="rgb(255,197,179)" fill-opacity="1" d=" M68.16300201416016,87.66200256347656 C38.18899917602539,102.29299926757812 -25.485000610351562,105.74800109863281 -66.90699768066406,49.35599899291992 C-98.4729995727539,6.375999927520752 -101.62200164794922,-59.73699951171875 -44.28200149536133,-86.62899780273438 C11.39900016784668,-112.70800018310547 53.70100021362305,-83.2760009765625 62.167999267578125,-60.75299835205078 C62.167999267578125,-60.75299835205078 75.44499969482422,-15.199000358581543 80.59300231933594,1.0579999685287476 C99.72899627685547,61.20899963378906 83.74299621582031,80.00700378417969 68.12899780273438,87.62799835205078 C68.12899780273438,87.62799835205078 68.16300201416016,87.66200256347656 68.16300201416016,87.66200256347656z"></path></g><g opacity="1" transform="matrix(1,0,0,1,652.8770141601562,408.62799072265625)"><path fill="rgb(242,162,155)" fill-opacity="1" d=" M78.7509994506836,87.66200256347656 C48.74300003051758,102.29299926757812 -14.895999908447266,105.74800109863281 -56.31800079345703,49.35599899291992 C-87.88400268554688,6.375999927520752 -91.03399658203125,-59.73699951171875 -33.694000244140625,-86.62899780273438 C21.98699951171875,-112.70800018310547 64.29000091552734,-83.2760009765625 72.75700378417969,-60.75299835205078 C72.75700378417969,-60.75299835205078 73.97599792480469,-56.553001403808594 75.83899688720703,-50.21900177001953 C60.834999084472656,-33.99599838256836 46.54199981689453,-23.124000549316406 19.513999938964844,-9.880999565124512 C7.422999858856201,-3.98799991607666 -13.845999717712402,3.8010001182556152 -19.367000579833984,16.062000274658203 C-22.618000030517578,23.275999069213867 -18.351999282836914,27.340999603271484 -14.354999542236328,34.82600021362305 C1.8339999914169312,65.03700256347656 -5.413000106811523,74.52100372314453 -1.0440000295639038,80.61699676513672 C6.068999767303467,90.54100036621094 19.31100082397461,93.55500030517578 31.469999313354492,94.53700256347656 C57.448001861572266,96.60299682617188 78.7509994506836,87.69599914550781 78.7509994506836,87.69599914550781 C78.7509994506836,87.69599914550781 78.7509994506836,87.66200256347656 78.7509994506836,87.66200256347656z"></path></g></g><g opacity="1" transform="matrix(1,0,0,1,0,0)"><g opacity="1" transform="matrix(1,0,0,1,649.7239990234375,396.6629943847656)"><path fill="rgb(17,64,119)" fill-opacity="1" d=" M-78.56700134277344,-25.621000289916992 C-78.56700134277344,-25.621000289916992 -77.38200378417969,-69.177001953125 -32.301998138427734,-88.24500274658203 C13.72599983215332,-107.72000122070312 52.23500061035156,-81.97899627685547 52.23500061035156,-81.97899627685547 C52.23500061035156,-81.97899627685547 59.55099868774414,-98.33799743652344 68.93299865722656,-92.0719985961914 C78.31500244140625,-85.80599975585938 73.0989990234375,-74.32499694824219 73.0989990234375,-74.32499694824219 C73.0989990234375,-74.32499694824219 75.6719970703125,-74.7979965209961 78.61900329589844,-75.6449966430664 C83.3949966430664,-77.03399658203125 88.23799896240234,-73.81700134277344 88.74600219726562,-68.87200164794922 C89.69400024414062,-59.4900016784668 89.69499969482422,-46.78900146484375 79.53399658203125,-37.61000061035156 C66.25700378417969,-25.65399932861328 15.14900016784668,3.5409998893737793 -14.282999992370605,13.329000473022461 C-22.683000564575195,16.106000900268555 -27.424999237060547,25.08099937438965 -24.885000228881836,33.54800033569336 C-21.972000122070312,43.268001556396484 -18.483999252319336,47.5359992980957 -10.388999938964844,62.404998779296875 C-9.170000076293945,64.67400360107422 -9.949000358581543,67.51899719238281 -12.149999618530273,68.83999633789062 C-12.149999618530273,68.83999633789062 -15.4350004196167,70.83799743652344 -15.4350004196167,70.83799743652344 C-15.4350004196167,70.83799743652344 -17.027000427246094,88.21299743652344 -14.656000137329102,95.52899932861328 C-14.656000137329102,95.52899932861328 -60.34600067138672,92.34500122070312 -85.375,24.572999954223633 C-96.78900146484375,-6.315999984741211 -78.60099792480469,-25.621000289916992 -78.60099792480469,-25.621000289916992 C-78.60099792480469,-25.621000289916992 -78.56700134277344,-25.621000289916992 -78.56700134277344,-25.621000289916992z"></path></g><g opacity="1" transform="matrix(1,0,0,1,651.9099731445312,408.4330139160156)"><path fill="rgb(12,52,97)" fill-opacity="1" d=" M77.38099670410156,-49.38100051879883 C64.10399627685547,-37.42499923706055 12.961999893188477,-8.229999542236328 -16.43600082397461,1.5579999685287476 C-24.868999481201172,4.335000038146973 -29.542999267578125,13.310999870300293 -27.003000259399414,21.812000274658203 C-24.09000015258789,31.499000549316406 -20.601999282836914,35.76499938964844 -12.541000366210938,50.599998474121094 C-11.288000106811523,52.86899948120117 -12.067999839782715,55.74800109863281 -14.269000053405762,57.069000244140625 C-14.269000053405762,57.069000244140625 -17.554000854492188,59.06800079345703 -17.554000854492188,59.06800079345703 C-17.554000854492188,59.06800079345703 -19.145999908447266,76.44200134277344 -16.774999618530273,83.75800323486328 C-16.774999618530273,83.75800323486328 -61.922000885009766,80.60800170898438 -87.0530014038086,13.954000473022461 C-83.97100067138672,14.258999824523926 -80.88899993896484,14.631999969482422 -77.80699920654297,14.835000038146973 C-70.86399841308594,15.274999618530273 -63.24300003051758,14.496000289916992 -58.095001220703125,9.821999549865723 C-49.797000885009766,2.2690000534057617 -51.42300033569336,-11.6850004196167 -44.6150016784668,-20.625999450683594 C-40.516998291015625,-25.976999282836914 -33.845001220703125,-28.82200050354004 -27.207000732421875,-29.940000534057617 C-20.569000244140625,-31.058000564575195 -13.76099967956543,-30.7189998626709 -7.020999908447266,-30.95599937438965 C29.93000030517578,-32.277000427246094 65.56099700927734,-52.801998138427734 85.67900085449219,-83.75800323486328 C86.18699645996094,-82.84400177001953 86.5260009765625,-81.79399871826172 86.66100311279297,-80.6760025024414 C87.60900115966797,-71.29399871826172 87.61000061035156,-58.59400177001953 77.4489974975586,-49.415000915527344 C77.4489974975586,-49.415000915527344 77.38099670410156,-49.38100051879883 77.38099670410156,-49.38100051879883z"></path></g></g><g opacity="1" transform="matrix(1,0,0,1,623.1010131835938,466.97198486328125)"><path fill="rgb(242,162,155)" fill-opacity="1" d=" M0.4169999957084656,-17.658000946044922 C-2.496000051498413,-22.77199935913086 -9.439000129699707,-23.923999786376953 -13.77400016784668,-19.927000045776367 C-19.464000701904297,-14.677000045776367 -24.577999114990234,-6.142000198364258 -18.7189998626709,5.677999973297119 C-5.544000148773193,32.196998596191406 21.31399917602539,19.09000015258789 21.31399917602539,19.09000015258789 C21.31399917602539,19.09000015258789 0.4169999957084656,-17.658000946044922 0.4169999957084656,-17.658000946044922z"></path></g><g opacity="1" transform="matrix(1,0,0,1,722.7570190429688,461.7650146484375)"><path fill="rgb(106,0,0)" fill-opacity="1" d=" M11.784000396728516,-17.701000213623047 C12.868000030517578,-18.31100082397461 14.154999732971191,-17.701000213623047 14.663000106811523,-16.312000274658203 C14.663000106811523,-16.312000274658203 15.645000457763672,-13.670999526977539 15.645000457763672,-13.670999526977539 C19.81100082397461,-2.3589999675750732 16.052000045776367,10.885000228881836 7.28000020980835,15.96500015258789 C-1.4919999837875366,21.045000076293945 -11.991999626159668,15.96399974822998 -16.158000946044922,4.685999870300293 C-16.158000946044922,4.685999870300293 -17.139999389648438,2.0450000762939453 -17.139999389648438,2.0450000762939453 C-17.648000717163086,0.656000018119812 -17.173999786376953,-0.968999981880188 -16.124000549316406,-1.5789999961853027 C-16.124000549316406,-1.5789999961853027 11.817999839782715,-17.701000213623047 11.817999839782715,-17.701000213623047 C11.817999839782715,-17.701000213623047 11.784000396728516,-17.701000213623047 11.784000396728516,-17.701000213623047z"></path></g></g><g opacity="1" transform="matrix(1,0,0,1,0,0)"><g opacity="1" transform="matrix(1,0,0,1,684.1179809570312,426.3590087890625)"><path fill="rgb(12,52,97)" fill-opacity="1" d=" M-2.1080000400543213,-5.090000152587891 C-0.8550000190734863,-5.801000118255615 0.6359999775886536,-6.241000175476074 2.3289999961853027,-6.275000095367432 C4.021999835968018,-6.275000095367432 5.885000228881836,-5.9019999504089355 7.985000133514404,-4.953999996185303 C8.595000267028809,-4.683000087738037 8.932999610900879,-3.869999885559082 8.729999542236328,-3.125 C8.628000259399414,-2.752000093460083 8.425999641418457,-2.4809999465942383 8.154999732971191,-2.312000036239624 C7.883999824523926,-2.177000045776367 7.578999996185303,-2.1429998874664307 7.308000087738037,-2.312000036239624 C5.445000171661377,-3.1589999198913574 3.8540000915527344,-3.4639999866485596 2.4649999141693115,-3.4639999866485596 C1.0759999752044678,-3.4639999866485596 -0.07599999755620956,-3.0920000076293945 -1.0579999685287476,-2.5160000324249268 C-2.0399999618530273,-1.9739999771118164 -2.88700008392334,-1.2289999723434448 -3.563999891281128,-0.41600000858306885 C-4.275000095367432,0.3970000147819519 -4.817999839782715,1.3109999895095825 -5.257999897003174,2.1579999923706055 C-6.138999938964844,3.8510000705718994 -6.511000156402588,5.27400016784668 -6.511000156402588,5.308000087738037 C-6.511000156402588,5.308000087738037 -6.951000213623047,5.105000019073486 -6.951000213623047,5.105000019073486 C-6.951000213623047,5.105000019073486 -6.511000156402588,5.308000087738037 -6.511000156402588,5.308000087738037 C-6.511000156402588,5.308000087738037 -6.951000213623047,5.105000019073486 -6.951000213623047,5.105000019073486 C-6.951000213623047,5.105000019073486 -6.511000156402588,5.308000087738037 -6.511000156402588,5.308000087738037 C-6.61299991607666,5.681000232696533 -6.815000057220459,5.986000061035156 -7.119999885559082,6.15500020980835 C-7.35699987411499,6.289999961853027 -7.6620001792907715,6.323999881744385 -7.9670000076293945,6.189000129699707 C-8.57699966430664,5.918000221252441 -8.914999961853027,5.105000019073486 -8.746000289916992,4.360000133514404 C-8.746000289916992,4.291999816894531 -8.508999824523926,3.378000020980835 -7.9670000076293945,2.056999921798706 C-7.425000190734863,0.7360000014305115 -6.578000068664551,-0.9240000247955322 -5.290999889373779,-2.447999954223633 C-4.443999767303467,-3.4639999866485596 -3.3949999809265137,-4.4120001792907715 -2.1419999599456787,-5.123000144958496 C-2.1419999599456787,-5.123000144958496 -2.1080000400543213,-5.090000152587891 -2.1080000400543213,-5.090000152587891z"></path></g><g opacity="1" transform="matrix(1,0,0,1,690.2739868164062,442.8269958496094)"><path fill="rgb(12,52,97)" fill-opacity="1" d=" M-4.36899995803833,-11.227999687194824 C-1.8289999961853027,-12.651000022888184 2.2009999752044678,-8.755000114440918 4.605999946594238,-2.556999921798706 C7.011000156402588,3.6410000324249268 6.908999919891357,9.83899974822998 4.36899995803833,11.227999687194824 C1.8289999961853027,12.651000022888184 -2.2009999752044678,8.755000114440918 -4.605999946594238,2.5230000019073486 C-7.011000156402588,-3.674999952316284 -6.908999919891357,-9.871999740600586 -4.36899995803833,-11.26099967956543 C-4.36899995803833,-11.26099967956543 -4.36899995803833,-11.227999687194824 -4.36899995803833,-11.227999687194824z"></path></g><g opacity="1" transform="matrix(1,0,0,1,733.051025390625,419.1189880371094)"><path fill="rgb(12,52,97)" fill-opacity="1" d=" M-4.36899995803833,-11.227999687194824 C-1.8289999961853027,-12.651000022888184 2.2009999752044678,-8.755000114440918 4.605999946594238,-2.556999921798706 C7.011000156402588,3.6410000324249268 6.908999919891357,9.83899974822998 4.36899995803833,11.227999687194824 C1.8289999961853027,12.651000022888184 -2.2009999752044678,8.755000114440918 -4.605999946594238,2.5230000019073486 C-7.011000156402588,-3.674999952316284 -6.908999919891357,-9.871999740600586 -4.36899995803833,-11.26099967956543 C-4.36899995803833,-11.26099967956543 -4.36899995803833,-11.227999687194824 -4.36899995803833,-11.227999687194824z"></path></g><g opacity="1" transform="matrix(1,0,0,1,726.9310302734375,402.7049865722656)"><path fill="rgb(12,52,97)" fill-opacity="1" d=" M-2.312999963760376,-5.041999816894531 C-1.059999942779541,-5.752999782562256 0.22699999809265137,-6.091000080108643 1.4459999799728394,-6.192999839782715 C2.63100004196167,-6.328000068664551 3.7839999198913574,-6.192999839782715 4.73199987411499,-6.058000087738037 C6.663000106811523,-5.718999862670898 7.982999801635742,-5.007999897003174 8.050999641418457,-4.973999977111816 C8.66100025177002,-4.669000148773193 8.930999755859375,-3.822000026702881 8.727999687194824,-3.1110000610351562 C8.62600040435791,-2.7720000743865967 8.42300033569336,-2.500999927520752 8.152000427246094,-2.365999937057495 C7.88100004196167,-2.197000026702881 7.543000221252441,-2.197000026702881 7.23799991607666,-2.365999937057495 C7.23799991607666,-2.365999937057495 7.136000156402588,-2.365999937057495 7.136000156402588,-2.365999937057495 C7.067999839782715,-2.434000015258789 6.966000080108643,-2.502000093460083 6.830999851226807,-2.5360000133514404 C6.559999942779541,-2.638000011444092 6.1539998054504395,-2.806999921798706 5.645999908447266,-2.941999912261963 C4.630000114440918,-3.246999979019165 3.240999937057495,-3.4830000400543213 1.7510000467300415,-3.3480000495910645 C0.7689999938011169,-3.246000051498413 -0.2809999883174896,-2.9760000705718994 -1.2630000114440918,-2.4000000953674316 C-2.2790000438690186,-1.8580000400543213 -3.2279999256134033,-1.0110000371932983 -4.142000198364258,0.20800000429153442 C-5.056000232696533,1.4609999656677246 -5.869999885559082,3.121000051498413 -6.546999931335449,5.355999946594238 C-6.64900016784668,5.695000171661377 -6.8520002365112305,5.966000080108643 -7.123000144958496,6.135000228881836 C-7.394000053405762,6.269999980926514 -7.73199987411499,6.303999900817871 -8.036999702453613,6.135000228881836 C-8.647000312805176,5.829999923706055 -8.951000213623047,5.017000198364258 -8.71399974822998,4.271999835968018 C-7.968999862670898,1.7660000324249268 -6.986999988555908,-0.2329999953508377 -5.9029998779296875,-1.7569999694824219 C-4.784999847412109,-3.2809998989105225 -3.565999984741211,-4.330999851226807 -2.2790000438690186,-5.041999816894531 C-2.2790000438690186,-5.041999816894531 -2.312999963760376,-5.041999816894531 -2.312999963760376,-5.041999816894531z"></path></g></g></g><g style="display: block;" transform="matrix(1,0,0,1,0,-268)" opacity="1"><g opacity="1" transform="matrix(1,0,0,1,527.93701171875,661.4210205078125)"><path fill="rgb(233,240,247)" fill-opacity="1" d=" M49.891998291015625,117.43800354003906 C28.554000854492188,117.43800354003906 -11.885000228881836,111.23999786376953 -32.95199966430664,93.49299621582031 C-52.46099853515625,77.06700134277344 -64.17900085449219,53.96799850463867 -66.82099914550781,26.73699951171875 C-69.49700164794922,-0.5609999895095825 -62.62099838256836,-31.450000762939453 -47.9900016784668,-57.96900177001953 C-40.84400177001953,-70.90699768066406 -15.982999801635742,-108.4000015258789 17.547000885009766,-116.25800323486328 C64.18499755859375,-127.16400146484375 87.41899871826172,-59.25699996948242 45.48899841308594,-45.540000915527344 C3.5929999351501465,-31.822999954223633 -0.5730000138282776,10.005999565124512 1.5269999504089355,22.944000244140625 C2.813999891281128,30.868999481201172 14.939000129699707,55.5260009765625 50.06100082397461,53.696998596191406 C71.56800079345703,52.57899856567383 73.5999984741211,117.37100219726562 49.92599868774414,117.37100219726562 C49.92599868774414,117.37100219726562 49.891998291015625,117.43800354003906 49.891998291015625,117.43800354003906z"></path></g><g opacity="1" transform="matrix(1,0,0,1,0,0)"><g opacity="1" transform="matrix(1,0,0,1,607.2760009765625,743.43798828125)"><path fill="rgb(255,197,179)" fill-opacity="1" d=" M17.73200035095215,31.933000564575195 C10.07800006866455,35.117000579833984 -7.263999938964844,33.65999984741211 -16.47599983215332,32.57600021362305 C-28.12700080871582,31.22100067138672 -40.387001037597656,25.090999603271484 -41.53900146484375,5.785999774932861 C-42.691001892089844,-13.553000450134277 -27.31399917602539,-19.92099952697754 -27.31399917602539,-19.92099952697754 C-27.31399917602539,-19.92099952697754 3.2699999809265137,-29.91200065612793 13.633999824523926,-33.46799850463867 C23.99799919128418,-37.02399826049805 45.979000091552734,-16.0939998626709 40.83100128173828,-2.5460000038146973 C35.68299865722656,10.968000411987305 28.4689998626709,27.530000686645508 17.766000747680664,31.966999053955078 C17.766000747680664,31.966999053955078 17.73200035095215,31.933000564575195 17.73200035095215,31.933000564575195z"></path></g><g opacity="1" transform="matrix(1,0,0,1,618.1190185546875,732.927978515625)"><path fill="rgb(242,162,155)" fill-opacity="1" d=" M2.756999969482422,-22.992000579833984 C-2.8310000896453857,-21.06100082397461 -24.440000534057617,-8.123000144958496 -25.99799919128418,-5.14300012588501 C-29.148000717163086,5.932000160217285 -19.59600067138672,11.01200008392334 -19.59600067138672,11.01200008392334 C-21.729999542236328,16.499000549316406 -15.904000282287598,27.20199966430664 -4.050000190734863,21.95199966430664 C8.753000259399414,16.261999130249023 9.836000442504883,20.767000198364258 9.836000442504883,20.767000198364258 C9.836000442504883,20.767000198364258 20.368999481201172,3.628999948501587 26.635000228881836,-8.258999824523926 C20.606000900268555,-17.60700035095215 9.32800006866455,-25.226999282836914 2.756999969482422,-22.95800018310547 C2.756999969482422,-22.95800018310547 2.756999969482422,-22.992000579833984 2.756999969482422,-22.992000579833984z"></path></g><g opacity="1" transform="matrix(1,0,0,1,637.7559814453125,727.0980224609375)"><path fill="rgb(232,130,130)" fill-opacity="1" d=" M-16.33799934387207,-22.040000915527344 C-16.33799934387207,-22.040000915527344 -16.270000457763672,-22.040000915527344 -16.270000457763672,-22.040000915527344 C-7.599999904632568,-26.375 0.9700000286102295,-27.256000518798828 7.84499979019165,-24.579999923706055 C11.942999839782715,-22.95400047302246 17.5310001373291,-19.297000885009766 20.680999755859375,-10.96500015258789 C24.270999908447266,-1.4479999542236328 22.577999114990234,8.23900032043457 15.838000297546387,16.299999237060547 C11.503000259399414,21.48200035095215 6.5229997634887695,24.292999267578125 5.574999809265137,24.801000595092773 C0.257999986410141,27.645999908447266 -6.380000114440918,25.648000717163086 -9.190999984741211,20.297000885009766 C-12.03600025177002,14.979999542236328 -10.038000106811523,8.340999603271484 -4.686999797821045,5.53000020980835 C-4.686999797821045,5.53000020980835 -2.552999973297119,4.243000030517578 -0.9269999861717224,2.312000036239624 C1.1729999780654907,-0.1940000057220459 0.8339999914169312,-1.718999981880188 0.257999986410141,-3.2090001106262207 C0.054999999701976776,-3.7850000858306885 -0.14800000190734863,-4.090000152587891 -0.25,-4.224999904632568 C-0.8939999938011169,-4.327000141143799 -3.062000036239624,-4.223999977111816 -6.550000190734863,-2.496999979019165 C-6.684999942779541,-2.428999900817871 -6.820000171661377,-2.361999988555908 -6.888000011444092,-2.328000068664551 C-12.340999603271484,0.2800000011920929 -18.8439998626709,-2.0230000019073486 -21.45199966430664,-7.47599983215332 C-23.382999420166016,-11.505999565124512 -22.60300064086914,-16.145999908447266 -19.860000610351562,-19.329999923706055 C-18.91200065612793,-20.413999557495117 -17.726999282836914,-21.32900047302246 -16.371999740600586,-22.006000518798828 C-16.371999740600586,-22.006000518798828 -16.33799934387207,-22.040000915527344 -16.33799934387207,-22.040000915527344z M-0.3179999887943268,-4.360000133514404 C-0.3179999887943268,-4.360000133514404 -0.3179999887943268,-4.360000133514404 -0.3179999887943268,-4.360000133514404z"></path></g><g opacity="1" transform="matrix(1,0,0,1,599.5089721679688,714.8189697265625)"><path fill="rgb(255,197,179)" fill-opacity="1" d=" M-27.674999237060547,15.843999862670898 C-27.674999237060547,15.843999862670898 -21.239999771118164,-5.629000186920166 -8.911999702453613,-11.793000221252441 C1.0789999961853027,-16.77199935913086 15.982000350952148,-19.7189998626709 21.33300018310547,-20.632999420166016 C22.6200008392334,-20.8700008392334 23.94099998474121,-20.327999114990234 24.68600082397461,-19.243999481201172 C27.023000717163086,-15.925000190734863 30.783000946044922,-8.371999740600586 22.993000030517578,-2.309000015258789 C12.663000106811523,5.7179999351501465 -26.38800048828125,20.687999725341797 -26.38800048828125,20.687999725341797 C-26.38800048828125,20.687999725341797 -27.674999237060547,15.878000259399414 -27.674999237060547,15.878000259399414 C-27.674999237060547,15.878000259399414 -27.674999237060547,15.843999862670898 -27.674999237060547,15.843999862670898z"></path></g><g opacity="1" transform="matrix(1,0,0,1,609.6719970703125,713.27197265625)"><path fill="rgb(242,162,155)" fill-opacity="1" d=" M16.351999282836914,-14.512999534606934 C21.160999298095703,-2.252000093460083 -2.4110000133514404,3.572999954223633 -7.932000160217285,5.605000019073486 C-14.4350004196167,7.97599983215332 -17.448999404907227,14.3100004196167 -17.551000595092773,14.512999534606934 C-6.068999767303467,9.63599967956543 7.410999774932861,3.4719998836517334 12.86400032043457,-0.7620000243186951 C18.722999572753906,-5.300000190734863 18.04599952697754,-10.685999870300293 16.38599967956543,-14.479000091552734 C16.38599967956543,-14.479000091552734 16.351999282836914,-14.512999534606934 16.351999282836914,-14.512999534606934z"></path></g><g opacity="1" transform="matrix(1,0,0,1,637.9869995117188,731.3670043945312)"><path fill="rgb(232,148,144)" fill-opacity="1" d=" M-15.993000030517578,-21.531999588012695 C-15.993000030517578,-21.531999588012695 -15.824000358581543,-21.600000381469727 -15.824000358581543,-21.600000381469727 C-6.848999977111816,-25.868000030517578 1.2130000591278076,-26.613000869750977 8.088000297546387,-23.836000442504883 C12.118000030517578,-22.209999084472656 17.604999542236328,-18.552000045776367 20.72100067138672,-10.288000106811523 C24.31100082397461,-0.7710000276565552 22.618000030517578,8.916000366210938 15.878000259399414,16.976999282836914 C11.57699966430664,22.159000396728516 6.563000202178955,24.969999313354492 5.614999771118164,25.47800064086914 C5.614999771118164,25.47800064086914 -4.681000232696533,6.205999851226807 -4.681000232696533,6.205999851226807 C-4.681000232696533,6.205999851226807 -4.7829999923706055,6.27400016784668 -4.7829999923706055,6.27400016784668 C-3.63100004196167,5.630000114440918 2.0250000953674316,2.1419999599456787 0.2639999985694885,-2.5320000648498535 C0.061000000685453415,-3.1080000400543213 -0.1420000046491623,-3.4130001068115234 -0.24400000274181366,-3.5820000171661377 C-0.7519999742507935,-3.6500000953674316 -2.615000009536743,-3.684000015258789 -6.510000228881836,-1.8550000190734863 C-6.882999897003174,-1.6859999895095825 -7.1539998054504395,-1.5499999523162842 -7.35699987411499,-1.4819999933242798 C-12.911999702453613,0.8550000190734863 -19.312000274658203,-1.718999981880188 -21.683000564575195,-7.27400016784668 C-23.375999450683594,-11.237000465393066 -22.530000686645508,-15.638999938964844 -19.88800048828125,-18.687000274658203 C-18.871999740600586,-19.871999740600586 -17.584999084472656,-20.854999542236328 -16.06100082397461,-21.531999588012695 C-16.06100082397461,-21.531999588012695 -15.993000030517578,-21.531999588012695 -15.993000030517578,-21.531999588012695z M-15.925000190734863,-21.531999588012695 C-15.925000190734863,-21.531999588012695 -15.857999801635742,-21.531999588012695 -15.824000358581543,-21.56599998474121 C-15.824000358581543,-21.56599998474121 -15.890999794006348,-21.56599998474121 -15.925000190734863,-21.531999588012695z"></path></g><g opacity="1" transform="matrix(1,0,0,1,631.625,738.7059936523438)"><path fill="rgb(242,162,155)" fill-opacity="1" d=" M-17.216999053955078,-23.520000457763672 C-17.216999053955078,-23.520000457763672 -17.115999221801758,-23.520000457763672 -17.115999221801758,-23.520000457763672 C-5.059000015258789,-29.277999877929688 3.61299991607666,-27.990999221801758 8.72700023651123,-25.924999237060547 C13.062000274658203,-24.163999557495117 19.05699920654297,-20.268999099731445 22.308000564575195,-11.395000457763672 C31.316999435424805,13.329000473022461 5.745999813079834,26.166000366210938 0.7670000195503235,27.41900062561035 C-10.850000381469727,30.332000732421875 -13.119000434875488,7.164999961853027 -5.668000221252441,4.794000148773193 C-4.38100004196167,4.388000011444092 -3.365000009536743,3.74399995803833 -2.5179998874664307,3.0329999923706055 C0.0560000017285347,0.8650000095367432 -1.7730000019073486,-3.368000030517578 -5.0920000076293945,-2.8940000534057617 C-5.702000141143799,-2.7920000553131104 -6.3460001945495605,-2.622999906539917 -7.0229997634887695,-2.2839999198913574 C-7.328000068664551,-2.1489999294281006 -7.631999969482422,-1.9789999723434448 -8.005000114440918,-1.843999981880188 C-14.034000396728516,0.5950000286102295 -20.875,-2.2839999198913574 -23.347000122070312,-8.312999725341797 C-25.073999404907227,-12.54699993133545 -24.125999450683594,-17.22100067138672 -21.349000930786133,-20.472000122070312 C-20.231000900268555,-21.759000778198242 -18.843000411987305,-22.80900001525879 -17.216999053955078,-23.520000457763672 C-17.216999053955078,-23.520000457763672 -17.216999053955078,-23.520000457763672 -17.216999053955078,-23.520000457763672z M-17.14900016784668,-23.554000854492188 C-17.08099937438965,-23.554000854492188 -16.979999542236328,-23.621999740600586 -16.91200065612793,-23.6560001373291 C-16.979999542236328,-23.6560001373291 -17.047000885009766,-23.58799934387207 -17.14900016784668,-23.554000854492188z"></path></g><g opacity="1" transform="matrix(1,0,0,1,618.8510131835938,747.302978515625)"><path fill="rgb(255,197,179)" fill-opacity="1" d=" M-21.78499984741211,-22.667999267578125 C-24.427000045776367,-19.6200008392334 -25.44300079345703,-15.28499984741211 -24.054000854492188,-11.187000274658203 C-21.95400047302246,-5.0229997634887695 -15.281000137329102,-1.7369999885559082 -9.151000022888184,-3.802999973297119 C-9.151000022888184,-3.802999973297119 -8.744999885559082,-3.938999891281128 -8.744999885559082,-3.938999891281128 C-8.744999885559082,-3.938999891281128 -8.744999885559082,-3.938999891281128 -8.744999885559082,-3.938999891281128 C-6.068999767303467,-4.88700008392334 -3.427000045776367,-2.4149999618530273 -4.27400016784668,0.26100000739097595 C-5.797999858856201,5.171999931335449 -11.48799991607666,8.559000015258789 -11.555999755859375,8.593000411987305 C-16.77199935913086,12.48799991607666 -11.116000175476074,18.78700065612793 -7.255000114440918,24.003000259399414 C-3.359999895095825,29.2189998626709 3.990000009536743,30.30299949645996 9.206000328063965,26.408000946044922 C17.707000732421875,20.075000762939453 31.118000030517578,3.2760000228881836 21.12700080871582,-15.081000328063965 C14.184000015258789,-27.850000381469727 0.0949999988079071,-31.982999801635742 -16.569000244140625,-26.156999588012695 C-16.569000244140625,-26.156999588012695 -16.77199935913086,-26.089000701904297 -16.77199935913086,-26.089000701904297 C-18.804000854492188,-25.378000259399414 -20.565000534057617,-24.191999435424805 -21.88599967956543,-22.667999267578125 C-21.88599967956543,-22.667999267578125 -21.78499984741211,-22.667999267578125 -21.78499984741211,-22.667999267578125z"></path></g></g></g></g></svg>