<svg xmlns="http://www.w3.org/2000/svg" xmlns:xlink="http://www.w3.org/1999/xlink" viewBox="0 0 1920 1080" width="1920" height="1080" style="width: 100%; height: 100%; transform: translate3d(0,0,0); content-visibility: visible;" preserveAspectRatio="xMidYMid meet"><defs><clipPath id="lottie-id"><rect width="1920" height="1080" x="0" y="0"></rect></clipPath><clipPath id="lottie-id"><path d="M0,0 L1920,0 L1920,1080 L0,1080z"></path></clipPath><clipPath id="lottie-id"><path d="M0,0 L1920,0 L1920,1080 L0,1080z"></path></clipPath><clipPath id="lottie-id"><path d="M0,0 L1920,0 L1920,1080 L0,1080z"></path></clipPath><clipPath id="lottie-id"><path d="M0,0 L1920,0 L1920,1080 L0,1080z"></path></clipPath><clipPath id="lottie-id"><path d="M0,0 L1920,0 L1920,1080 L0,1080z"></path></clipPath><clipPath id="lottie-id"><path d="M0,0 L1920,0 L1920,1080 L0,1080z"></path></clipPath></defs><g clip-path="url(#lottie-id)"><g style="display: block;" transform="matrix(3.888000011444092,0,0,1.4693299531936646,-12,-10.99871826171875)" opacity="1"><rect width="500" height="750" fill="#233254"></rect></g><g clip-path="url(#lottie-id)" style="display: none;" transform="matrix(1.5,0,0,1.5,-480,-390)" opacity="1"><g style="display: block;" transform="matrix(1,0,0,1,865,538.5)" opacity="1"><g opacity="1" transform="matrix(1,0,0,1,0,0)"><path stroke-linecap="round" stroke-linejoin="miter" fill-opacity="0" stroke-miterlimit="4" stroke="rgb(251,176,58)" stroke-opacity="1" stroke-width="7" d=" M107.23500061035156,210.4029998779297 C107.23500061035156,210.4029998779297 104.75,227.25 111.25,238.5 C117.62699890136719,249.53799438476562 108.625,261.375 87.125,264.375"></path></g></g><g style="display: block;" transform="matrix(1,0,0,1,984.4996948242188,536.4999389648438)" opacity="1"><g opacity="1" transform="matrix(1,0,0,1,0,0)"><path fill="rgb(40,170,226)" fill-opacity="1" d=" M10.5,247.5 C8,243.75 2.25,248.25 -6.5,253.25 C-15.25,258.25 -30,266.25 -30,266.25 C-30,266.25 -36.25,269.5 -33.5,272.5 C-30.75,275.5 -22.25,268 -22.25,268 C-22.25,268 -12.5,262 -4,258 C4.234000205993652,254.125 13,251.25 10.5,247.5z"></path></g></g><g style="display: block;" transform="matrix(0.838670551776886,0.5446390509605408,-0.5446390509605408,0.838670551776886,1123.743896484375,600.424072265625)" opacity="1"><g opacity="1" transform="matrix(1,0,0,1,23,-15.5)"><path fill="rgb(251,176,58)" fill-opacity="1" d=" M-36.75,257.75 C-38.266998291015625,259.8739929199219 -41.59400177001953,258.80499267578125 -43.75,261.25 C-46.334999084472656,264.1820068359375 -43.987998962402344,265.0429992675781 -43.68899917602539,266.5190124511719 C-43.189998626708984,268.9809875488281 -45.25,271 -45.25,271 C-45.25,271 -43.018001556396484,274.55499267578125 -38.75,274.25 C-35.25,274 -35.75,269.75 -35.75,269.75 C-35.75,269.75 -33.5,268.5 -32.5,266.5 C-31.349000930786133,264.197998046875 -32.5,262.75 -32.5,262.75 C-32.5,262.75 -29,263.75 -30,259 C-31,254.25 -35.5,256 -36.75,257.75z"></path></g><g opacity="1" transform="matrix(1,0,0,1,23,-15.5)"><path fill="rgb(251,195,58)" fill-opacity="1" d=" M-42,257.75 C-40.75,254.75 -46,253.25 -50.75,259.5 C-55.5,265.75 -49.75,269.75 -47.75,266 C-46.08599853515625,262.8800048828125 -43.25,260.75 -42,257.75z"></path></g></g><g style="display: block;" transform="matrix(1,0,0,1,1011.9996948242188,534.9999389648438)" opacity="1"><g opacity="1" transform="matrix(1,0,0,1,0,0)"><path fill="rgb(31,135,180)" fill-opacity="1" d=" M-85.625,265 C-108,264.9100036621094 -121.625,266.625 -123.875,270.625 C-126.125,274.625 -108.75,286.5 -83.125,285.75 C-49.8849983215332,284.7770080566406 -46.75,278.125 -44.5,273.875 C-42.25,269.625 -54.625,265.125 -85.625,265z"></path></g></g><g style="display: block;" transform="matrix(1,0,0,1,1011.9996948242188,534.9999389648438)" opacity="1"><g opacity="1" transform="matrix(1,0,0,1,0,0)"><path fill="rgb(251,176,58)" fill-opacity="1" d=" M-118.5,273.5 C-118.5,273.5 -124.5,284.5 -82.5,284.5 C-40.999000549316406,284.5 -49.25,274.75 -49.25,274.75 C-49.25,274.75 -52.25,272 -78,274.75 C-103.75,277.5 -118.5,273.5 -118.5,273.5z"></path></g><g opacity="1" transform="matrix(1,0,0,1,0,0)"><path fill="rgb(251,195,58)" fill-opacity="1" d=" M-85.12999725341797,269.8039855957031 C-104.6709976196289,269.75 -116.56999969482422,270.77301025390625 -118.53500366210938,273.1600036621094 C-120.5,275.5469970703125 -105.32599639892578,282.6310119628906 -82.9469985961914,282.1839904785156 C-53.917999267578125,281.60400390625 -51.18000030517578,277.635009765625 -49.21500015258789,275.0989990234375 C-47.25,272.56298828125 -58.05699920654297,269.8789978027344 -85.12999725341797,269.8039855957031z"></path></g></g><g style="display: block;" transform="matrix(1,0,0,1,1001.4996948242188,1115.5)" opacity="1"><g opacity="1" transform="matrix(1,0,0,1,0,0)"><path fill="rgb(255,58,43)" fill-opacity="1" d=" M-90,-315.625 C-90.99600219726562,-316.3909912109375 -91.5,-313.875 -94.75,-314.375 C-98,-314.875 -98.375,-312.875 -98.875,-312.25 C-99.375,-311.625 -96.375,-307.375 -91.5,-303.25 C-87.625,-299.97100830078125 -86,-301.75 -80.875,-298.875 C-75.75,-296 -76.625,-299.25 -64.75,-296.75 C-52.875,-294.25 -49.125,-299.875 -45,-302.375 C-40.875,-304.875 -42.375,-307.5 -44.625,-308.125 C-46.875,-308.75 -47.125,-310.375 -49.5,-311.625 C-51.875,-312.875 -50.375,-306.875 -52.875,-304.875 C-55.375,-302.875 -58,-302 -62.375,-303.625 C-66.75,-305.25 -68.99600219726562,-304.8420104980469 -72.25,-304.5 C-77,-304 -79.375,-304.5 -81.5,-306.125 C-84.3239974975586,-308.2850036621094 -85.94499969482422,-308.114013671875 -87.25,-309.5 C-89.25,-311.625 -88.375,-314.375 -90,-315.625z"></path></g><g opacity="1" transform="matrix(1,0,0,1,0,-0.5)"><path stroke-linecap="butt" stroke-linejoin="miter" fill-opacity="0" stroke-miterlimit="4" stroke="rgb(253,253,243)" stroke-opacity="1" stroke-width="1" d=" M-91.25,-311.25 C-91.25,-311.25 -90.5,-308 -84.5,-304.75 C-78.5,-301.5 -76.5,-301.5 -69,-302 C-61.5,-302.5 -61.75,-299 -56,-301.5 C-50.25,-304 -49,-306.75 -49,-306.75"></path></g><g opacity="1" transform="matrix(1,0,0,1,-0.5,2.25)"><path stroke-linecap="butt" stroke-linejoin="miter" fill-opacity="0" stroke-miterlimit="4" stroke="rgb(253,253,243)" stroke-opacity="1" stroke-width="1" d=" M-91.25,-311.25 C-91.25,-311.25 -90.5,-308 -84.5,-304.75 C-78.5,-301.5 -76.5,-301.5 -69,-302 C-61.5,-302.5 -61.75,-299 -56,-301.5 C-50.25,-304 -49,-306.75 -49,-306.75"></path></g></g><g style="display: block;" transform="matrix(1,0,0,1,1011.9996948242188,534.9999389648438)" opacity="1"><g opacity="1" transform="matrix(1,0,0,1,0,0)"><path fill="rgb(40,170,226)" fill-opacity="1" d=" M-125.125,271.375 C-125.125,271.375 -122.625,293 -82.125,293.5 C-48.25199890136719,293.9179992675781 -43.5,273.75 -43.5,273.75 C-43.5,273.75 -55.25,280.5 -82.625,280.25 C-111.03199768066406,279.9909973144531 -125.125,271.375 -125.125,271.375z"></path></g></g><g style="display: block;" transform="matrix(-0.8402223587036133,-0.322531133890152,-0.322531133890152,0.8402223587036133,1056.5,590)" opacity="1"><g opacity="1" transform="matrix(1,0,0,1,0,0)"><path fill="rgb(251,176,58)" fill-opacity="1" d=" M61.79800033569336,149.5070037841797 C57.7400016784668,148.7790069580078 61.369998931884766,168.46600341796875 67.71499633789062,175.96600341796875 C80.75,191.375 98.5,189.125 95.78199768066406,175.093994140625 C94.60399627685547,169.01100158691406 81.54299926757812,173.34300231933594 75.27799987792969,165.97500610351562 C66.82099914550781,156.0290069580078 64.12899780273438,149.9250030517578 61.79800033569336,149.5070037841797z"></path></g></g><g style="display: block;" transform="matrix(1,0,0,1,960,542)" opacity="1"><g opacity="1" transform="matrix(1,0,0,1,0,0)"><path fill="rgb(251,194,58)" fill-opacity="1" d=" M26.5,141.5 C-19.5,141.5 -21,175 -19.5,202 C-18,229 -15.355999946594238,262.6600036621094 -4,276.5 C10.909000396728516,294.6709899902344 59,295 78.35199737548828,282.1719970703125 C78.25,281.75 85,279.75 90.75,275.5 C94.74099731445312,272.54998779296875 96.75,268.25 98.25299835205078,262.6969909667969 C88.25,271.25 83,267 83.03399658203125,266.6289978027344 C84.5,256 82,233 78,205 C72.43000030517578,166.00999450683594 72.5,141.5 26.5,141.5z"></path></g></g><g style="display: block;" transform="matrix(1,0,0,1,959.5,543)" opacity="1"><g opacity="1" transform="matrix(1,0,0,1,0,0)"><path fill="rgb(251,176,58)" fill-opacity="1" d=" M61.79800033569336,149.5070037841797 C57.7400016784668,148.7790069580078 61.369998931884766,168.46600341796875 67.71499633789062,175.96600341796875 C80.75,191.375 98.5,189.125 95.78199768066406,175.093994140625 C94.60399627685547,169.01100158691406 81.54299926757812,173.34300231933594 75.27799987792969,165.97500610351562 C66.82099914550781,156.0290069580078 64.12899780273438,149.9250030517578 61.79800033569336,149.5070037841797z"></path></g></g><g style="display: block;" transform="matrix(1,0,0,1,960,542)" opacity="1"><g opacity="1" transform="matrix(1,0,0,1,0,0)"><path fill="rgb(255,255,255)" fill-opacity="1" d=" M-5.938000202178955,159.5 C-18.437999725341797,160 -23.523000717163086,172.1719970703125 -18.5,181.5 C-13.25,191.25 1.25,190 6.5,181 C10.692999839782715,173.81199645996094 6.561999797821045,159 -5.938000202178955,159.5z"></path></g><g opacity="1" transform="matrix(1,0,0,1,0,0)"><path fill="rgb(0,0,0)" fill-opacity="1" d=" M-12.706000328063965,162 C-19.624000549316406,162.5189971923828 -25.25,172.63499450683594 -19.360000610351562,181.9759979248047 C-14.616000175476074,189.5 -4.3379998207092285,189.24099731445312 -4.3379998207092285,189.24099731445312 C2.25,187.6840057373047 1.1959999799728394,185.60899353027344 1.281999945640564,185.55499267578125 C-18.569000244140625,187.6840057373047 -18.027000427246094,167.02200317382812 -12.706000328063965,162z"></path></g></g><g style="display: block;" transform="matrix(1,0,0,1,1005.5,542)" opacity="1"><g opacity="1" transform="matrix(1,0,0,1,0,0)"><path fill="rgb(255,255,255)" fill-opacity="1" d=" M-6.081999778747559,158.40699768066406 C-19.297000885009766,158.93600463867188 -24.673999786376953,171.8040008544922 -19.36400032043457,181.66600036621094 C-13.814000129699707,191.9739990234375 1.5169999599456787,190.65199279785156 7.066999912261963,181.13699340820312 C11.5,173.53799438476562 7.132999897003174,157.8780059814453 -6.081999778747559,158.40699768066406z"></path></g><g opacity="1" transform="matrix(1,0,0,1,0,0)"><path fill="rgb(0,0,0)" fill-opacity="1" d=" M-13.23799991607666,161.0500030517578 C-20.552000045776367,161.5989990234375 -26.5,172.29400634765625 -20.273000717163086,182.1699981689453 C-15.258000373840332,190.12399291992188 -4.392000198364258,189.85000610351562 -4.392000198364258,189.85000610351562 C2.5739998817443848,188.20399475097656 1.4589999914169312,186.00999450683594 1.5499999523162842,185.9530029296875 C-19.437000274658203,188.20399475097656 -18.863000869750977,166.35899353027344 -13.23799991607666,161.0500030517578z"></path></g></g><g style="display: block;" transform="matrix(1,0,0,1,960,542)" opacity="1"><g opacity="1" transform="matrix(1,0,0,1,0,0)"><path fill="rgb(251,176,58)" fill-opacity="1" d=" M13.75,180 C0.25,179.5 -6.25,187.5 -6.5,196.25 C-6.78000020980835,206.0500030517578 -4.25,208 -0.5,208 C3.25,208 7.75,207.5 6.5,199.25 C5.25,191 5.25,188 11.25,188.25 C17.25,188.5 20.25,188.75 18.25,199.5 C16.25,210.25 24.25,210.5 27.75,209 C31.25,207.5 33.25,201 32.75,194.25 C32.25,187.5 27.25,180.5 13.75,180z"></path></g></g><g style="display: block;" transform="matrix(1,0,0,1,960,542)" opacity="1"><g opacity="1" transform="matrix(1,0,0,1,0,0)"><path fill="rgb(0,0,0)" fill-opacity="1" d=" M12.625,186.75 C7.619999885559082,186.86500549316406 5.063000202178955,188.75 4.875,190.81300354003906 C4.64900016784668,193.30299377441406 8.312999725341797,195.25 11.687999725341797,195.31300354003906 C14.937000274658203,195.3730010986328 19.20199966430664,194.61199951171875 19.5,191.43800354003906 C19.687999725341797,189.43800354003906 18.062999725341797,186.625 12.625,186.75z"></path></g></g><g style="display: block;" transform="matrix(0.8799999952316284,0,0,0.8799999952316284,914.4450073242188,557.6099853515625)" opacity="1"><g opacity="1" transform="matrix(1,0,0,1,0,0)"><path fill="rgb(251,176,58)" fill-opacity="1" d=" M53.75,245.5 C45.75,243.75 47.5,246.75 46.75,253.25 C46,259.75 43.5,266.5 45.75,269 C48,271.5 57,270.75 59,263.5 C60.99599838256836,256.2659912109375 61.75,247.25 53.75,245.5z"></path></g><g opacity="1" transform="matrix(1,0,0,1,0,0)"><path fill="rgb(246,163,33)" fill-opacity="1" d=" M53.25,245.75 C50.75,243.75 42.5,244.25 42.25,247.5 C41.957000732421875,251.31300354003906 44.25,253.25 44.25,253.25 C44.25,253.25 41.75,254 41.75,257.75 C41.75,261.5 44.25,262 44.25,262 C44.25,262 41.599998474121094,264.5050048828125 41.75,266.75 C42,270.5 45.98400115966797,269.75 48,269.75 C51.5,269.75 52.76300048828125,267.5669860839844 53.75,265 C55,261.75 51.5,260.75 51.5,260.75 C51.5,260.75 54.5,258 54.5,255 C54.5,252 51.75,251.75 51.75,251.75 C51.75,251.75 55.75,247.75 53.25,245.75z"></path></g></g><g style="display: block;" transform="matrix(1,0,0,1,964,542)" opacity="1"><g opacity="1" transform="matrix(1,0,0,1,0,0)"><path stroke-linecap="round" stroke-linejoin="miter" fill-opacity="0" stroke-miterlimit="4" stroke="rgb(251,176,58)" stroke-opacity="1" stroke-width="7" d=" M70,207 C70,207 57.00400161743164,220.07699584960938 44.75,227.25 C34.5,233.25 13,239.75 3.5,242.25"></path></g></g><g style="display: block;" transform="matrix(1,0,0,1,956,540)" opacity="1"><g opacity="1" transform="matrix(1,0,0,1,0,0)"><path stroke-linecap="round" stroke-linejoin="round" fill-opacity="0" stroke="rgb(251,195,58)" stroke-opacity="1" stroke-width="7" d=" M74,277 C74,277 53.01599884033203,299 52.75,307.5 C52.5,315.5 77.6969985961914,328.3949890136719 79.5,332 C79.5,332 70,334.5 70,334.5"></path></g></g><g style="display: block;" transform="matrix(1,0,0,1,890.5,537)" opacity="1"><g opacity="1" transform="matrix(1,0,0,1,0,0)"><path stroke-linecap="round" stroke-linejoin="round" fill-opacity="0" stroke="rgb(251,195,58)" stroke-opacity="1" stroke-width="7" d=" M74,277 C74,277 55.63199996948242,300.010009765625 56,307 C56.5,316.5 77.6969985961914,328.3949890136719 79.5,332 C79.5,332 70,334.5 70,334.5"></path></g></g><g style="display: none;"><g><path></path></g></g><g style="display: none;"><g><path></path></g><g><path></path></g></g><g style="display: none;"><g><path></path></g><g><path stroke-linecap="butt" stroke-linejoin="miter" fill-opacity="0" stroke-miterlimit="4"></path></g><g><path stroke-linecap="butt" stroke-linejoin="miter" fill-opacity="0" stroke-miterlimit="4"></path></g></g><g style="display: none;"><g><path stroke-linecap="round" stroke-linejoin="miter" fill-opacity="0" stroke-miterlimit="4"></path></g></g><g style="display: none;"><g><path></path></g></g><g style="display: none;"><g><path></path></g><g><path></path></g></g><g style="display: none;"><g><path></path></g></g><g style="display: none;"><g><path></path></g></g><g style="display: none;"><g><path></path></g></g><g style="display: none;"><g><path></path></g><g><path></path></g></g><g style="display: none;"><g><path></path></g><g><path></path></g></g><g style="display: none;"><g><path></path></g></g><g style="display: none;"><g><path></path></g></g><g style="display: none;"><g><path></path></g><g><path></path></g><g><path stroke-linecap="butt" stroke-linejoin="miter" fill-opacity="0" stroke-miterlimit="4"></path></g><g><path stroke-linecap="butt" stroke-linejoin="miter" fill-opacity="0" stroke-miterlimit="4"></path></g></g><g style="display: none;"><g><path stroke-linecap="round" stroke-linejoin="miter" fill-opacity="0" stroke-miterlimit="4"></path></g></g><g style="display: none;"><g><path stroke-linecap="round" stroke-linejoin="round" fill-opacity="0"></path></g></g><g style="display: none;"><g><path stroke-linecap="round" stroke-linejoin="round" fill-opacity="0"></path></g></g><g style="display: none;"><g><path></path></g></g><g style="display: none;"><g><path></path></g><g><path></path></g></g><g style="display: none;"><g><path></path></g><g><path stroke-linecap="butt" stroke-linejoin="miter" fill-opacity="0" stroke-miterlimit="4"></path></g><g><path stroke-linecap="butt" stroke-linejoin="miter" fill-opacity="0" stroke-miterlimit="4"></path></g></g><g style="display: none;"><g><path></path></g></g></g><g clip-path="url(#lottie-id)" style="display: none;" transform="matrix(1.5,0,0,1.5,-480,-390)" opacity="1"><g style="display: none;"><g><path stroke-linecap="round" stroke-linejoin="miter" fill-opacity="0" stroke-miterlimit="4"></path></g></g><g style="display: none;"><g><path></path></g></g><g style="display: none;"><g><path></path></g><g><path></path></g></g><g style="display: none;"><g><path></path></g></g><g style="display: none;"><g><path></path></g><g><path></path></g></g><g style="display: none;"><g><path></path></g><g><path stroke-linecap="butt" stroke-linejoin="miter" fill-opacity="0" stroke-miterlimit="4"></path></g><g><path stroke-linecap="butt" stroke-linejoin="miter" fill-opacity="0" stroke-miterlimit="4"></path></g></g><g style="display: none;"><g><path></path></g></g><g style="display: none;"><g><path></path></g></g><g style="display: none;"><g><path></path></g></g><g style="display: none;"><g><path></path></g></g><g style="display: none;"><g><path></path></g><g><path></path></g></g><g style="display: none;"><g><path></path></g><g><path></path></g></g><g style="display: none;"><g><path></path></g></g><g style="display: none;"><g><path></path></g></g><g style="display: none;"><g><path></path></g><g><path></path></g></g><g style="display: none;"><g><path stroke-linecap="round" stroke-linejoin="miter" fill-opacity="0" stroke-miterlimit="4"></path></g></g><g style="display: none;"><g><path stroke-linecap="round" stroke-linejoin="round" fill-opacity="0"></path></g></g><g style="display: none;"><g><path stroke-linecap="round" stroke-linejoin="round" fill-opacity="0"></path></g></g><g style="display: none;"><g><path></path></g></g><g style="display: none;"><g><path></path></g><g><path></path></g></g><g style="display: none;"><g><path></path></g><g><path stroke-linecap="butt" stroke-linejoin="miter" fill-opacity="0" stroke-miterlimit="4"></path></g><g><path stroke-linecap="butt" stroke-linejoin="miter" fill-opacity="0" stroke-miterlimit="4"></path></g></g><g style="display: block;" transform="matrix(0.9975640773773193,-0.06975647062063217,0.06975647062063217,0.9975640773773193,823.9732666015625,546.6824951171875)" opacity="1"><g opacity="1" transform="matrix(1,0,0,1,0,0)"><path stroke-linecap="round" stroke-linejoin="miter" fill-opacity="0" stroke-miterlimit="4" stroke="rgb(251,176,58)" stroke-opacity="1" stroke-width="7" d=" M116.24910736083984,189.08944702148438 C116.24910736083984,189.08944702148438 106.15455627441406,179.45944213867188 98.94499969482422,175.54388427734375 C93.73500061035156,165.28155517578125 90.59388732910156,156.03944396972656 87.7893295288086,152.92767333984375"></path></g></g><g style="display: block;" transform="matrix(0.9271838665008545,-0.3746066093444824,0.3746066093444824,0.9271838665008545,830.7163696289062,421.9205017089844)" opacity="1"><g opacity="1" transform="matrix(1,0,0,1,0,0)"><path fill="rgb(40,170,226)" fill-opacity="1" d=" M7.514888763427734,276.17266845703125 C7.4126667976379395,272.2143249511719 0.10322222113609314,272.4748840332031 -9.302332878112793,275.6510009765625 C-18.707889556884766,278.8271179199219 -31.178443908691406,283.0048828125 -31.178443908691406,283.0048828125 C-31.178443908691406,283.0048828125 -37.83566665649414,284.9626770019531 -35.74566650390625,288.3837890625 C-33.65566635131836,291.8049011230469 -24.01788902282715,286.1643371582031 -24.01788902282715,286.1643371582031 C-24.01788902282715,286.1643371582031 -16.75955581665039,282.97265625 -7.785110950469971,280.71600341796875 C0.9088888764381409,278.5298767089844 7.60099983215332,280.168212890625 7.514888763427734,276.17266845703125z"></path></g></g><g style="display: block;" transform="matrix(0.9396926164627075,0.3420201539993286,-0.3420201539993286,0.9396926164627075,1020.3946533203125,443.00933837890625)" opacity="1"><g opacity="1" transform="matrix(1,0,0,1,23,-15.5)"><path fill="rgb(251,176,58)" fill-opacity="1" d=" M-27.516889572143555,276.8412170410156 C-28.913555145263672,278.9976806640625 -32.233333587646484,278.09698486328125 -34.24311065673828,280.59832763671875 C-36.65355682373047,283.597900390625 -34.30588912963867,284.33856201171875 -33.9454460144043,285.7763366699219 C-33.344112396240234,288.1753234863281 -35.27944564819336,290.2534484863281 -35.27944564819336,290.2534484863281 C-35.27944564819336,290.2534484863281 -32.92533493041992,293.6488952636719 -28.7413330078125,293.1567687988281 C-25.310888290405273,292.753662109375 -25.993667602539062,288.5968933105469 -25.993667602539062,288.5968933105469 C-25.993667602539062,288.5968933105469 -23.837223052978516,287.2664489746094 -22.943666458129883,285.2550048828125 C-21.915000915527344,282.9391174316406 -23.11255645751953,281.5671081542969 -23.11255645751953,281.5671081542969 C-23.11255645751953,281.5671081542969 -19.62611198425293,282.3930969238281 -20.82266616821289,277.767333984375 C-22.01966667175293,273.14154052734375 -26.366443634033203,275.0639953613281 -27.516889572143555,276.8412170410156z"></path></g><g opacity="1" transform="matrix(1,0,0,1,23,-15.5)"><path fill="rgb(251,195,58)" fill-opacity="1" d=" M-32.67911148071289,277.0776672363281 C-31.585111618041992,274.0713195800781 -36.81444549560547,272.83233642578125 -41.204776763916016,279.1916809082031 C-45.59511184692383,285.5509948730469 -39.76077651977539,289.2265625 -37.962554931640625,285.4490051269531 C-36.46666717529297,282.3066711425781 -33.773109436035156,280.0840148925781 -32.67911148071289,277.0776672363281z"></path></g></g><g style="display: block;" transform="matrix(1,0,0,1,963.7314453125,523.8004760742188)" opacity="1"><g opacity="1" transform="matrix(1,0,0,1,0,0)"><path fill="rgb(251,176,58)" fill-opacity="1" d=" M-0.02666666731238365,136.80221557617188 C-0.02666666731238365,136.80221557617188 -14.933333396911621,143.14544677734375 -18.30933380126953,151.94644165039062 C-23.58333396911621,165.69444274902344 -23.09433364868164,174.9534454345703 -17.365333557128906,176.9834442138672 C-7.913333415985107,180.3324432373047 -8.419333457946777,162.19744873046875 -9.541333198547363,153.80044555664062 C-10.872333526611328,143.83843994140625 -0.02666666731238365,136.80221557617188 -0.02666666731238365,136.80221557617188z"></path></g></g><g style="display: block;" transform="matrix(1,0,0,1,963.7314453125,523.8004760742188)" opacity="1"><g opacity="1" transform="matrix(1,0,0,1,0,0)"><path fill="rgb(251,194,58)" fill-opacity="1" d=" M33.27777862548828,122.63888549804688 C-9.652777671813965,121.63944244384766 -9.809778213500977,156.27911376953125 -16.58333396911621,193.3333282470703 C-23.045555114746094,227.9788818359375 -16.902111053466797,267.14166259765625 -5.30555534362793,280.77777099609375 C6.1817779541015625,294.4093322753906 45.5,298.1666564941406 61.5880012512207,290.3296813964844 C61.70800018310547,289.91265869140625 66.75,291.9166564941406 70.16300201416016,294.16265869140625 C74.30899810791016,296.8906555175781 81.27777862548828,302.0555419921875 88.35033416748047,303.88555908203125 C85,295.8333435058594 76.88200378417969,286.4426574707031 77.09500122070312,286.13665771484375 C88.5,269.1666564941406 90.50833129882812,203.7516632080078 80.5,168.61111450195312 C72.13688659667969,139.62222290039062 63.66666793823242,123.33333587646484 33.27777862548828,122.63888549804688z"></path></g></g><g style="display: block;" transform="matrix(1,0,0,1,963.2314453125,524.8004760742188)" opacity="1"><g opacity="1" transform="matrix(1,0,0,1,0,0)"><path fill="rgb(251,176,58)" fill-opacity="1" d=" M63.84944534301758,134.5218963623047 C63.386444091796875,135.42388916015625 66.05244445800781,148.33189392089844 68.33844757080078,154.28689575195312 C73.76044464111328,168.4128875732422 74.51444244384766,179.11488342285156 82.91844177246094,174.82789611816406 C91.2304458618164,170.587890625 84.929443359375,156.64988708496094 80.32344818115234,149.20889282226562 C74.30144500732422,139.47988891601562 64.60944366455078,133.0428924560547 63.84944534301758,134.5218963623047z"></path></g></g><g style="display: block;" transform="matrix(1,0,0,1,963.7314453125,523.8004760742188)" opacity="1"><g opacity="1" transform="matrix(1,0,0,1,0,0)"><path fill="rgb(255,255,255)" fill-opacity="1" d=" M3.986555576324463,132.5874481201172 C-7.7387776374816895,135.5205535888672 -13.396666526794434,150.7388916015625 -9.391666412353516,160.7259979248047 C-5.205666542053223,171.16477966308594 8.445333480834961,166.9765625 14.022110939025879,155.4443359375 C18.475778579711914,146.23367309570312 15.711889266967773,129.65432739257812 3.986555576324463,132.5874481201172z"></path></g><g opacity="1" transform="matrix(1,0,0,1,0,0)"><path fill="rgb(0,0,0)" fill-opacity="1" d=" M-2.527444362640381,136.78721618652344 C-9.034333229064941,138.69422912597656 -15.046333312988281,151.60589599609375 -10.231444358825684,161.44577026367188 C-6.353555679321289,169.3707733154297 3.276444435119629,167.1366729736328 3.276444435119629,167.1366729736328 C9.552666664123535,164.0755615234375 8.719778060913086,161.84043884277344 8.804222106933594,161.7615509033203 C-9.91533374786377,167.98533630371094 -7.875222206115723,143.67066955566406 -2.527444362640381,136.78721618652344z"></path></g></g><g style="display: block;" transform="matrix(1,0,0,1,1009.2314453125,523.8004760742188)" opacity="1"><g opacity="1" transform="matrix(1,0,0,1,0,0)"><path fill="rgb(255,255,255)" fill-opacity="1" d=" M7.990110874176025,133.2013397216797 C-4.055110931396484,132.26922607421875 -9.766777992248535,149.51866149902344 -5.413222312927246,160.17010498046875 C-0.862333357334137,171.3024444580078 13.144332885742188,171.66156005859375 18.65155601501465,162.57289123535156 C23.049999237060547,155.31443786621094 20.03533363342285,134.13343811035156 7.990110874176025,133.2013397216797z"></path></g><g opacity="1" transform="matrix(1,0,0,1,0,0)"><path fill="rgb(0,0,0)" fill-opacity="1" d=" M1.3546667098999023,135.10110473632812 C-5.324110984802246,134.8465576171875 -11.450778007507324,149.8148956298828 -6.263777732849121,160.58233642578125 C-2.08644437789917,169.2544403076172 7.809000015258789,170.1840057373047 7.809000015258789,170.1840057373047 C14.223555564880371,169.281005859375 13.316333770751953,166.91921997070312 13.401333808898926,166.87100219726562 C-2.940000057220459,168.5342254638672 -4.017777919769287,139.89088439941406 1.3546667098999023,135.10110473632812z"></path></g></g><g style="display: block;" transform="matrix(1,0,0,1,966.7869873046875,479.0782470703125)" opacity="1"><g opacity="1" transform="matrix(1,0,0,1,0,0)"><path fill="rgb(251,176,58)" fill-opacity="1" d=" M17.13888931274414,199.77777099609375 C2.6388888359069824,199.61111450195312 -1.6944444179534912,209.94444274902344 -1.9444444179534912,218.69444274902344 C-2.2244443893432617,228.49444580078125 0.3055555522441864,232 4.05555534362793,232 C7.80555534362793,232 12.027777671813965,230.1666717529297 10.777777671813965,221.9166717529297 C9.527777671813965,213.6666717529297 9.972222328186035,206.77777099609375 15.972222328186035,207.02777099609375 C21.97222137451172,207.27777099609375 23.66288948059082,209.89222717285156 22.41666603088379,220.72222900390625 C21.19444465637207,230.69444274902344 27.33333396911621,234.38888549804688 30.83333396911621,232.88888549804688 C34.33333206176758,231.38888549804688 35.77777862548828,222.77777099609375 34.83333206176758,215.5833282470703 C33.98400115966797,208.8800048828125 31.197555541992188,199.95155334472656 17.13888931274414,199.77777099609375z"></path></g></g><g style="display: block;" transform="matrix(1,0,0,1,966.7869873046875,479.0782470703125)" opacity="1"><g opacity="1" transform="matrix(1,0,0,1,0,0)"><path fill="rgb(0,0,0)" fill-opacity="1" d=" M16.15999984741211,207.14456176757812 C11.666999816894531,207.2772216796875 9.371000289916992,209.4562225341797 9.20300006866455,211.83999633789062 C9,214.71800231933594 12.288999557495117,216.9695587158203 15.319000244140625,217.0415496826172 C18.236000061035156,217.11111450195312 22.065000534057617,216.23167419433594 22.332000732421875,212.56256103515625 C22.5,210.2507781982422 21.041000366210938,207 16.15999984741211,207.14456176757812z"></path></g></g><g style="display: block;" transform="matrix(-0.17460757493972778,-0.8625034689903259,0.8625034689903259,-0.17460757493972778,863.3576049804688,866.806396484375)" opacity="1"><g opacity="1" transform="matrix(1,0,0,1,0,0)"><path fill="rgb(251,176,58)" fill-opacity="1" d=" M53.75,245.5 C45.75,243.75 47.5,246.75 46.75,253.25 C46,259.75 43.5,266.5 45.75,269 C48,271.5 57,270.75 59,263.5 C60.99599838256836,256.2659912109375 61.75,247.25 53.75,245.5z"></path></g><g opacity="1" transform="matrix(1,0,0,1,0,0)"><path fill="rgb(251,195,58)" fill-opacity="1" d=" M53.25,245.75 C50.75,243.75 42.5,244.25 42.25,247.5 C41.957000732421875,251.31300354003906 44.25,253.25 44.25,253.25 C44.25,253.25 41.75,254 41.75,257.75 C41.75,261.5 44.25,262 44.25,262 C44.25,262 41.599998474121094,264.5050048828125 41.75,266.75 C42,270.5 45.98400115966797,269.75 48,269.75 C51.5,269.75 52.76300048828125,267.5669860839844 53.75,265 C55,261.75 51.5,260.75 51.5,260.75 C51.5,260.75 54.5,258 54.5,255 C54.5,252 51.75,251.75 51.75,251.75 C51.75,251.75 55.75,247.75 53.25,245.75z"></path></g><g opacity="1" transform="matrix(1,0,0,1,0,0)"><path stroke-linecap="butt" stroke-linejoin="miter" fill-opacity="0" stroke-miterlimit="4" stroke="rgb(251,210,17)" stroke-opacity="1" stroke-width="1" d=" M44.25,262.5 C48.91400146484375,263.4330139160156 51.25,261.25 51.25,261.25"></path></g><g opacity="1" transform="matrix(1,0,0,1,0,0)"><path stroke-linecap="butt" stroke-linejoin="miter" fill-opacity="0" stroke-miterlimit="4" stroke="rgb(251,210,17)" stroke-opacity="1" stroke-width="1" d=" M51.5,251.75 C50.25,253.25 46,254 44,253.25"></path></g></g><g style="display: block;" transform="matrix(0.5299192667007446,-0.8480480909347534,0.8480480909347534,0.5299192667007446,820.879150390625,680.5880737304688)" opacity="1"><g opacity="1" transform="matrix(1,0,0,1,0,0)"><path stroke-linecap="round" stroke-linejoin="miter" fill-opacity="0" stroke-miterlimit="4" stroke="rgb(251,176,58)" stroke-opacity="1" stroke-width="7" d=" M86.40350341796875,205.8885040283203 C86.40350341796875,205.8885040283203 79.91950225830078,221.4320068359375 77.20549774169922,231.86900329589844 C74.10399627685547,242.12399291992188 59.80849838256836,261.239990234375 55.52949905395508,263.25201416015625"></path></g></g><g style="display: block;" transform="matrix(1,0,0,1,960,540)" opacity="1"><g opacity="1" transform="matrix(1,0,0,1,0,0)"><path stroke-linecap="round" stroke-linejoin="round" fill-opacity="0" stroke="rgb(251,195,58)" stroke-opacity="1" stroke-width="7" d=" M64.25,274.75 C64.25,274.75 63,294 67,306 C69.59850311279297,313.5115051269531 77.6969985961914,328.3949890136719 79.5,332 C79.5,332 79,336.5 79,336.5"></path></g></g><g style="display: block;" transform="matrix(1,0,0,1,890.5,537)" opacity="1"><g opacity="1" transform="matrix(1,0,0,1,0,0)"><path stroke-linecap="round" stroke-linejoin="round" fill-opacity="0" stroke="rgb(251,195,58)" stroke-opacity="1" stroke-width="7" d=" M76,272 C76,272 70.1675033569336,288.04400634765625 68.25,303 C66.88400268554688,313.052001953125 72.1969985961914,328.8949890136719 74,332.5 C74,332.5 65.25,334.5 65.25,334.5"></path></g></g><g style="display: block;" transform="matrix(0.8338858485221863,-0.5519369840621948,0.5519369840621948,0.8338858485221863,801.161376953125,444.45123291015625)" opacity="1"><g opacity="1" transform="matrix(1,0,0,1,0,0)"><path fill="rgb(31,135,180)" fill-opacity="1" d=" M-85.625,265 C-108,264.9100036621094 -121.625,266.625 -123.875,270.625 C-126.125,274.625 -108.75,286.5 -83.125,285.75 C-49.8849983215332,284.7770080566406 -46.75,278.125 -44.5,273.875 C-42.25,269.625 -54.625,265.125 -85.625,265z"></path></g></g><g style="display: block;" transform="matrix(0.8338858485221863,-0.5519369840621948,0.5519369840621948,0.8338858485221863,801.161376953125,444.45123291015625)" opacity="1"><g opacity="1" transform="matrix(1,0,0,1,0,0)"><path fill="rgb(251,176,58)" fill-opacity="1" d=" M-118.5,273.5 C-118.5,273.5 -124.5,284.5 -82.5,284.5 C-40.999000549316406,284.5 -49.25,274.75 -49.25,274.75 C-49.25,274.75 -52.25,272 -78,274.75 C-103.75,277.5 -118.5,273.5 -118.5,273.5z"></path></g><g opacity="1" transform="matrix(1,0,0,1,0,0)"><path fill="rgb(251,195,58)" fill-opacity="1" d=" M-85.12999725341797,269.8039855957031 C-104.6709976196289,269.75 -116.56999969482422,270.77301025390625 -118.53500366210938,273.1600036621094 C-120.5,275.5469970703125 -105.32599639892578,282.6310119628906 -82.9469985961914,282.1839904785156 C-53.917999267578125,281.60400390625 -51.18000030517578,277.635009765625 -49.21500015258789,275.0989990234375 C-47.25,272.56298828125 -58.05699920654297,269.8789978027344 -85.12999725341797,269.8039855957031z"></path></g></g><g style="display: block;" transform="matrix(0.8338858485221863,-0.5519369840621948,0.5519369840621948,0.8338858485221863,1112.8050537109375,934.3172607421875)" opacity="1"><g opacity="1" transform="matrix(1,0,0,1,0,0)"><path fill="rgb(255,58,43)" fill-opacity="1" d=" M-90,-315.625 C-90.99600219726562,-316.3909912109375 -91.5,-313.875 -94.75,-314.375 C-98,-314.875 -98.375,-312.875 -98.875,-312.25 C-99.375,-311.625 -96.375,-307.375 -91.5,-303.25 C-87.625,-299.97100830078125 -86,-301.75 -80.875,-298.875 C-75.75,-296 -76.625,-299.25 -64.75,-296.75 C-52.875,-294.25 -49.125,-299.875 -45,-302.375 C-40.875,-304.875 -42.375,-307.5 -44.625,-308.125 C-46.875,-308.75 -47.125,-310.375 -49.5,-311.625 C-51.875,-312.875 -50.375,-306.875 -52.875,-304.875 C-55.375,-302.875 -58,-302 -62.375,-303.625 C-66.75,-305.25 -68.99600219726562,-304.8420104980469 -72.25,-304.5 C-77,-304 -79.375,-304.5 -81.5,-306.125 C-84.3239974975586,-308.2850036621094 -85.94499969482422,-308.114013671875 -87.25,-309.5 C-89.25,-311.625 -88.375,-314.375 -90,-315.625z"></path></g><g opacity="1" transform="matrix(1,0,0,1,0,-0.5)"><path stroke-linecap="butt" stroke-linejoin="miter" fill-opacity="0" stroke-miterlimit="4" stroke="rgb(253,253,243)" stroke-opacity="1" stroke-width="1" d=" M-91.25,-311.25 C-91.25,-311.25 -90.5,-308 -84.5,-304.75 C-78.5,-301.5 -76.5,-301.5 -69,-302 C-61.5,-302.5 -61.75,-299 -56,-301.5 C-50.25,-304 -49,-306.75 -49,-306.75"></path></g><g opacity="1" transform="matrix(1,0,0,1,-0.5,2.25)"><path stroke-linecap="butt" stroke-linejoin="miter" fill-opacity="0" stroke-miterlimit="4" stroke="rgb(253,253,243)" stroke-opacity="1" stroke-width="1" d=" M-91.25,-311.25 C-91.25,-311.25 -90.5,-308 -84.5,-304.75 C-78.5,-301.5 -76.5,-301.5 -69,-302 C-61.5,-302.5 -61.75,-299 -56,-301.5 C-50.25,-304 -49,-306.75 -49,-306.75"></path></g></g><g style="display: block;" transform="matrix(0.8338858485221863,-0.5519369840621948,0.5519369840621948,0.8338858485221863,801.161376953125,444.45123291015625)" opacity="1"><g opacity="1" transform="matrix(1,0,0,1,0,0)"><path fill="rgb(40,170,226)" fill-opacity="1" d=" M-125.125,271.375 C-125.125,271.375 -122.625,293 -82.125,293.5 C-48.25199890136719,293.9179992675781 -43.5,273.75 -43.5,273.75 C-43.5,273.75 -55.25,280.5 -82.625,280.25 C-111.03199768066406,279.9909973144531 -125.125,271.375 -125.125,271.375z"></path></g></g></g><g clip-path="url(#lottie-id)" style="display: none;"><g style="display: none;"><g><path stroke-linecap="round" stroke-linejoin="miter" fill-opacity="0" stroke-miterlimit="4"></path></g></g><g style="display: none;"><g><path></path></g></g><g style="display: none;"><g><path></path></g><g><path></path></g></g><g style="display: none;"><g><path></path></g></g><g style="display: none;"><g><path></path></g><g><path></path></g></g><g style="display: none;"><g><path></path></g><g><path stroke-linecap="butt" stroke-linejoin="miter" fill-opacity="0" stroke-miterlimit="4"></path></g><g><path stroke-linecap="butt" stroke-linejoin="miter" fill-opacity="0" stroke-miterlimit="4"></path></g></g><g style="display: none;"><g><path></path></g></g><g style="display: none;"><g><path></path></g></g><g style="display: none;"><g><path></path></g></g><g style="display: none;"><g><path></path></g></g><g style="display: none;"><g><path></path></g><g><path></path></g></g><g style="display: none;"><g><path></path></g><g><path></path></g></g><g style="display: none;"><g><path></path></g></g><g style="display: none;"><g><path></path></g></g><g style="display: none;"><g><path></path></g><g><path></path></g></g><g style="display: none;"><g><path stroke-linecap="round" stroke-linejoin="miter" fill-opacity="0" stroke-miterlimit="4"></path></g></g><g style="display: none;"><g><path stroke-linecap="round" stroke-linejoin="round" fill-opacity="0"></path></g></g><g style="display: none;"><g><path stroke-linecap="round" stroke-linejoin="round" fill-opacity="0"></path></g></g><g style="display: none;"><g><path></path></g></g><g style="display: none;"><g><path></path></g><g><path></path></g></g><g style="display: none;"><g><path></path></g><g><path stroke-linecap="butt" stroke-linejoin="miter" fill-opacity="0" stroke-miterlimit="4"></path></g><g><path stroke-linecap="butt" stroke-linejoin="miter" fill-opacity="0" stroke-miterlimit="4"></path></g></g><g style="display: none;"><g><path stroke-linecap="round" stroke-linejoin="miter" fill-opacity="0" stroke-miterlimit="4"></path></g></g><g style="display: none;"><g><path></path></g></g><g style="display: none;"><g><path></path></g><g><path></path></g></g><g style="display: none;"><g><path></path></g></g><g style="display: none;"><g><path></path></g></g><g style="display: none;"><g><path></path></g></g><g style="display: none;"><g><path></path></g><g><path></path></g></g><g style="display: none;"><g><path></path></g><g><path></path></g></g><g style="display: none;"><g><path></path></g></g><g style="display: none;"><g><path></path></g></g><g style="display: none;"><g><path></path></g><g><path></path></g><g><path stroke-linecap="butt" stroke-linejoin="miter" fill-opacity="0" stroke-miterlimit="4"></path></g><g><path stroke-linecap="butt" stroke-linejoin="miter" fill-opacity="0" stroke-miterlimit="4"></path></g></g><g style="display: none;"><g><path stroke-linecap="round" stroke-linejoin="miter" fill-opacity="0" stroke-miterlimit="4"></path></g></g><g style="display: none;"><g><path stroke-linecap="round" stroke-linejoin="round" fill-opacity="0"></path></g></g><g style="display: none;"><g><path stroke-linecap="round" stroke-linejoin="round" fill-opacity="0"></path></g></g><g style="display: none;"><g><path></path></g></g><g style="display: none;"><g><path></path></g><g><path></path></g></g><g style="display: none;"><g><path></path></g><g><path stroke-linecap="butt" stroke-linejoin="miter" fill-opacity="0" stroke-miterlimit="4"></path></g><g><path stroke-linecap="butt" stroke-linejoin="miter" fill-opacity="0" stroke-miterlimit="4"></path></g></g><g style="display: none;"><g><path></path></g></g></g><g clip-path="url(#lottie-id)" style="display: block;" transform="matrix(1,0,0,1,0,0)" opacity="1"><g style="display: block;" transform="matrix(1,0,0,1,15.75,39.75)" opacity="1"><g opacity="1" transform="matrix(1,0,0,1,956.25,536.25)"><path fill="rgb(240,180,35)" fill-opacity="1" d=" M-1179.1510009765625,-480.1629943847656 C-1940,464 -304.07501220703125,1336.0009765625 203.99099731445312,795.2210083007812 C630.2169799804688,341.54998779296875 1060.31298828125,1127.7679443359375 1090.2550048828125,27.854999542236328 C1108,-624 932.89501953125,-949.0900268554688 169.8350067138672,-614.1729736328125 C-79.2760009765625,-504.8349914550781 -926.3280029296875,-793.9000244140625 -1179.1510009765625,-480.1629943847656z"></path></g></g><g style="display: block;" transform="matrix(1,0,0,1,-0.25,-0.25)" opacity="1"><g opacity="1" transform="matrix(1,0,0,1,960.25,540.25)"><path fill="rgb(250,195,58)" fill-opacity="1" d=" M-1179.1510009765625,-480.1629943847656 C-1940,464 -304.07501220703125,1336.0009765625 203.99099731445312,795.2210083007812 C630.2169799804688,341.54998779296875 1060.31298828125,1127.7679443359375 1090.2550048828125,27.854999542236328 C1108,-624 932.89501953125,-949.0900268554688 169.8350067138672,-614.1729736328125 C-79.2760009765625,-504.8349914550781 -926.3280029296875,-793.9000244140625 -1179.1510009765625,-480.1629943847656z"></path></g></g><g clip-path="url(#lottie-id)" style="display: block;" transform="matrix(1,0,0,1,0,0)" opacity="1"><g style="display: block;" transform="matrix(1.190000057220459,0,0,1.190000057220459,360.8544616699219,229.2915496826172)" opacity="1"><g opacity="1" transform="matrix(1,0,0,1,121.83300018310547,180.48899841308594)"><path fill="rgb(251,176,58)" fill-opacity="1" d=" M-85.7300033569336,400.29937744140625 C-93.8030014038086,405.2913513183594 -96.4540023803711,651.2887573242188 -96.4540023803711,651.2887573242188 C-79.86399841308594,659.9217529296875 -64.3980941772461,617.6920776367188 -48.484092712402344,620.9320678710938 C-36.21208953857422,623.4310913085938 -39.60236358642578,752.1285400390625 -11.633363723754883,755.717529296875 C7.974363803863525,758.2335205078125 21.678728103637695,642.9691772460938 33.21072769165039,634.212158203125 C46.04072570800781,624.4701538085938 61.965728759765625,753.1187133789062 75.08673095703125,749.5280151367188 C75.08673095703125,749.5280151367188 79.42509460449219,422.2691955566406 79.42509460449219,422.2691955566406"></path></g><g opacity="1" transform="matrix(1,0,0,1,177.0449981689453,90.99400329589844)"><path fill="rgb(251,176,58)" fill-opacity="1" d=" M5.274636268615723,509.01800537109375 C10.024636268615723,519.8289794921875 17.270090103149414,838.9923706054688 19.952091217041016,836.7573852539062 C34.58909225463867,824.5633544921875 41.33490753173828,687.294189453125 40.80354690551758,627.5604248046875 C36.44618225097656,573.9251098632812 37.578636169433594,559.8980102539062 34.46863555908203,498.9840087890625 C33.444637298583984,480.4259948730469 30.068819046020508,461.0811767578125 27.08436393737793,433.12371826171875 C23.36936378479004,394.26080322265625 22.909818649291992,388.21380615234375 16.75763702392578,385.0458984375 C16.75763702392578,385.0458984375 1.6100000143051147,413.9930114746094 1.6100000143051147,413.9930114746094"></path></g><g opacity="1" transform="matrix(1,0,0,1,29.530000686645508,119.82599639892578)"><path fill="rgb(251,176,58)" fill-opacity="1" d=" M21.039636611938477,476.5820007324219 C21.039636611938477,476.5820007324219 -4.151000022888184,710.7803344726562 -4.151000022888184,710.7803344726562 C-17.618999481201172,708.6343383789062 -9.386272430419922,559.0974731445312 -24.683273315429688,572.688720703125 C-44.31827163696289,590.1347045898438 -70.42981719970703,589.2982788085938 -26.207000732421875,501.6681823730469 C-7.218818187713623,462.9658203125 -2.440363645553589,436.30755615234375 -5.434363842010498,395.0498962402344 C-7.257909297943115,372.1269226074219 -0.12227272987365723,354.9493713378906 -0.12227272987365723,354.9493713378906 C-0.12227272987365723,354.9493713378906 20.631635665893555,409.32537841796875 20.631635665893555,409.32537841796875"></path></g><g opacity="1" transform="matrix(1,0,0,1,87.56999969482422,28.364999771118164)"><path fill="rgb(251,176,58)" fill-opacity="1" d=" M-30.36536407470703,600.4080200195312 C-30.36536407470703,600.4080200195312 -58.1619987487793,446.4103698730469 -58.1619987487793,446.4103698730469 C-56.047000885009766,437.59136962890625 -30.16472816467285,434.2991027832031 -10.524726867675781,433.7240905761719 C8.307272911071777,433.173095703125 10.934000015258789,416.809814453125 34.513999938964844,417.7418212890625 C54.73527145385742,418.54083251953125 55.693092346191406,432.4437255859375 72.92809295654297,435.5367126464844 C91.35909271240234,438.8447265625 99.68663787841797,439.3206481933594 106.23263549804688,447.6756286621094 C106.23263549804688,447.6756286621094 95.46190643310547,607.2440185546875 95.46190643310547,607.2440185546875 C75.68290710449219,612.18798828125 1.0566363334655762,601.4349975585938 -30.36536407470703,600.4080200195312z"></path></g><g opacity="1" transform="matrix(1,0,0,1,108.22699737548828,99.58100128173828)"><path fill="rgb(251,176,58)" fill-opacity="1" d="M0 0"></path></g><g opacity="1" transform="matrix(1,0,0,1,52.88199996948242,79.63200378417969)"><path fill="rgb(251,176,58)" fill-opacity="1" d="M0 0"></path></g></g><g style="display: block;" transform="matrix(1,0,0,1,380.0190124511719,249.75)" opacity="1"><g opacity="1" transform="matrix(1,0,0,1,121.83300018310547,180.48899841308594)"><path fill="rgb(255,238,60)" fill-opacity="1" d=" M-63.39353942871094,768.2277221679688 C-71.9209976196289,772.437744140625 -105.0985107421875,857.7127075195312 -105.0985107421875,857.7127075195312 C-89.3730239868164,867.904052734375 -65.11784362792969,825.9999389648438 -49.552730560302734,830.7479858398438 C-37.54947280883789,834.4095458984375 -44.2696533203125,914.7269897460938 -16.7141056060791,920.9713134765625 C2.6034140586853027,925.3486328125 17.8402099609375,859.4698486328125 30.17732048034668,851.8333740234375 C43.90195083618164,843.3382568359375 58.970542907714844,899.1439819335938 72.39994812011719,896.8123168945312 C72.39994812011719,896.8123168945312 60.4724235534668,790.7899169921875 60.4724235534668,790.7899169921875"></path></g><g opacity="1" transform="matrix(1,0,0,1,177.0449981689453,90.99400329589844)"><path fill="rgb(241,226,47)" fill-opacity="1" d=" M4.550877571105957,884.0406494140625 C8.258427619934082,895.2765502929688 14.300010681152344,988.2821044921875 17.188711166381836,986.3080444335938 C32.94989013671875,975.5386352539062 21.411725997924805,886.1852416992188 26.635921478271484,875.1986083984375 C32.165626525878906,863.569091796875 35.888832092285156,928.8995361328125 54.69333267211914,920.5739135742188 C67.06179809570312,915.0983276367188 49.172767639160156,888.694580078125 45.45452880859375,849.4845581054688 C43.61114501953125,831.005615234375 35.996299743652344,790.1871948242188 43.56709671020508,775.3964233398438 C54.29480743408203,754.4370727539062 50.5568733215332,754.819091796875 47.15715026855469,748.5311889648438 C47.15715026855469,748.5311889648438 30.34755516052246,749.5194702148438 30.34755516052246,749.5194702148438"></path></g><g opacity="1" transform="matrix(1,0,0,1,29.530000686645508,119.82599639892578)"><path fill="rgb(241,226,47)" fill-opacity="1" d=" M20.993675231933594,839.06396484375 C20.993675231933594,839.06396484375 -12.794745445251465,918.375732421875 -12.794745445251465,918.375732421875 C-26.024354934692383,914.9525146484375 6.2415452003479,810.40576171875 -10.310632705688477,822.5053100585938 C-31.55820083618164,838.0367431640625 -54.6827507019043,811.251708984375 -0.5868062973022461,763.03076171875 C10.786269187927246,752.5001220703125 22.16058921813965,728.5729370117188 14.881453514099121,713.3998413085938 C6.082324504852295,695.0603637695312 18.452518463134766,691.3323974609375 18.452518463134766,691.3323974609375 C18.452518463134766,691.3323974609375 41.66992950439453,705.7002563476562 41.66992950439453,705.7002563476562"></path></g><g opacity="1" transform="matrix(1,0,0,1,87.56999969482422,28.364999771118164)"><path fill="rgb(255,238,60)" fill-opacity="1" d=" M-16.197128295898438,798.7189331054688 C-16.197128295898438,798.7189331054688 -39.58671951293945,782.7933959960938 -39.58671951293945,782.7933959960938 C-36.637020111083984,774.1985473632812 -14.473298072814941,785.9198608398438 5.171623706817627,787.2171020507812 C24.007781982421875,788.4610595703125 32.27920150756836,791.4409790039062 55.710567474365234,794.61669921875 C75.80419921875,797.3400268554688 80.06366729736328,794.3128051757812 96.95990753173828,799.0394287109375 C115.0290756225586,804.0943603515625 130.89805603027344,802.203125 136.6319122314453,811.16015625 C136.6319122314453,811.16015625 119.8215560913086,812.148193359375 119.8215560913086,812.148193359375 C99.62260437011719,815.1956176757812 15.046940803527832,802.7361450195312 -16.197128295898438,798.7189331054688z"></path></g><g opacity="1" transform="matrix(1,0,0,1,108.22699737548828,99.58100128173828)"><path fill="rgb(255,241,94)" fill-opacity="1" d=" M-57.70332717895508,859.3089599609375 C-12.140745162963867,840.7052001953125 15.803321838378906,946.9487915039062 73.36811065673828,875.45263671875 C79.88008117675781,846.5564575195312 93.10409545898438,853.3599243164062 94.9161376953125,839.2688598632812 C97.13665771484375,822.0061645507812 96.2466812133789,808.7976684570312 96.35948944091797,781.9824829101562 C96.47460174560547,754.5729370117188 100.78886413574219,756.4691772460938 99.48087310791016,740.8623046875 C69.85043334960938,746.4583740234375 1.597660779953003,715.2733154296875 -37.89534378051758,726.2590942382812 C-49.26512908935547,729.4220581054688 -52.63450622558594,778.39453125 -51.194122314453125,804.7491455078125 C-49.904788970947266,828.3403930664062 -56.02617645263672,846.2709350585938 -57.70332717895508,859.3089599609375z"></path></g><g opacity="1" transform="matrix(1,0,0,1,52.88199996948242,79.63200378417969)"><path fill="rgb(255,255,255)" fill-opacity="1" d=" M26.171253204345703,762.2147827148438 C23.55941390991211,770.00439453125 20.461448669433594,794.849365234375 20.640235900878906,803.0806884765625 C20.772748947143555,809.2025756835938 30.342958450317383,809.9500732421875 30.20818328857422,803.7554321289062 C30.046405792236328,796.319580078125 32.85322189331055,772.4464111328125 35.21493911743164,765.4071044921875 C37.18000411987305,759.5489501953125 28.138607025146484,756.34765625 26.171253204345703,762.2147827148438z"></path></g></g><g style="display: none;" transform="matrix(1,0,0,1,322.510986328125,181.0830078125)" opacity="1"><g opacity="1" transform="matrix(1,0,0,1,100.03600311279297,251.26300048828125)"><path fill="rgb(255,238,60)" fill-opacity="1" d=" M4.442999839782715,-19.04400062561035 C-0.40700000524520874,-12.982999801635742 -5.458000183105469,-6.464000225067139 -8.220999717712402,1.0609999895095825 C-10.178000450134277,6.755000114440918 -13.02400016784668,19.04400062561035 -2.4679999351501465,17.791000366210938 C13.02299976348877,15.954000473022461 -2.5299999713897705,-10.638999938964844 4.442999839782715,-19.04400062561035z"></path></g><g opacity="1" transform="matrix(1,0,0,1,40.000999450683594,84.84100341796875)"><path fill="rgb(255,238,60)" fill-opacity="1" d=" M20.384000778198242,-2.7909998893737793 C13.491000175476074,-6.361000061035156 6.111000061035156,-10.039999961853027 -1.809000015258789,-11.277000427246094 C-7.776000022888184,-12.081999778747559 -20.384000778198242,-12.468999862670898 -17.090999603271484,-2.361999988555908 C-12.258999824523926,12.468999862670898 10.777000427246094,-7.985000133514404 20.384000778198242,-2.7909998893737793z"></path></g><g opacity="1" transform="matrix(1,0,0,1,247.88299560546875,257.8179931640625)"><path fill="rgb(255,238,60)" fill-opacity="1" d=" M-14.276000022888184,-23.43199920654297 C-8.682999610900879,-5.072999954223633 -6.3460001945495605,23.43199920654297 3.6730000972747803,19.878000259399414 C14.277000427246094,16.117000579833984 -8.215999603271484,-10.116999626159668 -14.276000022888184,-23.43199920654297z"></path></g><g opacity="1" transform="matrix(1,0,0,1,21.65399932861328,195.2740020751953)"><path fill="rgb(255,238,60)" fill-opacity="1" d=" M21.40399932861328,-13.456999778747559 C4.658999919891357,-10.354999542236328 -21.40399932861328,-13.315999984741211 -18.04800033569336,-0.3100000023841858 C-14.494999885559082,13.456999778747559 9.281000137329102,-8.75100040435791 21.40399932861328,-13.456999778747559z"></path></g><g opacity="1" transform="matrix(1,0,0,1,101.14800262451172,21.746999740600586)"><path fill="rgb(255,238,60)" fill-opacity="1" d=" M13.340999603271484,21.496999740600586 C7.341000080108643,9.336000442504883 13.34000015258789,-21.496999740600586 -1.3020000457763672,-18.565000534057617 C-13.340999603271484,-16.15399932861328 4.833000183105469,12.836000442504883 13.340999603271484,21.496999740600586z"></path></g><g opacity="1" transform="matrix(1,0,0,1,175.64199829101562,29.173999786376953)"><path fill="rgb(255,241,94)" fill-opacity="1" d=" M-5.4679999351501465,10.532999992370605 C-4.413000106811523,4.449999809265137 6.326000213623047,-5.138999938964844 -0.0430000014603138,-8.100000381469727 C-5.281000137329102,-10.532999992370605 -6.324999809265137,5.034999847412109 -5.4679999351501465,10.532999992370605z"></path></g><g opacity="1" transform="matrix(1,0,0,1,162.5449981689453,258.8429870605469)"><path fill="rgb(255,238,60)" fill-opacity="1" d=" M2.86299991607666,-11.767999649047852 C-1.7769999504089355,0.5139999985694885 -6.658999919891357,11.520999908447266 0.1850000023841858,11.64799976348877 C6.658999919891357,11.767999649047852 -0.9070000052452087,1.694000005722046 2.86299991607666,-11.767999649047852z"></path></g><g opacity="1" transform="matrix(1,0,0,1,284.14801025390625,188.59100341796875)"><path fill="rgb(241,226,47)" fill-opacity="1" d=" M11.126999855041504,-1.246999979019165 C26.00200080871582,10.880999565124512 43.82699966430664,33.24700164794922 50.16400146484375,24.714000701904297 C56.874000549316406,15.680999755859375 23.57900047302246,6.432000160217285 11.126999855041504,-1.246999979019165z"></path></g><g opacity="1" transform="matrix(1,0,0,1,258.35198974609375,26.618999481201172)"><path fill="rgb(241,226,47)" fill-opacity="1" d=" M-16.4060001373291,16.18400001525879 C-0.8420000076293945,4.954999923706055 16.4060001373291,0.9639999866485596 9.803000450134277,-7.366000175476074 C2.815000057220459,-16.18400001525879 -5.764999866485596,6.144000053405762 -16.4060001373291,16.18400001525879z"></path></g></g></g><g clip-path="url(#lottie-id)" style="display: block;" transform="matrix(1,0,0,1,0,0)" opacity="1"><g style="display: none;" transform="matrix(0.7210533022880554,1.2000341415405273,-1.2000341415405273,0.7210533022880554,1320.2720947265625,281.9762878417969)" opacity="1"><g opacity="1" transform="matrix(1,0,0,1,100.03600311279297,251.26300048828125)"><path fill="rgb(251,176,58)" fill-opacity="1" d=" M4.442999839782715,-19.04400062561035 C-0.40700000524520874,-12.982999801635742 -5.458000183105469,-6.464000225067139 -8.220999717712402,1.0609999895095825 C-10.178000450134277,6.755000114440918 -13.02400016784668,19.04400062561035 -2.4679999351501465,17.791000366210938 C13.02299976348877,15.954000473022461 -2.5299999713897705,-10.638999938964844 4.442999839782715,-19.04400062561035z"></path></g><g opacity="1" transform="matrix(1,0,0,1,40.000999450683594,84.84100341796875)"><path fill="rgb(251,176,58)" fill-opacity="1" d=" M20.384000778198242,-2.7909998893737793 C13.491000175476074,-6.361000061035156 6.111000061035156,-10.039999961853027 -1.809000015258789,-11.277000427246094 C-7.776000022888184,-12.081999778747559 -20.384000778198242,-12.468999862670898 -17.090999603271484,-2.361999988555908 C-12.258999824523926,12.468999862670898 10.777000427246094,-7.985000133514404 20.384000778198242,-2.7909998893737793z"></path></g><g opacity="1" transform="matrix(1,0,0,1,247.88299560546875,257.8179931640625)"><path fill="rgb(251,176,58)" fill-opacity="1" d=" M-14.276000022888184,-23.43199920654297 C-8.682999610900879,-5.072999954223633 -6.3460001945495605,23.43199920654297 3.6730000972747803,19.878000259399414 C14.277000427246094,16.117000579833984 -8.215999603271484,-10.116999626159668 -14.276000022888184,-23.43199920654297z"></path></g><g opacity="1" transform="matrix(1,0,0,1,21.65399932861328,195.2740020751953)"><path fill="rgb(251,176,58)" fill-opacity="1" d=" M21.40399932861328,-13.456999778747559 C4.658999919891357,-10.354999542236328 -21.40399932861328,-13.315999984741211 -18.04800033569336,-0.3100000023841858 C-14.494999885559082,13.456999778747559 9.281000137329102,-8.75100040435791 21.40399932861328,-13.456999778747559z"></path></g><g opacity="1" transform="matrix(1,0,0,1,101.14800262451172,21.746999740600586)"><path fill="rgb(251,176,58)" fill-opacity="1" d=" M13.340999603271484,21.496999740600586 C7.341000080108643,9.336000442504883 13.34000015258789,-21.496999740600586 -1.3020000457763672,-18.565000534057617 C-13.340999603271484,-16.15399932861328 4.833000183105469,12.836000442504883 13.340999603271484,21.496999740600586z"></path></g><g opacity="1" transform="matrix(1,0,0,1,175.64199829101562,29.173999786376953)"><path fill="rgb(251,176,58)" fill-opacity="1" d=" M-5.4679999351501465,10.532999992370605 C-4.413000106811523,4.449999809265137 6.326000213623047,-5.138999938964844 -0.0430000014603138,-8.100000381469727 C-5.281000137329102,-10.532999992370605 -6.324999809265137,5.034999847412109 -5.4679999351501465,10.532999992370605z"></path></g><g opacity="1" transform="matrix(1,0,0,1,162.5449981689453,258.8429870605469)"><path fill="rgb(251,176,58)" fill-opacity="1" d=" M2.86299991607666,-11.767999649047852 C-1.7769999504089355,0.5139999985694885 -6.658999919891357,11.520999908447266 0.1850000023841858,11.64799976348877 C6.658999919891357,11.767999649047852 -0.9070000052452087,1.694000005722046 2.86299991607666,-11.767999649047852z"></path></g><g opacity="1" transform="matrix(1,0,0,1,284.14801025390625,188.59100341796875)"><path fill="rgb(251,176,58)" fill-opacity="1" d=" M11.126999855041504,-1.246999979019165 C26.00200080871582,10.880999565124512 43.82699966430664,33.24700164794922 50.16400146484375,24.714000701904297 C56.874000549316406,15.680999755859375 23.57900047302246,6.432000160217285 11.126999855041504,-1.246999979019165z"></path></g><g opacity="1" transform="matrix(1,0,0,1,258.35198974609375,26.618999481201172)"><path fill="rgb(251,176,58)" fill-opacity="1" d=" M-16.4060001373291,16.18400001525879 C-0.8420000076293945,4.954999923706055 16.4060001373291,0.9639999866485596 9.803000450134277,-7.366000175476074 C2.815000057220459,-16.18400001525879 -5.764999866485596,6.144000053405762 -16.4060001373291,16.18400001525879z"></path></g></g><g style="display: block;" transform="matrix(1,0,0,1,964.1519775390625,85.85498046875)" opacity="1"><g opacity="1" transform="matrix(1,0,0,1,375.322998046875,410.6610107421875)"><path fill="rgb(250,175,58)" fill-opacity="1" d=" M-211.69503784179688,166.96238708496094 C-186.1937713623047,117.65752410888672 -173.60556030273438,133.9833221435547 -152.2718963623047,109.142822265625 C-126.72527313232422,78.86184692382812 -142.11264038085938,69.78660583496094 -139.53964233398438,47.89860534667969 C-136.5326385498047,22.320606231689453 -126.689208984375,9.722838401794434 -101.32832336425781,14.726892471313477 C-76.25482940673828,20.001588821411133 -57.45880126953125,31.283138275146484 -43.8398551940918,6.401391983032227 C-23.79747772216797,-30.39667320251465 -33.335548400878906,-48.545352935791016 -14.039928436279297,-62.4481086730957 C11.532464027404785,-80.38706970214844 35.9852180480957,-41.16843795776367 54.493499755859375,-87.85071563720703 C75.88885498046875,-141.90589904785156 58.41696548461914,-193.52435302734375 97.70796203613281,-195.30136108398438 C129.48095703125,-196.7383575439453 130.36538696289062,-177.73374938964844 142.54339599609375,-170.23974609375 C169.77639770507812,-153.48074340820312 193.60699462890625,-192.34632873535156 235.73199462890625,-158.85731506347656 C264.885986328125,-135.68032836914062 210.74656677246094,-92.99736022949219 272.3705749511719,-73.7393569946289 C295.4795837402344,-66.03636169433594 338.7778625488281,-63.71043014526367 348.03485107421875,-25.935428619384766 C356.516845703125,8.676570892333984 303.803466796875,-6.687215328216553 303.803466796875,35.451786041259766 C303.803466796875,71.32978820800781 345.6797180175781,146.72776794433594 318.3563537597656,172.5347900390625 C286.02288818359375,203.1134796142578 244.48663330078125,157.6903839111328 242.15577697753906,184.30145263671875 C239.82923889160156,221.0040283203125 274.743896484375,215.53378295898438 283.6006164550781,303.6469421386719 C312.3535461425781,406.88006591796875 264.1118469238281,479.64227294921875 239.14370727539062,437.30950927734375 C221.34413146972656,415.59344482421875 227.9101104736328,302.6919250488281 195.172119140625,302.6919250488281 C137.3991241455078,302.6919250488281 199.46878051757812,538.1782836914062 147.34706115722656,558.6266479492188 C107.77400970458984,577.0916748046875 91.82046508789062,417.8583068847656 60.85346984863281,458.90631103515625 C47.32746887207031,476.8352966308594 76.98290252685547,558.0859985351562 86.5052490234375,576.3959350585938 C115.61153411865234,632.36181640625 48.661312103271484,663.9458618164062 4.71550989151001,590.8447875976562 C-20.925580978393555,548.1934814453125 -61.301918029785156,529.4732055664062 -56.782470703125,580.5591430664062 C-60.21299743652344,631.4899291992188 -57.00856018066406,738.8773803710938 -81.9755630493164,736.4923706054688 C-120.79255676269531,732.7843627929688 -94.90047454833984,580.5247802734375 -122.25846862792969,581.32275390625 C-164.62547302246094,582.5582885742188 -190.9126434326172,676.7347412109375 -232.21217346191406,663.3700561523438 C-253.7154998779297,656.4117431640625 -261.5374755859375,635.6570434570312 -239.85848999023438,578.378662109375 C-222.8054656982422,533.3232421875 -223.56100463867188,358.2901306152344 -255.03900146484375,342.5111389160156 C-281.9700012207031,329.0111389160156 -294.0535583496094,363.9768981933594 -316.80450439453125,360.7670593261719 C-340.0169677734375,357.492431640625 -332.6839599609375,332.89764404296875 -322.3607482910156,319.8810119628906 C-308.36065673828125,302.2277526855469 -265.4654235839844,285.8266906738281 -240.42181396484375,261.0267028808594 C-214.7500762939453,233.91586303710938 -230.39453125,202.896484375 -211.69503784179688,166.96238708496094z"></path></g></g><g style="display: block;" transform="matrix(1,0,0,1,1071.364990234375,158.47799682617188)" opacity="1"><g opacity="1" transform="matrix(1,0,0,1,278.7340087890625,306.7120056152344)"><path fill="rgb(255,59,42)" fill-opacity="1" d=" M-168.9737091064453,569.7822875976562 C-192.46609497070312,568.5657348632812 -296.8056335449219,429.8322448730469 -288.7035217285156,409.2290344238281 C-276.2154846191406,377.4741516113281 -124.21878051757812,295.2332763671875 -34.69369125366211,221.70872497558594 C42.64310836791992,158.19407653808594 152.2342529296875,59.33973693847656 169.97036743164062,52.5034294128418 C189.29025268554688,53.47109603881836 299.92266845703125,203.15126037597656 294.3353576660156,223.4523162841797 C289.1341857910156,232.26084899902344 163.96192932128906,304.9837341308594 81.33206176757812,371.9824523925781 C-28.39180564880371,460.95050048828125 -125.7126693725586,553.9099731445312 -168.9737091064453,569.7822875976562z"></path></g><g opacity="1" transform="matrix(1,0,0,1,245.78500366210938,282.5920104980469)"><path fill="rgb(255,255,255)" fill-opacity="1" d=" M-227.35215759277344,492.92279052734375 C-229.4787139892578,489.56524658203125 -237.39703369140625,478.09149169921875 -237.29336547851562,476.220703125 C-236.57481384277344,463.2081604003906 -68.1304702758789,348.5426330566406 21.39461898803711,275.016357421875 C98.73069763183594,211.5014190673828 222.50050354003906,133.37269592285156 245.82684326171875,120.14852905273438 C247.30125427246094,120.75572204589844 259.2992858886719,136.44741821289062 259.2992858886719,136.44741821289062 C242.70591735839844,149.09872436523438 120.94337463378906,222.28775024414062 38.31350326538086,289.2872009277344 C-71.40936279296875,378.2545166015625 -189.7818145751953,463.5143127441406 -227.35215759277344,492.92279052734375z"></path></g><g opacity="1" transform="matrix(1,0,0,1,299.9410095214844,329.5950012207031)"><path fill="rgb(255,255,255)" fill-opacity="1" d=" M-236.9920196533203,505.6029357910156 C-239.34323120117188,504.53192138671875 -263.4076843261719,477.66986083984375 -260.6341552734375,475.5661926269531 C-210.05332946777344,437.19921875 -80.32292175292969,343.1396789550781 14.324152946472168,276.057373046875 C95.82317352294922,218.294189453125 208.79354858398438,135.42022705078125 234.4132080078125,125.16981506347656 C240.63702392578125,132.37574768066406 254.81065368652344,158.011474609375 254.81065368652344,158.011474609375 C238.1463165283203,170.57391357421875 126.67178344726562,243.24549865722656 41.69050598144531,304.0823669433594 C-73.27318572998047,386.3828430175781 -190.9939727783203,486.89154052734375 -236.9920196533203,505.6029357910156z"></path></g><g opacity="1" transform="matrix(1,0,0,1,512.4650268554688,170.12100219726562)"><path fill="rgb(255,255,255)" fill-opacity="1" d=" M30.604049682617188,353.21942138671875 C18.070680618286133,360.49053955078125 5.66600227355957,368.0096435546875 -7.122768402099609,374.8310546875 C-15.297894477844238,379.1914367675781 -7.561178684234619,391.279541015625 0.5554739832878113,386.9490661621094 C13.343523979187012,380.1263732910156 25.746923446655273,372.6069641113281 38.28157043457031,365.3361511230469 C46.298912048339844,360.68499755859375 38.59159469604492,348.58544921875 30.604049682617188,353.21942138671875z"></path></g><g opacity="1" transform="matrix(1,0,0,1,480.5050048828125,198.86500549316406)"><path fill="rgb(255,255,255)" fill-opacity="1" d=" M10.091920852661133,368.39306640625 C19.118267059326172,370.417724609375 22.257728576660156,356.4206848144531 13.231382369995117,354.3960266113281 C4.205035209655762,352.3713684082031 1.065574049949646,366.368408203125 10.091920852661133,368.39306640625z"></path></g></g></g></g></g></svg>