<svg xmlns="http://www.w3.org/2000/svg" xmlns:xlink="http://www.w3.org/1999/xlink" viewBox="0 0 1920 1080" width="1920" height="1080" style="width: 100%; height: 100%; transform: translate3d(0,0,0); content-visibility: visible;" preserveAspectRatio="xMidYMid meet"><defs><clipPath id="lottie-id"><rect width="1920" height="1080" x="0" y="0"></rect></clipPath><clipPath id="lottie-id"><path d="M0,0 L1920,0 L1920,1080 L0,1080z"></path></clipPath><clipPath id="lottie-id"><path d="M0,0 L1920,0 L1920,1080 L0,1080z"></path></clipPath><clipPath id="lottie-id"><path d="M0,0 L1920,0 L1920,1080 L0,1080z"></path></clipPath><clipPath id="lottie-id"><path d="M0,0 L1920,0 L1920,1080 L0,1080z"></path></clipPath><clipPath id="lottie-id"><path d="M0,0 L1920,0 L1920,1080 L0,1080z"></path></clipPath><clipPath id="lottie-id"><path d="M0,0 L1920,0 L1920,1080 L0,1080z"></path></clipPath></defs><g clip-path="url(#lottie-id)"><g style="display: block;" transform="matrix(3.888000011444092,0,0,1.4693299531936646,-12,-10.99871826171875)" opacity="1"><rect width="500" height="750" fill="#233254"></rect></g><g clip-path="url(#lottie-id)" style="display: none;" transform="matrix(1.5,0,0,1.5,-480,-390)" opacity="1"><g style="display: block;" transform="matrix(1,0,0,1,865,538.5)" opacity="1"><g opacity="1" transform="matrix(1,0,0,1,0,0)"><path stroke-linecap="round" stroke-linejoin="miter" fill-opacity="0" stroke-miterlimit="4" stroke="rgb(251,176,58)" stroke-opacity="1" stroke-width="7" d=" M107.23500061035156,210.4029998779297 C107.23500061035156,210.4029998779297 104.75,227.25 111.25,238.5 C117.62699890136719,249.53799438476562 108.625,261.375 87.125,264.375"></path></g></g><g style="display: block;" transform="matrix(1,0,0,1,984.4996948242188,536.4999389648438)" opacity="1"><g opacity="1" transform="matrix(1,0,0,1,0,0)"><path fill="rgb(40,170,226)" fill-opacity="1" d=" M10.5,247.5 C8,243.75 2.25,248.25 -6.5,253.25 C-15.25,258.25 -30,266.25 -30,266.25 C-30,266.25 -36.25,269.5 -33.5,272.5 C-30.75,275.5 -22.25,268 -22.25,268 C-22.25,268 -12.5,262 -4,258 C4.234000205993652,254.125 13,251.25 10.5,247.5z"></path></g></g><g style="display: block;" transform="matrix(0.838670551776886,0.5446390509605408,-0.5446390509605408,0.838670551776886,1123.743896484375,600.424072265625)" opacity="1"><g opacity="1" transform="matrix(1,0,0,1,23,-15.5)"><path fill="rgb(251,176,58)" fill-opacity="1" d=" M-36.75,257.75 C-38.266998291015625,259.8739929199219 -41.59400177001953,258.80499267578125 -43.75,261.25 C-46.334999084472656,264.1820068359375 -43.987998962402344,265.0429992675781 -43.68899917602539,266.5190124511719 C-43.189998626708984,268.9809875488281 -45.25,271 -45.25,271 C-45.25,271 -43.018001556396484,274.55499267578125 -38.75,274.25 C-35.25,274 -35.75,269.75 -35.75,269.75 C-35.75,269.75 -33.5,268.5 -32.5,266.5 C-31.349000930786133,264.197998046875 -32.5,262.75 -32.5,262.75 C-32.5,262.75 -29,263.75 -30,259 C-31,254.25 -35.5,256 -36.75,257.75z"></path></g><g opacity="1" transform="matrix(1,0,0,1,23,-15.5)"><path fill="rgb(251,195,58)" fill-opacity="1" d=" M-42,257.75 C-40.75,254.75 -46,253.25 -50.75,259.5 C-55.5,265.75 -49.75,269.75 -47.75,266 C-46.08599853515625,262.8800048828125 -43.25,260.75 -42,257.75z"></path></g></g><g style="display: block;" transform="matrix(1,0,0,1,1011.9996948242188,534.9999389648438)" opacity="1"><g opacity="1" transform="matrix(1,0,0,1,0,0)"><path fill="rgb(31,135,180)" fill-opacity="1" d=" M-85.625,265 C-108,264.9100036621094 -121.625,266.625 -123.875,270.625 C-126.125,274.625 -108.75,286.5 -83.125,285.75 C-49.8849983215332,284.7770080566406 -46.75,278.125 -44.5,273.875 C-42.25,269.625 -54.625,265.125 -85.625,265z"></path></g></g><g style="display: block;" transform="matrix(1,0,0,1,1011.9996948242188,534.9999389648438)" opacity="1"><g opacity="1" transform="matrix(1,0,0,1,0,0)"><path fill="rgb(251,176,58)" fill-opacity="1" d=" M-118.5,273.5 C-118.5,273.5 -124.5,284.5 -82.5,284.5 C-40.999000549316406,284.5 -49.25,274.75 -49.25,274.75 C-49.25,274.75 -52.25,272 -78,274.75 C-103.75,277.5 -118.5,273.5 -118.5,273.5z"></path></g><g opacity="1" transform="matrix(1,0,0,1,0,0)"><path fill="rgb(251,195,58)" fill-opacity="1" d=" M-85.12999725341797,269.8039855957031 C-104.6709976196289,269.75 -116.56999969482422,270.77301025390625 -118.53500366210938,273.1600036621094 C-120.5,275.5469970703125 -105.32599639892578,282.6310119628906 -82.9469985961914,282.1839904785156 C-53.917999267578125,281.60400390625 -51.18000030517578,277.635009765625 -49.21500015258789,275.0989990234375 C-47.25,272.56298828125 -58.05699920654297,269.8789978027344 -85.12999725341797,269.8039855957031z"></path></g></g><g style="display: block;" transform="matrix(1,0,0,1,1001.4996948242188,1115.5)" opacity="1"><g opacity="1" transform="matrix(1,0,0,1,0,0)"><path fill="rgb(255,58,43)" fill-opacity="1" d=" M-90,-315.625 C-90.99600219726562,-316.3909912109375 -91.5,-313.875 -94.75,-314.375 C-98,-314.875 -98.375,-312.875 -98.875,-312.25 C-99.375,-311.625 -96.375,-307.375 -91.5,-303.25 C-87.625,-299.97100830078125 -86,-301.75 -80.875,-298.875 C-75.75,-296 -76.625,-299.25 -64.75,-296.75 C-52.875,-294.25 -49.125,-299.875 -45,-302.375 C-40.875,-304.875 -42.375,-307.5 -44.625,-308.125 C-46.875,-308.75 -47.125,-310.375 -49.5,-311.625 C-51.875,-312.875 -50.375,-306.875 -52.875,-304.875 C-55.375,-302.875 -58,-302 -62.375,-303.625 C-66.75,-305.25 -68.99600219726562,-304.8420104980469 -72.25,-304.5 C-77,-304 -79.375,-304.5 -81.5,-306.125 C-84.3239974975586,-308.2850036621094 -85.94499969482422,-308.114013671875 -87.25,-309.5 C-89.25,-311.625 -88.375,-314.375 -90,-315.625z"></path></g><g opacity="1" transform="matrix(1,0,0,1,0,-0.5)"><path stroke-linecap="butt" stroke-linejoin="miter" fill-opacity="0" stroke-miterlimit="4" stroke="rgb(253,253,243)" stroke-opacity="1" stroke-width="1" d=" M-91.25,-311.25 C-91.25,-311.25 -90.5,-308 -84.5,-304.75 C-78.5,-301.5 -76.5,-301.5 -69,-302 C-61.5,-302.5 -61.75,-299 -56,-301.5 C-50.25,-304 -49,-306.75 -49,-306.75"></path></g><g opacity="1" transform="matrix(1,0,0,1,-0.5,2.25)"><path stroke-linecap="butt" stroke-linejoin="miter" fill-opacity="0" stroke-miterlimit="4" stroke="rgb(253,253,243)" stroke-opacity="1" stroke-width="1" d=" M-91.25,-311.25 C-91.25,-311.25 -90.5,-308 -84.5,-304.75 C-78.5,-301.5 -76.5,-301.5 -69,-302 C-61.5,-302.5 -61.75,-299 -56,-301.5 C-50.25,-304 -49,-306.75 -49,-306.75"></path></g></g><g style="display: block;" transform="matrix(1,0,0,1,1011.9996948242188,534.9999389648438)" opacity="1"><g opacity="1" transform="matrix(1,0,0,1,0,0)"><path fill="rgb(40,170,226)" fill-opacity="1" d=" M-125.125,271.375 C-125.125,271.375 -122.625,293 -82.125,293.5 C-48.25199890136719,293.9179992675781 -43.5,273.75 -43.5,273.75 C-43.5,273.75 -55.25,280.5 -82.625,280.25 C-111.03199768066406,279.9909973144531 -125.125,271.375 -125.125,271.375z"></path></g></g><g style="display: block;" transform="matrix(-0.8402223587036133,-0.322531133890152,-0.322531133890152,0.8402223587036133,1056.5,590)" opacity="1"><g opacity="1" transform="matrix(1,0,0,1,0,0)"><path fill="rgb(251,176,58)" fill-opacity="1" d=" M61.79800033569336,149.5070037841797 C57.7400016784668,148.7790069580078 61.369998931884766,168.46600341796875 67.71499633789062,175.96600341796875 C80.75,191.375 98.5,189.125 95.78199768066406,175.093994140625 C94.60399627685547,169.01100158691406 81.54299926757812,173.34300231933594 75.27799987792969,165.97500610351562 C66.82099914550781,156.0290069580078 64.12899780273438,149.9250030517578 61.79800033569336,149.5070037841797z"></path></g></g><g style="display: block;" transform="matrix(1,0,0,1,960,542)" opacity="1"><g opacity="1" transform="matrix(1,0,0,1,0,0)"><path fill="rgb(251,194,58)" fill-opacity="1" d=" M26.5,141.5 C-19.5,141.5 -21,175 -19.5,202 C-18,229 -15.355999946594238,262.6600036621094 -4,276.5 C10.909000396728516,294.6709899902344 59,295 78.35199737548828,282.1719970703125 C78.25,281.75 85,279.75 90.75,275.5 C94.74099731445312,272.54998779296875 96.75,268.25 98.25299835205078,262.6969909667969 C88.25,271.25 83,267 83.03399658203125,266.6289978027344 C84.5,256 82,233 78,205 C72.43000030517578,166.00999450683594 72.5,141.5 26.5,141.5z"></path></g></g><g style="display: block;" transform="matrix(1,0,0,1,959.5,543)" opacity="1"><g opacity="1" transform="matrix(1,0,0,1,0,0)"><path fill="rgb(251,176,58)" fill-opacity="1" d=" M61.79800033569336,149.5070037841797 C57.7400016784668,148.7790069580078 61.369998931884766,168.46600341796875 67.71499633789062,175.96600341796875 C80.75,191.375 98.5,189.125 95.78199768066406,175.093994140625 C94.60399627685547,169.01100158691406 81.54299926757812,173.34300231933594 75.27799987792969,165.97500610351562 C66.82099914550781,156.0290069580078 64.12899780273438,149.9250030517578 61.79800033569336,149.5070037841797z"></path></g></g><g style="display: block;" transform="matrix(1,0,0,1,960,542)" opacity="1"><g opacity="1" transform="matrix(1,0,0,1,0,0)"><path fill="rgb(255,255,255)" fill-opacity="1" d=" M-5.938000202178955,159.5 C-18.437999725341797,160 -23.523000717163086,172.1719970703125 -18.5,181.5 C-13.25,191.25 1.25,190 6.5,181 C10.692999839782715,173.81199645996094 6.561999797821045,159 -5.938000202178955,159.5z"></path></g><g opacity="1" transform="matrix(1,0,0,1,0,0)"><path fill="rgb(0,0,0)" fill-opacity="1" d=" M-12.706000328063965,162 C-19.624000549316406,162.5189971923828 -25.25,172.63499450683594 -19.360000610351562,181.9759979248047 C-14.616000175476074,189.5 -4.3379998207092285,189.24099731445312 -4.3379998207092285,189.24099731445312 C2.25,187.6840057373047 1.1959999799728394,185.60899353027344 1.281999945640564,185.55499267578125 C-18.569000244140625,187.6840057373047 -18.027000427246094,167.02200317382812 -12.706000328063965,162z"></path></g></g><g style="display: block;" transform="matrix(1,0,0,1,1005.5,542)" opacity="1"><g opacity="1" transform="matrix(1,0,0,1,0,0)"><path fill="rgb(255,255,255)" fill-opacity="1" d=" M-6.081999778747559,158.40699768066406 C-19.297000885009766,158.93600463867188 -24.673999786376953,171.8040008544922 -19.36400032043457,181.66600036621094 C-13.814000129699707,191.9739990234375 1.5169999599456787,190.65199279785156 7.066999912261963,181.13699340820312 C11.5,173.53799438476562 7.132999897003174,157.8780059814453 -6.081999778747559,158.40699768066406z"></path></g><g opacity="1" transform="matrix(1,0,0,1,0,0)"><path fill="rgb(0,0,0)" fill-opacity="1" d=" M-13.23799991607666,161.0500030517578 C-20.552000045776367,161.5989990234375 -26.5,172.29400634765625 -20.273000717163086,182.1699981689453 C-15.258000373840332,190.12399291992188 -4.392000198364258,189.85000610351562 -4.392000198364258,189.85000610351562 C2.5739998817443848,188.20399475097656 1.4589999914169312,186.00999450683594 1.5499999523162842,185.9530029296875 C-19.437000274658203,188.20399475097656 -18.863000869750977,166.35899353027344 -13.23799991607666,161.0500030517578z"></path></g></g><g style="display: block;" transform="matrix(1,0,0,1,960,542)" opacity="1"><g opacity="1" transform="matrix(1,0,0,1,0,0)"><path fill="rgb(251,176,58)" fill-opacity="1" d=" M13.75,180 C0.25,179.5 -6.25,187.5 -6.5,196.25 C-6.78000020980835,206.0500030517578 -4.25,208 -0.5,208 C3.25,208 7.75,207.5 6.5,199.25 C5.25,191 5.25,188 11.25,188.25 C17.25,188.5 20.25,188.75 18.25,199.5 C16.25,210.25 24.25,210.5 27.75,209 C31.25,207.5 33.25,201 32.75,194.25 C32.25,187.5 27.25,180.5 13.75,180z"></path></g></g><g style="display: block;" transform="matrix(1,0,0,1,960,542)" opacity="1"><g opacity="1" transform="matrix(1,0,0,1,0,0)"><path fill="rgb(0,0,0)" fill-opacity="1" d=" M12.625,186.75 C7.619999885559082,186.86500549316406 5.063000202178955,188.75 4.875,190.81300354003906 C4.64900016784668,193.30299377441406 8.312999725341797,195.25 11.687999725341797,195.31300354003906 C14.937000274658203,195.3730010986328 19.20199966430664,194.61199951171875 19.5,191.43800354003906 C19.687999725341797,189.43800354003906 18.062999725341797,186.625 12.625,186.75z"></path></g></g><g style="display: block;" transform="matrix(0.8799999952316284,0,0,0.8799999952316284,914.4450073242188,557.6099853515625)" opacity="1"><g opacity="1" transform="matrix(1,0,0,1,0,0)"><path fill="rgb(251,176,58)" fill-opacity="1" d=" M53.75,245.5 C45.75,243.75 47.5,246.75 46.75,253.25 C46,259.75 43.5,266.5 45.75,269 C48,271.5 57,270.75 59,263.5 C60.99599838256836,256.2659912109375 61.75,247.25 53.75,245.5z"></path></g><g opacity="1" transform="matrix(1,0,0,1,0,0)"><path fill="rgb(246,163,33)" fill-opacity="1" d=" M53.25,245.75 C50.75,243.75 42.5,244.25 42.25,247.5 C41.957000732421875,251.31300354003906 44.25,253.25 44.25,253.25 C44.25,253.25 41.75,254 41.75,257.75 C41.75,261.5 44.25,262 44.25,262 C44.25,262 41.599998474121094,264.5050048828125 41.75,266.75 C42,270.5 45.98400115966797,269.75 48,269.75 C51.5,269.75 52.76300048828125,267.5669860839844 53.75,265 C55,261.75 51.5,260.75 51.5,260.75 C51.5,260.75 54.5,258 54.5,255 C54.5,252 51.75,251.75 51.75,251.75 C51.75,251.75 55.75,247.75 53.25,245.75z"></path></g></g><g style="display: block;" transform="matrix(1,0,0,1,964,542)" opacity="1"><g opacity="1" transform="matrix(1,0,0,1,0,0)"><path stroke-linecap="round" stroke-linejoin="miter" fill-opacity="0" stroke-miterlimit="4" stroke="rgb(251,176,58)" stroke-opacity="1" stroke-width="7" d=" M70,207 C70,207 57.00400161743164,220.07699584960938 44.75,227.25 C34.5,233.25 13,239.75 3.5,242.25"></path></g></g><g style="display: block;" transform="matrix(1,0,0,1,956,540)" opacity="1"><g opacity="1" transform="matrix(1,0,0,1,0,0)"><path stroke-linecap="round" stroke-linejoin="round" fill-opacity="0" stroke="rgb(251,195,58)" stroke-opacity="1" stroke-width="7" d=" M74,277 C74,277 53.01599884033203,299 52.75,307.5 C52.5,315.5 77.6969985961914,328.3949890136719 79.5,332 C79.5,332 70,334.5 70,334.5"></path></g></g><g style="display: block;" transform="matrix(1,0,0,1,890.5,537)" opacity="1"><g opacity="1" transform="matrix(1,0,0,1,0,0)"><path stroke-linecap="round" stroke-linejoin="round" fill-opacity="0" stroke="rgb(251,195,58)" stroke-opacity="1" stroke-width="7" d=" M74,277 C74,277 55.63199996948242,300.010009765625 56,307 C56.5,316.5 77.6969985961914,328.3949890136719 79.5,332 C79.5,332 70,334.5 70,334.5"></path></g></g><g style="display: none;"><g><path></path></g></g><g style="display: none;"><g><path></path></g><g><path></path></g></g><g style="display: none;"><g><path></path></g><g><path stroke-linecap="butt" stroke-linejoin="miter" fill-opacity="0" stroke-miterlimit="4"></path></g><g><path stroke-linecap="butt" stroke-linejoin="miter" fill-opacity="0" stroke-miterlimit="4"></path></g></g><g style="display: none;"><g><path stroke-linecap="round" stroke-linejoin="miter" fill-opacity="0" stroke-miterlimit="4"></path></g></g><g style="display: none;"><g><path></path></g></g><g style="display: none;"><g><path></path></g><g><path></path></g></g><g style="display: none;"><g><path></path></g></g><g style="display: none;"><g><path></path></g></g><g style="display: none;"><g><path></path></g></g><g style="display: none;"><g><path></path></g><g><path></path></g></g><g style="display: none;"><g><path></path></g><g><path></path></g></g><g style="display: none;"><g><path></path></g></g><g style="display: none;"><g><path></path></g></g><g style="display: none;"><g><path></path></g><g><path></path></g><g><path stroke-linecap="butt" stroke-linejoin="miter" fill-opacity="0" stroke-miterlimit="4"></path></g><g><path stroke-linecap="butt" stroke-linejoin="miter" fill-opacity="0" stroke-miterlimit="4"></path></g></g><g style="display: none;"><g><path stroke-linecap="round" stroke-linejoin="miter" fill-opacity="0" stroke-miterlimit="4"></path></g></g><g style="display: none;"><g><path stroke-linecap="round" stroke-linejoin="round" fill-opacity="0"></path></g></g><g style="display: none;"><g><path stroke-linecap="round" stroke-linejoin="round" fill-opacity="0"></path></g></g><g style="display: none;"><g><path></path></g></g><g style="display: none;"><g><path></path></g><g><path></path></g></g><g style="display: none;"><g><path></path></g><g><path stroke-linecap="butt" stroke-linejoin="miter" fill-opacity="0" stroke-miterlimit="4"></path></g><g><path stroke-linecap="butt" stroke-linejoin="miter" fill-opacity="0" stroke-miterlimit="4"></path></g></g><g style="display: none;"><g><path></path></g></g></g><g clip-path="url(#lottie-id)" style="display: none;" transform="matrix(1.5,0,0,1.5,-480,-390)" opacity="1"><g style="display: none;"><g><path stroke-linecap="round" stroke-linejoin="miter" fill-opacity="0" stroke-miterlimit="4"></path></g></g><g style="display: none;"><g><path></path></g></g><g style="display: none;"><g><path></path></g><g><path></path></g></g><g style="display: none;"><g><path></path></g></g><g style="display: none;"><g><path></path></g><g><path></path></g></g><g style="display: none;"><g><path></path></g><g><path stroke-linecap="butt" stroke-linejoin="miter" fill-opacity="0" stroke-miterlimit="4"></path></g><g><path stroke-linecap="butt" stroke-linejoin="miter" fill-opacity="0" stroke-miterlimit="4"></path></g></g><g style="display: none;"><g><path></path></g></g><g style="display: none;"><g><path></path></g></g><g style="display: none;"><g><path></path></g></g><g style="display: none;"><g><path></path></g></g><g style="display: none;"><g><path></path></g><g><path></path></g></g><g style="display: none;"><g><path></path></g><g><path></path></g></g><g style="display: none;"><g><path></path></g></g><g style="display: none;"><g><path></path></g></g><g style="display: none;"><g><path></path></g><g><path></path></g></g><g style="display: none;"><g><path stroke-linecap="round" stroke-linejoin="miter" fill-opacity="0" stroke-miterlimit="4"></path></g></g><g style="display: none;"><g><path stroke-linecap="round" stroke-linejoin="round" fill-opacity="0"></path></g></g><g style="display: none;"><g><path stroke-linecap="round" stroke-linejoin="round" fill-opacity="0"></path></g></g><g style="display: none;"><g><path></path></g></g><g style="display: none;"><g><path></path></g><g><path></path></g></g><g style="display: none;"><g><path></path></g><g><path stroke-linecap="butt" stroke-linejoin="miter" fill-opacity="0" stroke-miterlimit="4"></path></g><g><path stroke-linecap="butt" stroke-linejoin="miter" fill-opacity="0" stroke-miterlimit="4"></path></g></g><g style="display: block;" transform="matrix(0.9975640773773193,-0.06975647062063217,0.06975647062063217,0.9975640773773193,823.9732666015625,546.6824951171875)" opacity="1"><g opacity="1" transform="matrix(1,0,0,1,0,0)"><path stroke-linecap="round" stroke-linejoin="miter" fill-opacity="0" stroke-miterlimit="4" stroke="rgb(251,176,58)" stroke-opacity="1" stroke-width="7" d=" M116.24910736083984,189.08944702148438 C116.24910736083984,189.08944702148438 106.15455627441406,179.45944213867188 98.94499969482422,175.54388427734375 C93.73500061035156,165.28155517578125 90.59388732910156,156.03944396972656 87.7893295288086,152.92767333984375"></path></g></g><g style="display: block;" transform="matrix(0.9271838665008545,-0.3746066093444824,0.3746066093444824,0.9271838665008545,830.7163696289062,421.9205017089844)" opacity="1"><g opacity="1" transform="matrix(1,0,0,1,0,0)"><path fill="rgb(40,170,226)" fill-opacity="1" d=" M7.514888763427734,276.17266845703125 C7.4126667976379395,272.2143249511719 0.10322222113609314,272.4748840332031 -9.302332878112793,275.6510009765625 C-18.707889556884766,278.8271179199219 -31.178443908691406,283.0048828125 -31.178443908691406,283.0048828125 C-31.178443908691406,283.0048828125 -37.83566665649414,284.9626770019531 -35.74566650390625,288.3837890625 C-33.65566635131836,291.8049011230469 -24.01788902282715,286.1643371582031 -24.01788902282715,286.1643371582031 C-24.01788902282715,286.1643371582031 -16.75955581665039,282.97265625 -7.785110950469971,280.71600341796875 C0.9088888764381409,278.5298767089844 7.60099983215332,280.168212890625 7.514888763427734,276.17266845703125z"></path></g></g><g style="display: block;" transform="matrix(0.9396926164627075,0.3420201539993286,-0.3420201539993286,0.9396926164627075,1020.3946533203125,443.00933837890625)" opacity="1"><g opacity="1" transform="matrix(1,0,0,1,23,-15.5)"><path fill="rgb(251,176,58)" fill-opacity="1" d=" M-27.516889572143555,276.8412170410156 C-28.913555145263672,278.9976806640625 -32.233333587646484,278.09698486328125 -34.24311065673828,280.59832763671875 C-36.65355682373047,283.597900390625 -34.30588912963867,284.33856201171875 -33.9454460144043,285.7763366699219 C-33.344112396240234,288.1753234863281 -35.27944564819336,290.2534484863281 -35.27944564819336,290.2534484863281 C-35.27944564819336,290.2534484863281 -32.92533493041992,293.6488952636719 -28.7413330078125,293.1567687988281 C-25.310888290405273,292.753662109375 -25.993667602539062,288.5968933105469 -25.993667602539062,288.5968933105469 C-25.993667602539062,288.5968933105469 -23.837223052978516,287.2664489746094 -22.943666458129883,285.2550048828125 C-21.915000915527344,282.9391174316406 -23.11255645751953,281.5671081542969 -23.11255645751953,281.5671081542969 C-23.11255645751953,281.5671081542969 -19.62611198425293,282.3930969238281 -20.82266616821289,277.767333984375 C-22.01966667175293,273.14154052734375 -26.366443634033203,275.0639953613281 -27.516889572143555,276.8412170410156z"></path></g><g opacity="1" transform="matrix(1,0,0,1,23,-15.5)"><path fill="rgb(251,195,58)" fill-opacity="1" d=" M-32.67911148071289,277.0776672363281 C-31.585111618041992,274.0713195800781 -36.81444549560547,272.83233642578125 -41.204776763916016,279.1916809082031 C-45.59511184692383,285.5509948730469 -39.76077651977539,289.2265625 -37.962554931640625,285.4490051269531 C-36.46666717529297,282.3066711425781 -33.773109436035156,280.0840148925781 -32.67911148071289,277.0776672363281z"></path></g></g><g style="display: block;" transform="matrix(1,0,0,1,963.7314453125,523.8004760742188)" opacity="1"><g opacity="1" transform="matrix(1,0,0,1,0,0)"><path fill="rgb(251,176,58)" fill-opacity="1" d=" M-0.02666666731238365,136.80221557617188 C-0.02666666731238365,136.80221557617188 -14.933333396911621,143.14544677734375 -18.30933380126953,151.94644165039062 C-23.58333396911621,165.69444274902344 -23.09433364868164,174.9534454345703 -17.365333557128906,176.9834442138672 C-7.913333415985107,180.3324432373047 -8.419333457946777,162.19744873046875 -9.541333198547363,153.80044555664062 C-10.872333526611328,143.83843994140625 -0.02666666731238365,136.80221557617188 -0.02666666731238365,136.80221557617188z"></path></g></g><g style="display: block;" transform="matrix(1,0,0,1,963.7314453125,523.8004760742188)" opacity="1"><g opacity="1" transform="matrix(1,0,0,1,0,0)"><path fill="rgb(251,194,58)" fill-opacity="1" d=" M33.27777862548828,122.63888549804688 C-9.652777671813965,121.63944244384766 -9.809778213500977,156.27911376953125 -16.58333396911621,193.3333282470703 C-23.045555114746094,227.9788818359375 -16.902111053466797,267.14166259765625 -5.30555534362793,280.77777099609375 C6.1817779541015625,294.4093322753906 45.5,298.1666564941406 61.5880012512207,290.3296813964844 C61.70800018310547,289.91265869140625 66.75,291.9166564941406 70.16300201416016,294.16265869140625 C74.30899810791016,296.8906555175781 81.27777862548828,302.0555419921875 88.35033416748047,303.88555908203125 C85,295.8333435058594 76.88200378417969,286.4426574707031 77.09500122070312,286.13665771484375 C88.5,269.1666564941406 90.50833129882812,203.7516632080078 80.5,168.61111450195312 C72.13688659667969,139.62222290039062 63.66666793823242,123.33333587646484 33.27777862548828,122.63888549804688z"></path></g></g><g style="display: block;" transform="matrix(1,0,0,1,963.2314453125,524.8004760742188)" opacity="1"><g opacity="1" transform="matrix(1,0,0,1,0,0)"><path fill="rgb(251,176,58)" fill-opacity="1" d=" M63.84944534301758,134.5218963623047 C63.386444091796875,135.42388916015625 66.05244445800781,148.33189392089844 68.33844757080078,154.28689575195312 C73.76044464111328,168.4128875732422 74.51444244384766,179.11488342285156 82.91844177246094,174.82789611816406 C91.2304458618164,170.587890625 84.929443359375,156.64988708496094 80.32344818115234,149.20889282226562 C74.30144500732422,139.47988891601562 64.60944366455078,133.0428924560547 63.84944534301758,134.5218963623047z"></path></g></g><g style="display: block;" transform="matrix(1,0,0,1,963.7314453125,523.8004760742188)" opacity="1"><g opacity="1" transform="matrix(1,0,0,1,0,0)"><path fill="rgb(255,255,255)" fill-opacity="1" d=" M3.986555576324463,132.5874481201172 C-7.7387776374816895,135.5205535888672 -13.396666526794434,150.7388916015625 -9.391666412353516,160.7259979248047 C-5.205666542053223,171.16477966308594 8.445333480834961,166.9765625 14.022110939025879,155.4443359375 C18.475778579711914,146.23367309570312 15.711889266967773,129.65432739257812 3.986555576324463,132.5874481201172z"></path></g><g opacity="1" transform="matrix(1,0,0,1,0,0)"><path fill="rgb(0,0,0)" fill-opacity="1" d=" M-2.527444362640381,136.78721618652344 C-9.034333229064941,138.69422912597656 -15.046333312988281,151.60589599609375 -10.231444358825684,161.44577026367188 C-6.353555679321289,169.3707733154297 3.276444435119629,167.1366729736328 3.276444435119629,167.1366729736328 C9.552666664123535,164.0755615234375 8.719778060913086,161.84043884277344 8.804222106933594,161.7615509033203 C-9.91533374786377,167.98533630371094 -7.875222206115723,143.67066955566406 -2.527444362640381,136.78721618652344z"></path></g></g><g style="display: block;" transform="matrix(1,0,0,1,1009.2314453125,523.8004760742188)" opacity="1"><g opacity="1" transform="matrix(1,0,0,1,0,0)"><path fill="rgb(255,255,255)" fill-opacity="1" d=" M7.990110874176025,133.2013397216797 C-4.055110931396484,132.26922607421875 -9.766777992248535,149.51866149902344 -5.413222312927246,160.17010498046875 C-0.862333357334137,171.3024444580078 13.144332885742188,171.66156005859375 18.65155601501465,162.57289123535156 C23.049999237060547,155.31443786621094 20.03533363342285,134.13343811035156 7.990110874176025,133.2013397216797z"></path></g><g opacity="1" transform="matrix(1,0,0,1,0,0)"><path fill="rgb(0,0,0)" fill-opacity="1" d=" M1.3546667098999023,135.10110473632812 C-5.324110984802246,134.8465576171875 -11.450778007507324,149.8148956298828 -6.263777732849121,160.58233642578125 C-2.08644437789917,169.2544403076172 7.809000015258789,170.1840057373047 7.809000015258789,170.1840057373047 C14.223555564880371,169.281005859375 13.316333770751953,166.91921997070312 13.401333808898926,166.87100219726562 C-2.940000057220459,168.5342254638672 -4.017777919769287,139.89088439941406 1.3546667098999023,135.10110473632812z"></path></g></g><g style="display: block;" transform="matrix(1,0,0,1,966.7869873046875,479.0782470703125)" opacity="1"><g opacity="1" transform="matrix(1,0,0,1,0,0)"><path fill="rgb(251,176,58)" fill-opacity="1" d=" M17.13888931274414,199.77777099609375 C2.6388888359069824,199.61111450195312 -1.6944444179534912,209.94444274902344 -1.9444444179534912,218.69444274902344 C-2.2244443893432617,228.49444580078125 0.3055555522441864,232 4.05555534362793,232 C7.80555534362793,232 12.027777671813965,230.1666717529297 10.777777671813965,221.9166717529297 C9.527777671813965,213.6666717529297 9.972222328186035,206.77777099609375 15.972222328186035,207.02777099609375 C21.97222137451172,207.27777099609375 23.66288948059082,209.89222717285156 22.41666603088379,220.72222900390625 C21.19444465637207,230.69444274902344 27.33333396911621,234.38888549804688 30.83333396911621,232.88888549804688 C34.33333206176758,231.38888549804688 35.77777862548828,222.77777099609375 34.83333206176758,215.5833282470703 C33.98400115966797,208.8800048828125 31.197555541992188,199.95155334472656 17.13888931274414,199.77777099609375z"></path></g></g><g style="display: block;" transform="matrix(1,0,0,1,966.7869873046875,479.0782470703125)" opacity="1"><g opacity="1" transform="matrix(1,0,0,1,0,0)"><path fill="rgb(0,0,0)" fill-opacity="1" d=" M16.15999984741211,207.14456176757812 C11.666999816894531,207.2772216796875 9.371000289916992,209.4562225341797 9.20300006866455,211.83999633789062 C9,214.71800231933594 12.288999557495117,216.9695587158203 15.319000244140625,217.0415496826172 C18.236000061035156,217.11111450195312 22.065000534057617,216.23167419433594 22.332000732421875,212.56256103515625 C22.5,210.2507781982422 21.041000366210938,207 16.15999984741211,207.14456176757812z"></path></g></g><g style="display: block;" transform="matrix(-0.17460757493972778,-0.8625034689903259,0.8625034689903259,-0.17460757493972778,863.3576049804688,866.806396484375)" opacity="1"><g opacity="1" transform="matrix(1,0,0,1,0,0)"><path fill="rgb(251,176,58)" fill-opacity="1" d=" M53.75,245.5 C45.75,243.75 47.5,246.75 46.75,253.25 C46,259.75 43.5,266.5 45.75,269 C48,271.5 57,270.75 59,263.5 C60.99599838256836,256.2659912109375 61.75,247.25 53.75,245.5z"></path></g><g opacity="1" transform="matrix(1,0,0,1,0,0)"><path fill="rgb(251,195,58)" fill-opacity="1" d=" M53.25,245.75 C50.75,243.75 42.5,244.25 42.25,247.5 C41.957000732421875,251.31300354003906 44.25,253.25 44.25,253.25 C44.25,253.25 41.75,254 41.75,257.75 C41.75,261.5 44.25,262 44.25,262 C44.25,262 41.599998474121094,264.5050048828125 41.75,266.75 C42,270.5 45.98400115966797,269.75 48,269.75 C51.5,269.75 52.76300048828125,267.5669860839844 53.75,265 C55,261.75 51.5,260.75 51.5,260.75 C51.5,260.75 54.5,258 54.5,255 C54.5,252 51.75,251.75 51.75,251.75 C51.75,251.75 55.75,247.75 53.25,245.75z"></path></g><g opacity="1" transform="matrix(1,0,0,1,0,0)"><path stroke-linecap="butt" stroke-linejoin="miter" fill-opacity="0" stroke-miterlimit="4" stroke="rgb(251,210,17)" stroke-opacity="1" stroke-width="1" d=" M44.25,262.5 C48.91400146484375,263.4330139160156 51.25,261.25 51.25,261.25"></path></g><g opacity="1" transform="matrix(1,0,0,1,0,0)"><path stroke-linecap="butt" stroke-linejoin="miter" fill-opacity="0" stroke-miterlimit="4" stroke="rgb(251,210,17)" stroke-opacity="1" stroke-width="1" d=" M51.5,251.75 C50.25,253.25 46,254 44,253.25"></path></g></g><g style="display: block;" transform="matrix(0.5299192667007446,-0.8480480909347534,0.8480480909347534,0.5299192667007446,820.879150390625,680.5880737304688)" opacity="1"><g opacity="1" transform="matrix(1,0,0,1,0,0)"><path stroke-linecap="round" stroke-linejoin="miter" fill-opacity="0" stroke-miterlimit="4" stroke="rgb(251,176,58)" stroke-opacity="1" stroke-width="7" d=" M86.40350341796875,205.8885040283203 C86.40350341796875,205.8885040283203 79.91950225830078,221.4320068359375 77.20549774169922,231.86900329589844 C74.10399627685547,242.12399291992188 59.80849838256836,261.239990234375 55.52949905395508,263.25201416015625"></path></g></g><g style="display: block;" transform="matrix(1,0,0,1,960,540)" opacity="1"><g opacity="1" transform="matrix(1,0,0,1,0,0)"><path stroke-linecap="round" stroke-linejoin="round" fill-opacity="0" stroke="rgb(251,195,58)" stroke-opacity="1" stroke-width="7" d=" M64.25,274.75 C64.25,274.75 63,294 67,306 C69.59850311279297,313.5115051269531 77.6969985961914,328.3949890136719 79.5,332 C79.5,332 79,336.5 79,336.5"></path></g></g><g style="display: block;" transform="matrix(1,0,0,1,890.5,537)" opacity="1"><g opacity="1" transform="matrix(1,0,0,1,0,0)"><path stroke-linecap="round" stroke-linejoin="round" fill-opacity="0" stroke="rgb(251,195,58)" stroke-opacity="1" stroke-width="7" d=" M76,272 C76,272 70.1675033569336,288.04400634765625 68.25,303 C66.88400268554688,313.052001953125 72.1969985961914,328.8949890136719 74,332.5 C74,332.5 65.25,334.5 65.25,334.5"></path></g></g><g style="display: block;" transform="matrix(0.8338858485221863,-0.5519369840621948,0.5519369840621948,0.8338858485221863,801.161376953125,444.45123291015625)" opacity="1"><g opacity="1" transform="matrix(1,0,0,1,0,0)"><path fill="rgb(31,135,180)" fill-opacity="1" d=" M-85.625,265 C-108,264.9100036621094 -121.625,266.625 -123.875,270.625 C-126.125,274.625 -108.75,286.5 -83.125,285.75 C-49.8849983215332,284.7770080566406 -46.75,278.125 -44.5,273.875 C-42.25,269.625 -54.625,265.125 -85.625,265z"></path></g></g><g style="display: block;" transform="matrix(0.8338858485221863,-0.5519369840621948,0.5519369840621948,0.8338858485221863,801.161376953125,444.45123291015625)" opacity="1"><g opacity="1" transform="matrix(1,0,0,1,0,0)"><path fill="rgb(251,176,58)" fill-opacity="1" d=" M-118.5,273.5 C-118.5,273.5 -124.5,284.5 -82.5,284.5 C-40.999000549316406,284.5 -49.25,274.75 -49.25,274.75 C-49.25,274.75 -52.25,272 -78,274.75 C-103.75,277.5 -118.5,273.5 -118.5,273.5z"></path></g><g opacity="1" transform="matrix(1,0,0,1,0,0)"><path fill="rgb(251,195,58)" fill-opacity="1" d=" M-85.12999725341797,269.8039855957031 C-104.6709976196289,269.75 -116.56999969482422,270.77301025390625 -118.53500366210938,273.1600036621094 C-120.5,275.5469970703125 -105.32599639892578,282.6310119628906 -82.9469985961914,282.1839904785156 C-53.917999267578125,281.60400390625 -51.18000030517578,277.635009765625 -49.21500015258789,275.0989990234375 C-47.25,272.56298828125 -58.05699920654297,269.8789978027344 -85.12999725341797,269.8039855957031z"></path></g></g><g style="display: block;" transform="matrix(0.8338858485221863,-0.5519369840621948,0.5519369840621948,0.8338858485221863,1112.8050537109375,934.3172607421875)" opacity="1"><g opacity="1" transform="matrix(1,0,0,1,0,0)"><path fill="rgb(255,58,43)" fill-opacity="1" d=" M-90,-315.625 C-90.99600219726562,-316.3909912109375 -91.5,-313.875 -94.75,-314.375 C-98,-314.875 -98.375,-312.875 -98.875,-312.25 C-99.375,-311.625 -96.375,-307.375 -91.5,-303.25 C-87.625,-299.97100830078125 -86,-301.75 -80.875,-298.875 C-75.75,-296 -76.625,-299.25 -64.75,-296.75 C-52.875,-294.25 -49.125,-299.875 -45,-302.375 C-40.875,-304.875 -42.375,-307.5 -44.625,-308.125 C-46.875,-308.75 -47.125,-310.375 -49.5,-311.625 C-51.875,-312.875 -50.375,-306.875 -52.875,-304.875 C-55.375,-302.875 -58,-302 -62.375,-303.625 C-66.75,-305.25 -68.99600219726562,-304.8420104980469 -72.25,-304.5 C-77,-304 -79.375,-304.5 -81.5,-306.125 C-84.3239974975586,-308.2850036621094 -85.94499969482422,-308.114013671875 -87.25,-309.5 C-89.25,-311.625 -88.375,-314.375 -90,-315.625z"></path></g><g opacity="1" transform="matrix(1,0,0,1,0,-0.5)"><path stroke-linecap="butt" stroke-linejoin="miter" fill-opacity="0" stroke-miterlimit="4" stroke="rgb(253,253,243)" stroke-opacity="1" stroke-width="1" d=" M-91.25,-311.25 C-91.25,-311.25 -90.5,-308 -84.5,-304.75 C-78.5,-301.5 -76.5,-301.5 -69,-302 C-61.5,-302.5 -61.75,-299 -56,-301.5 C-50.25,-304 -49,-306.75 -49,-306.75"></path></g><g opacity="1" transform="matrix(1,0,0,1,-0.5,2.25)"><path stroke-linecap="butt" stroke-linejoin="miter" fill-opacity="0" stroke-miterlimit="4" stroke="rgb(253,253,243)" stroke-opacity="1" stroke-width="1" d=" M-91.25,-311.25 C-91.25,-311.25 -90.5,-308 -84.5,-304.75 C-78.5,-301.5 -76.5,-301.5 -69,-302 C-61.5,-302.5 -61.75,-299 -56,-301.5 C-50.25,-304 -49,-306.75 -49,-306.75"></path></g></g><g style="display: block;" transform="matrix(0.8338858485221863,-0.5519369840621948,0.5519369840621948,0.8338858485221863,801.161376953125,444.45123291015625)" opacity="1"><g opacity="1" transform="matrix(1,0,0,1,0,0)"><path fill="rgb(40,170,226)" fill-opacity="1" d=" M-125.125,271.375 C-125.125,271.375 -122.625,293 -82.125,293.5 C-48.25199890136719,293.9179992675781 -43.5,273.75 -43.5,273.75 C-43.5,273.75 -55.25,280.5 -82.625,280.25 C-111.03199768066406,279.9909973144531 -125.125,271.375 -125.125,271.375z"></path></g></g></g><g clip-path="url(#lottie-id)" style="display: none;"><g style="display: none;"><g><path stroke-linecap="round" stroke-linejoin="miter" fill-opacity="0" stroke-miterlimit="4"></path></g></g><g style="display: none;"><g><path></path></g></g><g style="display: none;"><g><path></path></g><g><path></path></g></g><g style="display: none;"><g><path></path></g></g><g style="display: none;"><g><path></path></g><g><path></path></g></g><g style="display: none;"><g><path></path></g><g><path stroke-linecap="butt" stroke-linejoin="miter" fill-opacity="0" stroke-miterlimit="4"></path></g><g><path stroke-linecap="butt" stroke-linejoin="miter" fill-opacity="0" stroke-miterlimit="4"></path></g></g><g style="display: none;"><g><path></path></g></g><g style="display: none;"><g><path></path></g></g><g style="display: none;"><g><path></path></g></g><g style="display: none;"><g><path></path></g></g><g style="display: none;"><g><path></path></g><g><path></path></g></g><g style="display: none;"><g><path></path></g><g><path></path></g></g><g style="display: none;"><g><path></path></g></g><g style="display: none;"><g><path></path></g></g><g style="display: none;"><g><path></path></g><g><path></path></g></g><g style="display: none;"><g><path stroke-linecap="round" stroke-linejoin="miter" fill-opacity="0" stroke-miterlimit="4"></path></g></g><g style="display: none;"><g><path stroke-linecap="round" stroke-linejoin="round" fill-opacity="0"></path></g></g><g style="display: none;"><g><path stroke-linecap="round" stroke-linejoin="round" fill-opacity="0"></path></g></g><g style="display: none;"><g><path></path></g></g><g style="display: none;"><g><path></path></g><g><path></path></g></g><g style="display: none;"><g><path></path></g><g><path stroke-linecap="butt" stroke-linejoin="miter" fill-opacity="0" stroke-miterlimit="4"></path></g><g><path stroke-linecap="butt" stroke-linejoin="miter" fill-opacity="0" stroke-miterlimit="4"></path></g></g><g style="display: none;"><g><path stroke-linecap="round" stroke-linejoin="miter" fill-opacity="0" stroke-miterlimit="4"></path></g></g><g style="display: none;"><g><path></path></g></g><g style="display: none;"><g><path></path></g><g><path></path></g></g><g style="display: none;"><g><path></path></g></g><g style="display: none;"><g><path></path></g></g><g style="display: none;"><g><path></path></g></g><g style="display: none;"><g><path></path></g><g><path></path></g></g><g style="display: none;"><g><path></path></g><g><path></path></g></g><g style="display: none;"><g><path></path></g></g><g style="display: none;"><g><path></path></g></g><g style="display: none;"><g><path></path></g><g><path></path></g><g><path stroke-linecap="butt" stroke-linejoin="miter" fill-opacity="0" stroke-miterlimit="4"></path></g><g><path stroke-linecap="butt" stroke-linejoin="miter" fill-opacity="0" stroke-miterlimit="4"></path></g></g><g style="display: none;"><g><path stroke-linecap="round" stroke-linejoin="miter" fill-opacity="0" stroke-miterlimit="4"></path></g></g><g style="display: none;"><g><path stroke-linecap="round" stroke-linejoin="round" fill-opacity="0"></path></g></g><g style="display: none;"><g><path stroke-linecap="round" stroke-linejoin="round" fill-opacity="0"></path></g></g><g style="display: none;"><g><path></path></g></g><g style="display: none;"><g><path></path></g><g><path></path></g></g><g style="display: none;"><g><path></path></g><g><path stroke-linecap="butt" stroke-linejoin="miter" fill-opacity="0" stroke-miterlimit="4"></path></g><g><path stroke-linecap="butt" stroke-linejoin="miter" fill-opacity="0" stroke-miterlimit="4"></path></g></g><g style="display: none;"><g><path></path></g></g></g><g clip-path="url(#lottie-id)" style="display: block;" transform="matrix(1,0,0,1,0,0)" opacity="1"><g style="display: block;" transform="matrix(1,0,0,1,15.75,39.75)" opacity="1"><g opacity="1" transform="matrix(1,0,0,1,956.25,536.25)"><path fill="rgb(240,180,35)" fill-opacity="1" d=" M-1021.8176879882812,-324.1629943847656 C-1700,515.4559936523438 -304.0746765136719,1336.0009765625 203.99099731445312,795.2210083007812 C630.2169799804688,341.54998779296875 991.541015625,763.0423583984375 1083.58837890625,-4.144999980926514 C1221.1710205078125,-497.8739929199219 932.89501953125,-949.0900268554688 169.8350067138672,-614.1729736328125 C-79.27566528320312,-504.8349914550781 -768.5206909179688,-637.516357421875 -1021.8176879882812,-324.1629943847656z"></path></g></g><g style="display: block;" transform="matrix(1,0,0,1,-0.25,-0.25)" opacity="1"><g opacity="1" transform="matrix(1,0,0,1,960.25,540.25)"><path fill="rgb(250,195,58)" fill-opacity="1" d=" M-1021.8176879882812,-324.1629943847656 C-1700,515.4559936523438 -304.0746765136719,1336.0009765625 203.99099731445312,795.2210083007812 C630.2169799804688,341.54998779296875 991.541015625,763.0423583984375 1083.58837890625,-4.144999980926514 C1221.1710205078125,-497.8739929199219 932.89501953125,-949.0900268554688 169.8350067138672,-614.1729736328125 C-79.27566528320312,-504.8349914550781 -768.5206909179688,-637.516357421875 -1021.8176879882812,-324.1629943847656z"></path></g></g><g clip-path="url(#lottie-id)" style="display: block;" transform="matrix(1,0,0,1,0,0)" opacity="1"><g style="display: none;"><g><path></path></g><g><path></path></g><g><path></path></g><g><path></path></g><g><path></path></g><g><path></path></g></g><g style="display: block;" transform="matrix(1,0,0,1,380.0190124511719,249.75)" opacity="1"><g opacity="1" transform="matrix(1,0,0,1,121.83300018310547,180.48899841308594)"><path fill="rgb(255,238,60)" fill-opacity="1" d=" M-59.25899887084961,-5.511000156402588 C-65.9990005493164,1.2799999713897705 -75.0199966430664,29.94700050354004 -75.0199966430664,29.94700050354004 C-66,36.994998931884766 -53.974998474121094,15.451000213623047 -37.60499954223633,15.192999839782715 C4.2129998207092285,14.53499984741211 -5.728000164031982,50.84299850463867 22.534000396728516,47.7859992980957 C42.34700012207031,45.643001556396484 46.9640007019043,17.22100067138672 56.209999084472656,5.925000190734863 C66.49600219726562,-6.642000198364258 91.62799835205078,12.847000122070312 95.66600036621094,1.281000018119812 C95.66600036621094,1.281000018119812 64.63899993896484,-30.493999481201172 64.63899993896484,-30.493999481201172"></path></g><g opacity="1" transform="matrix(1,0,0,1,177.0449981689453,90.99400329589844)"><path fill="rgb(241,226,47)" fill-opacity="1" d=" M9.977999687194824,62.805999755859375 C17.176000595092773,72.28700256347656 39.92900085449219,94.12124633789062 40.45500183105469,90.7760009765625 C43.32550048828125,78.21524810791016 27.242000579833984,67.9000015258789 28.625999450683594,55.73899841308594 C30.09000015258789,42.867000579833984 41.8120002746582,44.143001556396484 40.33000183105469,23.506000518798828 C39.06700134277344,5.918000221252441 20.93600082397461,-11.221750259399414 17.72599983215332,-19.62700080871582 C11.93850040435791,-33.6297492980957 10.243749618530273,-39.423500061035156 12.072999954223633,-55.79600143432617 C14.864999771118164,-76.65775299072266 17.01099967956543,-88.72000122070312 11.722999572753906,-93.59400177001953 C11.722999572753906,-93.59400177001953 -11.583000183105469,-66.60299682617188 -11.583000183105469,-66.60299682617188"></path></g><g opacity="1" transform="matrix(1,0,0,1,29.530000686645508,119.82599639892578)"><path fill="rgb(241,226,47)" fill-opacity="1" d=" M33.625,57.95199966430664 C33.625,57.95199966430664 17.283000946044922,90.61000061035156 17.283000946044922,90.61000061035156 C8.793000221252441,80.86399841308594 23.343000411987305,47.116249084472656 5.993000030517578,35.98400115966797 C-11.608499526977539,24.711999893188477 -24.712749481201172,-0.0572500005364418 -6.48199987411499,-22.479000091552734 C2.6797499656677246,-35.0932502746582 -5.535999774932861,-49.20899963378906 -17.417999267578125,-61.27000045776367 C-31.780000686645508,-75.8489990234375 -29.073999404907227,-85.12799835205078 -29.073999404907227,-85.12799835205078 C-29.073999404907227,-85.12799835205078 4.684999942779541,-69.59500122070312 4.684999942779541,-69.59500122070312"></path></g><g opacity="1" transform="matrix(1,0,0,1,87.56999969482422,28.364999771118164)"><path fill="rgb(255,238,60)" fill-opacity="1" d=" M-52.68199920654297,23.29199981689453 C-52.68199920654297,23.29199981689453 -87.11399841308594,6.333000183105469 -87.11399841308594,6.333000183105469 C-87.11399841308594,-2.809999942779541 -52.47999954223633,4.105999946594238 -33.36199951171875,-1.0750000476837158 C-15.031000137329102,-6.043000221252441 -21.889999389648438,-20.152000427246094 1.444000005722046,-24.781999588012695 C21.454999923706055,-28.753000259399414 37.05099868774414,-11.604999542236328 51.47200012207031,-21.784000396728516 C72.73500061035156,-36.792999267578125 92.81700134277344,-37.6150016784668 101.197998046875,-30.964000701904297 C101.197998046875,-30.964000701904297 77.89099884033203,-3.9749999046325684 77.89099884033203,-3.9749999046325684 C60.41699981689453,1.5420000553131104 -21.636999130249023,16.910999298095703 -52.68199920654297,23.29199981689453z"></path></g><g opacity="1" transform="matrix(1,0,0,1,108.22699737548828,99.58100128173828)"><path fill="rgb(255,241,94)" fill-opacity="1" d=" M-45.071998596191406,78.1969985961914 C-26.948999404907227,75.34500122070312 57.505001068115234,60.814998626708984 78.79499816894531,54.21900177001953 C75.55500030517578,24.5939998626709 90.08300018310547,28.527000427246094 87.20600128173828,14.526000022888184 C83.68099975585938,-2.627000093460083 69.22474670410156,-5.366250038146973 65.97100067138672,-31.959999084472656 C62.97600173950195,-53.019248962402344 58.358001708984375,-68.31700134277344 57.512001037597656,-75.36000061035156 C56.659000396728516,-79.50800323486328 -75.39600372314453,-54.15800094604492 -74.73600006103516,-48.768001556396484 C-73.29199981689453,-36.983001708984375 -66.11000061035156,-6.36899995803833 -60.141998291015625,18.450000762939453 C-54.58399963378906,41.56100082397461 -47.73400115966797,65.24199676513672 -45.071998596191406,78.1969985961914z"></path></g><g opacity="1" transform="matrix(1,0,0,1,52.88199996948242,79.63200378417969)"><path fill="rgb(255,255,255)" fill-opacity="1" d=" M-4.120250225067139,-13.422750473022461 C-3.9997498989105225,-5.157750129699707 -2.3350000381469727,6.200500011444092 0.581250011920929,13.95324993133545 C2.75,19.7189998626709 12.083000183105469,17.234750747680664 9.888250350952148,11.399999618530273 C7.2532501220703125,4.396500110626221 5.635749816894531,-5.941500186920166 5.5279998779296875,-13.410499572753906 C5.438000202178955,-19.62649917602539 -4.2104997634887695,-19.648000717163086 -4.120250225067139,-13.422750473022461z"></path></g></g><g style="display: block;" transform="matrix(1,0,0,1,322.510986328125,181.0830078125)" opacity="1"><g opacity="1" transform="matrix(1,0,0,1,100.03600311279297,251.26300048828125)"><path fill="rgb(255,238,60)" fill-opacity="1" d=" M4.442999839782715,-19.04400062561035 C-0.40700000524520874,-12.982999801635742 -5.458000183105469,-6.464000225067139 -8.220999717712402,1.0609999895095825 C-10.178000450134277,6.755000114440918 -13.02400016784668,19.04400062561035 -2.4679999351501465,17.791000366210938 C13.02299976348877,15.954000473022461 -2.5299999713897705,-10.638999938964844 4.442999839782715,-19.04400062561035z"></path></g><g opacity="1" transform="matrix(1,0,0,1,40.000999450683594,84.84100341796875)"><path fill="rgb(255,238,60)" fill-opacity="1" d=" M20.384000778198242,-2.7909998893737793 C13.491000175476074,-6.361000061035156 6.111000061035156,-10.039999961853027 -1.809000015258789,-11.277000427246094 C-7.776000022888184,-12.081999778747559 -20.384000778198242,-12.468999862670898 -17.090999603271484,-2.361999988555908 C-12.258999824523926,12.468999862670898 10.777000427246094,-7.985000133514404 20.384000778198242,-2.7909998893737793z"></path></g><g opacity="1" transform="matrix(1,0,0,1,247.88299560546875,257.8179931640625)"><path fill="rgb(255,238,60)" fill-opacity="1" d=" M-14.276000022888184,-23.43199920654297 C-8.682999610900879,-5.072999954223633 -6.3460001945495605,23.43199920654297 3.6730000972747803,19.878000259399414 C14.277000427246094,16.117000579833984 -8.215999603271484,-10.116999626159668 -14.276000022888184,-23.43199920654297z"></path></g><g opacity="1" transform="matrix(1,0,0,1,21.65399932861328,195.2740020751953)"><path fill="rgb(255,238,60)" fill-opacity="1" d=" M21.40399932861328,-13.456999778747559 C4.658999919891357,-10.354999542236328 -21.40399932861328,-13.315999984741211 -18.04800033569336,-0.3100000023841858 C-14.494999885559082,13.456999778747559 9.281000137329102,-8.75100040435791 21.40399932861328,-13.456999778747559z"></path></g><g opacity="1" transform="matrix(1,0,0,1,101.14800262451172,21.746999740600586)"><path fill="rgb(255,238,60)" fill-opacity="1" d=" M13.340999603271484,21.496999740600586 C7.341000080108643,9.336000442504883 13.34000015258789,-21.496999740600586 -1.3020000457763672,-18.565000534057617 C-13.340999603271484,-16.15399932861328 4.833000183105469,12.836000442504883 13.340999603271484,21.496999740600586z"></path></g><g opacity="1" transform="matrix(1,0,0,1,175.64199829101562,29.173999786376953)"><path fill="rgb(255,241,94)" fill-opacity="1" d=" M-5.4679999351501465,10.532999992370605 C-4.413000106811523,4.449999809265137 6.326000213623047,-5.138999938964844 -0.0430000014603138,-8.100000381469727 C-5.281000137329102,-10.532999992370605 -6.324999809265137,5.034999847412109 -5.4679999351501465,10.532999992370605z"></path></g><g opacity="1" transform="matrix(1,0,0,1,162.5449981689453,258.8429870605469)"><path fill="rgb(255,238,60)" fill-opacity="1" d=" M2.86299991607666,-11.767999649047852 C-1.7769999504089355,0.5139999985694885 -6.658999919891357,11.520999908447266 0.1850000023841858,11.64799976348877 C6.658999919891357,11.767999649047852 -0.9070000052452087,1.694000005722046 2.86299991607666,-11.767999649047852z"></path></g><g opacity="1" transform="matrix(1,0,0,1,284.14801025390625,188.59100341796875)"><path fill="rgb(241,226,47)" fill-opacity="1" d=" M11.126999855041504,-1.246999979019165 C26.00200080871582,10.880999565124512 43.82699966430664,33.24700164794922 50.16400146484375,24.714000701904297 C56.874000549316406,15.680999755859375 23.57900047302246,6.432000160217285 11.126999855041504,-1.246999979019165z"></path></g><g opacity="1" transform="matrix(1,0,0,1,258.35198974609375,26.618999481201172)"><path fill="rgb(241,226,47)" fill-opacity="1" d=" M-16.4060001373291,16.18400001525879 C-0.8420000076293945,4.954999923706055 16.4060001373291,0.9639999866485596 9.803000450134277,-7.366000175476074 C2.815000057220459,-16.18400001525879 -5.764999866485596,6.144000053405762 -16.4060001373291,16.18400001525879z"></path></g></g></g><g clip-path="url(#lottie-id)" style="display: block;" transform="matrix(1,0,0,1,0,0)" opacity="1"><g style="display: block;" transform="matrix(0.7210533022880554,1.2000341415405273,-1.2000341415405273,0.7210533022880554,1320.2720947265625,281.9762878417969)" opacity="1"><g opacity="1" transform="matrix(1,0,0,1,100.03600311279297,251.26300048828125)"><path fill="rgb(251,176,58)" fill-opacity="1" d=" M4.442999839782715,-19.04400062561035 C-0.40700000524520874,-12.982999801635742 -5.458000183105469,-6.464000225067139 -8.220999717712402,1.0609999895095825 C-10.178000450134277,6.755000114440918 -13.02400016784668,19.04400062561035 -2.4679999351501465,17.791000366210938 C13.02299976348877,15.954000473022461 -2.5299999713897705,-10.638999938964844 4.442999839782715,-19.04400062561035z"></path></g><g opacity="1" transform="matrix(1,0,0,1,40.000999450683594,84.84100341796875)"><path fill="rgb(251,176,58)" fill-opacity="1" d=" M20.384000778198242,-2.7909998893737793 C13.491000175476074,-6.361000061035156 6.111000061035156,-10.039999961853027 -1.809000015258789,-11.277000427246094 C-7.776000022888184,-12.081999778747559 -20.384000778198242,-12.468999862670898 -17.090999603271484,-2.361999988555908 C-12.258999824523926,12.468999862670898 10.777000427246094,-7.985000133514404 20.384000778198242,-2.7909998893737793z"></path></g><g opacity="1" transform="matrix(1,0,0,1,247.88299560546875,257.8179931640625)"><path fill="rgb(251,176,58)" fill-opacity="1" d=" M-14.276000022888184,-23.43199920654297 C-8.682999610900879,-5.072999954223633 -6.3460001945495605,23.43199920654297 3.6730000972747803,19.878000259399414 C14.277000427246094,16.117000579833984 -8.215999603271484,-10.116999626159668 -14.276000022888184,-23.43199920654297z"></path></g><g opacity="1" transform="matrix(1,0,0,1,21.65399932861328,195.2740020751953)"><path fill="rgb(251,176,58)" fill-opacity="1" d=" M21.40399932861328,-13.456999778747559 C4.658999919891357,-10.354999542236328 -21.40399932861328,-13.315999984741211 -18.04800033569336,-0.3100000023841858 C-14.494999885559082,13.456999778747559 9.281000137329102,-8.75100040435791 21.40399932861328,-13.456999778747559z"></path></g><g opacity="1" transform="matrix(1,0,0,1,101.14800262451172,21.746999740600586)"><path fill="rgb(251,176,58)" fill-opacity="1" d=" M13.340999603271484,21.496999740600586 C7.341000080108643,9.336000442504883 13.34000015258789,-21.496999740600586 -1.3020000457763672,-18.565000534057617 C-13.340999603271484,-16.15399932861328 4.833000183105469,12.836000442504883 13.340999603271484,21.496999740600586z"></path></g><g opacity="1" transform="matrix(1,0,0,1,175.64199829101562,29.173999786376953)"><path fill="rgb(251,176,58)" fill-opacity="1" d=" M-5.4679999351501465,10.532999992370605 C-4.413000106811523,4.449999809265137 6.326000213623047,-5.138999938964844 -0.0430000014603138,-8.100000381469727 C-5.281000137329102,-10.532999992370605 -6.324999809265137,5.034999847412109 -5.4679999351501465,10.532999992370605z"></path></g><g opacity="1" transform="matrix(1,0,0,1,162.5449981689453,258.8429870605469)"><path fill="rgb(251,176,58)" fill-opacity="1" d=" M2.86299991607666,-11.767999649047852 C-1.7769999504089355,0.5139999985694885 -6.658999919891357,11.520999908447266 0.1850000023841858,11.64799976348877 C6.658999919891357,11.767999649047852 -0.9070000052452087,1.694000005722046 2.86299991607666,-11.767999649047852z"></path></g><g opacity="1" transform="matrix(1,0,0,1,284.14801025390625,188.59100341796875)"><path fill="rgb(251,176,58)" fill-opacity="1" d=" M11.126999855041504,-1.246999979019165 C26.00200080871582,10.880999565124512 43.82699966430664,33.24700164794922 50.16400146484375,24.714000701904297 C56.874000549316406,15.680999755859375 23.57900047302246,6.432000160217285 11.126999855041504,-1.246999979019165z"></path></g><g opacity="1" transform="matrix(1,0,0,1,258.35198974609375,26.618999481201172)"><path fill="rgb(251,176,58)" fill-opacity="1" d=" M-16.4060001373291,16.18400001525879 C-0.8420000076293945,4.954999923706055 16.4060001373291,0.9639999866485596 9.803000450134277,-7.366000175476074 C2.815000057220459,-16.18400001525879 -5.764999866485596,6.144000053405762 -16.4060001373291,16.18400001525879z"></path></g></g><g style="display: block;" transform="matrix(1,0,0,1,964.1519775390625,85.85498046875)" opacity="1"><g opacity="1" transform="matrix(1,0,0,1,375.322998046875,410.6610107421875)"><path fill="rgb(250,175,58)" fill-opacity="1" d=" M-212.6929931640625,-34.17399978637695 C-194.8979949951172,-88.43499755859375 -147.7010040283203,-53.77199935913086 -133.25900268554688,-71.9800033569336 C-108.62899780273438,-103.03399658203125 -148.11399841308594,-125.34300231933594 -145.54100036621094,-147.2310028076172 C-142.53399658203125,-172.8090057373047 -131.1230010986328,-184.27499389648438 -106.3290023803711,-176.39999389648438 C-79.03299713134766,-167.72999572753906 -47.42900085449219,-131.13800048828125 -27.82900047302246,-166.71600341796875 C-7.609000205993652,-203.41700744628906 -33.07500076293945,-231.19900512695312 -24.04400062561035,-253.5749969482422 C-13.38599967956543,-279.9809875488281 31.242000579833984,-235.17999267578125 54.49399948120117,-279.9809875488281 C81.26000213623047,-331.5530090332031 61.41899871826172,-395.656005859375 100.70999908447266,-397.4330139160156 C132.48300170898438,-398.8699951171875 125.36199951171875,-366.86199951171875 137.5399932861328,-359.3680114746094 C164.7729949951172,-342.6090087890625 185.60699462890625,-397.4800109863281 227.73199462890625,-363.9909973144531 C256.885986328125,-340.8139953613281 214.7519989013672,-291.1289978027344 276.3760070800781,-271.8710021972656 C299.4849853515625,-264.1679992675781 346.7860107421875,-287.85699462890625 356.0429992675781,-250.08200073242188 C364.5249938964844,-215.47000122070312 292.7959899902344,-212.82699584960938 292.7959899902344,-170.68800354003906 C292.7959899902344,-134.80999755859375 346.0769958496094,-120.89900207519531 316.3550109863281,-93.64299774169922 C282.5159912109375,-62.61199951171875 235.43499755859375,-113.47100067138672 227.73199462890625,-88.43599700927734 C218.10299682617188,-51.84600067138672 263.75299072265625,-41.43299865722656 282.6860046386719,-26.47100067138672 C334.7539978027344,14.675000190734863 261.9100036621094,77.88999938964844 226.3070068359375,23.733999252319336 C208.0760040283203,-3.997999906539917 216.67799377441406,-28.26099967956543 183.94000244140625,-28.26099967956543 C126.16699981689453,-28.26099967956543 166.60800170898438,63.72600173950195 128.0919952392578,96.91300201416016 C93.01799774169922,127.13500213623047 74.16999816894531,98.13700103759766 43.202999114990234,139.18499755859375 C29.677000045776367,157.11399841308594 61.641998291015625,191.70700073242188 78.02300262451172,207.1909942626953 C128.09300231933594,254.51800537109375 70.31900024414062,311.0780029296875 -1.1979999542236328,251.38299560546875 C-42.92599868774414,216.5540008544922 -102.71700286865234,224.66799926757812 -66.41000366210938,291.32501220703125 C-33.672000885009766,351.4289855957031 -65.03199768066406,391.4840087890625 -89.9990005493164,389.0989990234375 C-128.8159942626953,385.3909912109375 -104.52799987792969,289.2919921875 -131.88600158691406,290.0899963378906 C-174.2530059814453,291.32501220703125 -230.09800720214844,363.4440002441406 -267.6520080566406,332.63299560546875 C-287.2049865722656,316.59100341796875 -281.8840026855469,291.32598876953125 -235.8769989013672,240.5279998779297 C-199.68800354003906,200.57000732421875 -223.56100463867188,178.16799926757812 -255.03900146484375,162.38900756835938 C-281.9700012207031,148.88900756835938 -316.0989990234375,154.11300659179688 -336.7279968261719,135.91200256347656 C-357.7760009765625,117.34200286865234 -334.2380065917969,97.58699798583984 -315.3399963378906,91.37699890136719 C-289.71099853515625,82.95500183105469 -261.8909912109375,76.15899658203125 -227.41299438476562,60.89099884033203 C-193.9980010986328,46.09299850463867 -225.48599243164062,4.834000110626221 -212.6929931640625,-34.17399978637695z"></path></g></g><g style="display: block;" transform="matrix(1,0,0,1,1071.364990234375,158.47799682617188)" opacity="1"><g opacity="1" transform="matrix(1,0,0,1,278.7340087890625,306.7120056152344)"><path fill="rgb(255,59,42)" fill-opacity="1" d=" M-116.11399841308594,308.22698974609375 C-140.9459991455078,312.4620056152344 -282.4840087890625,191.95599365234375 -278.84698486328125,168.5290069580078 C-273.2409973144531,132.4219970703125 -133.69700622558594,10.866000175476074 -57.38600158691406,-86.94100189208984 C8.53600025177002,-171.4320068359375 99.87699890136719,-300.40899658203125 116.80699920654297,-311.7090148925781 C137.2209930419922,-315.22601318359375 287.8999938964844,-184.7570037841797 286.82000732421875,-162.23500061035156 C283.45001220703125,-151.81199645996094 169.70399475097656,-46.487998962402344 99.06800079345703,42.88399887084961 C5.270999908447266,161.56199645996094 -74.63099670410156,281.50299072265625 -116.11399841308594,308.22698974609375z"></path></g><g opacity="1" transform="matrix(1,0,0,1,245.78500366210938,282.5920104980469)"><path fill="rgb(255,255,255)" fill-opacity="1" d=" M-202.25799560546875,248.24000549316406 C-205.26699829101562,245.22999572753906 -216.22999572753906,235.0970001220703 -216.55999755859375,233.1179962158203 C-218.85899353027344,219.35299682617188 -69.72899627685547,60.0620002746582 6.581999778747559,-37.74700164794922 C72.50299835205078,-122.23799896240234 183.51699829101562,-232.8820037841797 204.79100036621094,-252.16700744628906 C206.4739990234375,-251.8780059814453 222.68800354003906,-238.29400634765625 222.68800354003906,-238.29400634765625 C208.31500244140625,-221.18600463867188 98.24099731445312,-116.17400360107422 27.604999542236328,-26.801000595092773 C-66.19100189208984,91.8759994506836 -169.8939971923828,208.70599365234375 -202.25799560546875,248.24000549316406z"></path></g><g opacity="1" transform="matrix(1,0,0,1,299.9410095214844,329.5950012207031)"><path fill="rgb(255,255,255)" fill-opacity="1" d=" M-195.91200256347656,253.16600036621094 C-198.6199951171875,252.59800720214844 -230.05999755859375,230.1699981689453 -227.65499877929688,227.32200622558594 C-183.79600524902344,175.3780059814453 -70.28800201416016,46.691001892089844 12.885000228881836,-45.584999084472656 C84.50399780273438,-125.04199981689453 183.1219940185547,-238.11300659179688 207.48899841308594,-254.8280029296875 C215.68099975585938,-248.7570037841797 236.49899291992188,-225.29299926757812 236.49899291992188,-225.29299926757812 C222.031005859375,-208.26100158691406 122.58499908447266,-106.20099639892578 48.04800033569336,-22.715999603271484 C-52.7869987487793,90.2229995727539 -152.23500061035156,222.8330078125 -195.91200256347656,253.16600036621094z"></path></g><g opacity="1" transform="matrix(1,0,0,1,512.4650268554688,170.12100219726562)"><path fill="rgb(255,255,255)" fill-opacity="1" d=" M20.14299964904785,-25.743000030517578 C8.75100040435791,-15.208000183105469 -2.447999954223633,-4.443999767303467 -14.211999893188477,5.681000232696533 C-21.73200035095215,12.152999877929688 -10.8149995803833,22.969999313354492 -3.3489999771118164,16.542999267578125 C8.413999557495117,6.416999816894531 19.61199951171875,-4.3470001220703125 31.0049991607666,-14.881999969482422 C38.29199981689453,-21.621000289916992 27.402999877929688,-32.457000732421875 20.14299964904785,-25.743000030517578z"></path></g><g opacity="1" transform="matrix(1,0,0,1,480.5050048828125,198.86500549316406)"><path fill="rgb(255,255,255)" fill-opacity="1" d=" M7.568999767303467,3.700000047683716 C17.475000381469727,3.700000047683716 17.475000381469727,-11.66100025177002 7.568999767303467,-11.66100025177002 C-2.3369998931884766,-11.66100025177002 -2.3369998931884766,3.700000047683716 7.568999767303467,3.700000047683716z"></path></g></g></g></g></g></svg>