<svg xmlns="http://www.w3.org/2000/svg" xmlns:xlink="http://www.w3.org/1999/xlink" viewBox="0 0 1920 1080" width="1920" height="1080" style="width: 100%; height: 100%; transform: translate3d(0,0,0); content-visibility: visible;" preserveAspectRatio="xMidYMid meet"><defs><clipPath id="lottie-id"><rect width="1920" height="1080" x="0" y="0"></rect></clipPath><clipPath id="lottie-id"><path d="M0,0 L1920,0 L1920,1080 L0,1080z"></path></clipPath><clipPath id="lottie-id"><path d="M0,0 L1920,0 L1920,1080 L0,1080z"></path></clipPath><clipPath id="lottie-id"><path d="M0,0 L1920,0 L1920,1080 L0,1080z"></path></clipPath><clipPath id="lottie-id"><path d="M0,0 L1920,0 L1920,1080 L0,1080z"></path></clipPath><clipPath id="lottie-id"><path d="M0,0 L1920,0 L1920,1080 L0,1080z"></path></clipPath><clipPath id="lottie-id"><path d="M0,0 L1920,0 L1920,1080 L0,1080z"></path></clipPath></defs><g clip-path="url(#lottie-id)"><g style="display: block;" transform="matrix(3.888000011444092,0,0,1.4693299531936646,-12,-10.99871826171875)" opacity="1"><rect width="500" height="750" fill="#233254"></rect></g><g clip-path="url(#lottie-id)" style="display: block;" transform="matrix(1.5,0,0,1.5,-480,-390)" opacity="1"><g style="display: block;" transform="matrix(1,0,0,1,865,538.5)" opacity="1"><g opacity="1" transform="matrix(1,0,0,1,0,0)"><path stroke-linecap="round" stroke-linejoin="miter" fill-opacity="0" stroke-miterlimit="4" stroke="rgb(251,176,58)" stroke-opacity="1" stroke-width="7" d=" M107.23500061035156,210.4029998779297 C107.23500061035156,210.4029998779297 104.75,227.25 111.25,238.5 C117.62699890136719,249.53799438476562 108.625,261.375 87.125,264.375"></path></g></g><g style="display: block;" transform="matrix(1,0,0,1,984.4996948242188,536.4999389648438)" opacity="1"><g opacity="1" transform="matrix(1,0,0,1,0,0)"><path fill="rgb(40,170,226)" fill-opacity="1" d=" M10.5,247.5 C8,243.75 2.25,248.25 -6.5,253.25 C-15.25,258.25 -30,266.25 -30,266.25 C-30,266.25 -36.25,269.5 -33.5,272.5 C-30.75,275.5 -22.25,268 -22.25,268 C-22.25,268 -12.5,262 -4,258 C4.234000205993652,254.125 13,251.25 10.5,247.5z"></path></g></g><g style="display: block;" transform="matrix(0.838670551776886,0.5446390509605408,-0.5446390509605408,0.838670551776886,1123.743896484375,600.424072265625)" opacity="1"><g opacity="1" transform="matrix(1,0,0,1,23,-15.5)"><path fill="rgb(251,176,58)" fill-opacity="1" d=" M-36.75,257.75 C-38.266998291015625,259.8739929199219 -41.59400177001953,258.80499267578125 -43.75,261.25 C-46.334999084472656,264.1820068359375 -43.987998962402344,265.0429992675781 -43.68899917602539,266.5190124511719 C-43.189998626708984,268.9809875488281 -45.25,271 -45.25,271 C-45.25,271 -43.018001556396484,274.55499267578125 -38.75,274.25 C-35.25,274 -35.75,269.75 -35.75,269.75 C-35.75,269.75 -33.5,268.5 -32.5,266.5 C-31.349000930786133,264.197998046875 -32.5,262.75 -32.5,262.75 C-32.5,262.75 -29,263.75 -30,259 C-31,254.25 -35.5,256 -36.75,257.75z"></path></g><g opacity="1" transform="matrix(1,0,0,1,23,-15.5)"><path fill="rgb(251,195,58)" fill-opacity="1" d=" M-42,257.75 C-40.75,254.75 -46,253.25 -50.75,259.5 C-55.5,265.75 -49.75,269.75 -47.75,266 C-46.08599853515625,262.8800048828125 -43.25,260.75 -42,257.75z"></path></g></g><g style="display: block;" transform="matrix(1,0,0,1,1011.9996948242188,534.9999389648438)" opacity="1"><g opacity="1" transform="matrix(1,0,0,1,0,0)"><path fill="rgb(31,135,180)" fill-opacity="1" d=" M-85.625,265 C-108,264.9100036621094 -121.625,266.625 -123.875,270.625 C-126.125,274.625 -108.75,286.5 -83.125,285.75 C-49.8849983215332,284.7770080566406 -46.75,278.125 -44.5,273.875 C-42.25,269.625 -54.625,265.125 -85.625,265z"></path></g></g><g style="display: block;" transform="matrix(1,0,0,1,1011.9996948242188,534.9999389648438)" opacity="1"><g opacity="1" transform="matrix(1,0,0,1,0,0)"><path fill="rgb(251,176,58)" fill-opacity="1" d=" M-118.5,273.5 C-118.5,273.5 -124.5,284.5 -82.5,284.5 C-40.999000549316406,284.5 -49.25,274.75 -49.25,274.75 C-49.25,274.75 -52.25,272 -78,274.75 C-103.75,277.5 -118.5,273.5 -118.5,273.5z"></path></g><g opacity="1" transform="matrix(1,0,0,1,0,0)"><path fill="rgb(251,195,58)" fill-opacity="1" d=" M-85.12999725341797,269.8039855957031 C-104.6709976196289,269.75 -116.56999969482422,270.77301025390625 -118.53500366210938,273.1600036621094 C-120.5,275.5469970703125 -105.32599639892578,282.6310119628906 -82.9469985961914,282.1839904785156 C-53.917999267578125,281.60400390625 -51.18000030517578,277.635009765625 -49.21500015258789,275.0989990234375 C-47.25,272.56298828125 -58.05699920654297,269.8789978027344 -85.12999725341797,269.8039855957031z"></path></g></g><g style="display: block;" transform="matrix(1,0,0,1,1001.4996948242188,1115.5)" opacity="1"><g opacity="1" transform="matrix(1,0,0,1,0,0)"><path fill="rgb(255,58,43)" fill-opacity="1" d=" M-90,-315.625 C-90.99600219726562,-316.3909912109375 -91.5,-313.875 -94.75,-314.375 C-98,-314.875 -98.375,-312.875 -98.875,-312.25 C-99.375,-311.625 -96.375,-307.375 -91.5,-303.25 C-87.625,-299.97100830078125 -86,-301.75 -80.875,-298.875 C-75.75,-296 -76.625,-299.25 -64.75,-296.75 C-52.875,-294.25 -49.125,-299.875 -45,-302.375 C-40.875,-304.875 -42.375,-307.5 -44.625,-308.125 C-46.875,-308.75 -47.125,-310.375 -49.5,-311.625 C-51.875,-312.875 -50.375,-306.875 -52.875,-304.875 C-55.375,-302.875 -58,-302 -62.375,-303.625 C-66.75,-305.25 -68.99600219726562,-304.8420104980469 -72.25,-304.5 C-77,-304 -79.375,-304.5 -81.5,-306.125 C-84.3239974975586,-308.2850036621094 -85.94499969482422,-308.114013671875 -87.25,-309.5 C-89.25,-311.625 -88.375,-314.375 -90,-315.625z"></path></g><g opacity="1" transform="matrix(1,0,0,1,0,-0.5)"><path stroke-linecap="butt" stroke-linejoin="miter" fill-opacity="0" stroke-miterlimit="4" stroke="rgb(253,253,243)" stroke-opacity="1" stroke-width="1" d=" M-91.25,-311.25 C-91.25,-311.25 -90.5,-308 -84.5,-304.75 C-78.5,-301.5 -76.5,-301.5 -69,-302 C-61.5,-302.5 -61.75,-299 -56,-301.5 C-50.25,-304 -49,-306.75 -49,-306.75"></path></g><g opacity="1" transform="matrix(1,0,0,1,-0.5,2.25)"><path stroke-linecap="butt" stroke-linejoin="miter" fill-opacity="0" stroke-miterlimit="4" stroke="rgb(253,253,243)" stroke-opacity="1" stroke-width="1" d=" M-91.25,-311.25 C-91.25,-311.25 -90.5,-308 -84.5,-304.75 C-78.5,-301.5 -76.5,-301.5 -69,-302 C-61.5,-302.5 -61.75,-299 -56,-301.5 C-50.25,-304 -49,-306.75 -49,-306.75"></path></g></g><g style="display: block;" transform="matrix(1,0,0,1,1011.9996948242188,534.9999389648438)" opacity="1"><g opacity="1" transform="matrix(1,0,0,1,0,0)"><path fill="rgb(40,170,226)" fill-opacity="1" d=" M-125.125,271.375 C-125.125,271.375 -122.625,293 -82.125,293.5 C-48.25199890136719,293.9179992675781 -43.5,273.75 -43.5,273.75 C-43.5,273.75 -55.25,280.5 -82.625,280.25 C-111.03199768066406,279.9909973144531 -125.125,271.375 -125.125,271.375z"></path></g></g><g style="display: block;" transform="matrix(-0.8402223587036133,-0.322531133890152,-0.322531133890152,0.8402223587036133,1056.5,590)" opacity="1"><g opacity="1" transform="matrix(1,0,0,1,0,0)"><path fill="rgb(251,176,58)" fill-opacity="1" d=" M61.79800033569336,149.5070037841797 C57.7400016784668,148.7790069580078 61.369998931884766,168.46600341796875 67.71499633789062,175.96600341796875 C80.75,191.375 98.5,189.125 95.78199768066406,175.093994140625 C94.60399627685547,169.01100158691406 81.54299926757812,173.34300231933594 75.27799987792969,165.97500610351562 C66.82099914550781,156.0290069580078 64.12899780273438,149.9250030517578 61.79800033569336,149.5070037841797z"></path></g></g><g style="display: block;" transform="matrix(1,0,0,1,960,542)" opacity="1"><g opacity="1" transform="matrix(1,0,0,1,0,0)"><path fill="rgb(251,194,58)" fill-opacity="1" d=" M26.5,141.5 C-19.5,141.5 -21,175 -19.5,202 C-18,229 -15.355999946594238,262.6600036621094 -4,276.5 C10.909000396728516,294.6709899902344 59,295 78.35199737548828,282.1719970703125 C78.25,281.75 85,279.75 90.75,275.5 C94.74099731445312,272.54998779296875 96.75,268.25 98.25299835205078,262.6969909667969 C88.25,271.25 83,267 83.03399658203125,266.6289978027344 C84.5,256 82,233 78,205 C72.43000030517578,166.00999450683594 72.5,141.5 26.5,141.5z"></path></g></g><g style="display: block;" transform="matrix(1,0,0,1,959.5,543)" opacity="1"><g opacity="1" transform="matrix(1,0,0,1,0,0)"><path fill="rgb(251,176,58)" fill-opacity="1" d=" M61.79800033569336,149.5070037841797 C57.7400016784668,148.7790069580078 61.369998931884766,168.46600341796875 67.71499633789062,175.96600341796875 C80.75,191.375 98.5,189.125 95.78199768066406,175.093994140625 C94.60399627685547,169.01100158691406 81.54299926757812,173.34300231933594 75.27799987792969,165.97500610351562 C66.82099914550781,156.0290069580078 64.12899780273438,149.9250030517578 61.79800033569336,149.5070037841797z"></path></g></g><g style="display: block;" transform="matrix(1,0,0,1,960,542)" opacity="1"><g opacity="1" transform="matrix(1,0,0,1,0,0)"><path fill="rgb(255,255,255)" fill-opacity="1" d=" M-5.938000202178955,159.5 C-18.437999725341797,160 -23.523000717163086,172.1719970703125 -18.5,181.5 C-13.25,191.25 1.25,190 6.5,181 C10.692999839782715,173.81199645996094 6.561999797821045,159 -5.938000202178955,159.5z"></path></g><g opacity="1" transform="matrix(1,0,0,1,0,0)"><path fill="rgb(0,0,0)" fill-opacity="1" d=" M-12.706000328063965,162 C-19.624000549316406,162.5189971923828 -25.25,172.63499450683594 -19.360000610351562,181.9759979248047 C-14.616000175476074,189.5 -4.3379998207092285,189.24099731445312 -4.3379998207092285,189.24099731445312 C2.25,187.6840057373047 1.1959999799728394,185.60899353027344 1.281999945640564,185.55499267578125 C-18.569000244140625,187.6840057373047 -18.027000427246094,167.02200317382812 -12.706000328063965,162z"></path></g></g><g style="display: block;" transform="matrix(1,0,0,1,1005.5,542)" opacity="1"><g opacity="1" transform="matrix(1,0,0,1,0,0)"><path fill="rgb(255,255,255)" fill-opacity="1" d=" M-6.081999778747559,158.40699768066406 C-19.297000885009766,158.93600463867188 -24.673999786376953,171.8040008544922 -19.36400032043457,181.66600036621094 C-13.814000129699707,191.9739990234375 1.5169999599456787,190.65199279785156 7.066999912261963,181.13699340820312 C11.5,173.53799438476562 7.132999897003174,157.8780059814453 -6.081999778747559,158.40699768066406z"></path></g><g opacity="1" transform="matrix(1,0,0,1,0,0)"><path fill="rgb(0,0,0)" fill-opacity="1" d=" M-13.23799991607666,161.0500030517578 C-20.552000045776367,161.5989990234375 -26.5,172.29400634765625 -20.273000717163086,182.1699981689453 C-15.258000373840332,190.12399291992188 -4.392000198364258,189.85000610351562 -4.392000198364258,189.85000610351562 C2.5739998817443848,188.20399475097656 1.4589999914169312,186.00999450683594 1.5499999523162842,185.9530029296875 C-19.437000274658203,188.20399475097656 -18.863000869750977,166.35899353027344 -13.23799991607666,161.0500030517578z"></path></g></g><g style="display: block;" transform="matrix(1,0,0,1,960,542)" opacity="1"><g opacity="1" transform="matrix(1,0,0,1,0,0)"><path fill="rgb(251,176,58)" fill-opacity="1" d=" M13.75,180 C0.25,179.5 -6.25,187.5 -6.5,196.25 C-6.78000020980835,206.0500030517578 -4.25,208 -0.5,208 C3.25,208 7.75,207.5 6.5,199.25 C5.25,191 5.25,188 11.25,188.25 C17.25,188.5 20.25,188.75 18.25,199.5 C16.25,210.25 24.25,210.5 27.75,209 C31.25,207.5 33.25,201 32.75,194.25 C32.25,187.5 27.25,180.5 13.75,180z"></path></g></g><g style="display: block;" transform="matrix(1,0,0,1,960,542)" opacity="1"><g opacity="1" transform="matrix(1,0,0,1,0,0)"><path fill="rgb(0,0,0)" fill-opacity="1" d=" M12.625,186.75 C7.619999885559082,186.86500549316406 5.063000202178955,188.75 4.875,190.81300354003906 C4.64900016784668,193.30299377441406 8.312999725341797,195.25 11.687999725341797,195.31300354003906 C14.937000274658203,195.3730010986328 19.20199966430664,194.61199951171875 19.5,191.43800354003906 C19.687999725341797,189.43800354003906 18.062999725341797,186.625 12.625,186.75z"></path></g></g><g style="display: block;" transform="matrix(0.8799999952316284,0,0,0.8799999952316284,914.4450073242188,557.6099853515625)" opacity="1"><g opacity="1" transform="matrix(1,0,0,1,0,0)"><path fill="rgb(251,176,58)" fill-opacity="1" d=" M53.75,245.5 C45.75,243.75 47.5,246.75 46.75,253.25 C46,259.75 43.5,266.5 45.75,269 C48,271.5 57,270.75 59,263.5 C60.99599838256836,256.2659912109375 61.75,247.25 53.75,245.5z"></path></g><g opacity="1" transform="matrix(1,0,0,1,0,0)"><path fill="rgb(246,163,33)" fill-opacity="1" d=" M53.25,245.75 C50.75,243.75 42.5,244.25 42.25,247.5 C41.957000732421875,251.31300354003906 44.25,253.25 44.25,253.25 C44.25,253.25 41.75,254 41.75,257.75 C41.75,261.5 44.25,262 44.25,262 C44.25,262 41.599998474121094,264.5050048828125 41.75,266.75 C42,270.5 45.98400115966797,269.75 48,269.75 C51.5,269.75 52.76300048828125,267.5669860839844 53.75,265 C55,261.75 51.5,260.75 51.5,260.75 C51.5,260.75 54.5,258 54.5,255 C54.5,252 51.75,251.75 51.75,251.75 C51.75,251.75 55.75,247.75 53.25,245.75z"></path></g></g><g style="display: block;" transform="matrix(1,0,0,1,964,542)" opacity="1"><g opacity="1" transform="matrix(1,0,0,1,0,0)"><path stroke-linecap="round" stroke-linejoin="miter" fill-opacity="0" stroke-miterlimit="4" stroke="rgb(251,176,58)" stroke-opacity="1" stroke-width="7" d=" M70,207 C70,207 57.00400161743164,220.07699584960938 44.75,227.25 C34.5,233.25 13,239.75 3.5,242.25"></path></g></g><g style="display: block;" transform="matrix(1,0,0,1,956,540)" opacity="1"><g opacity="1" transform="matrix(1,0,0,1,0,0)"><path stroke-linecap="round" stroke-linejoin="round" fill-opacity="0" stroke="rgb(251,195,58)" stroke-opacity="1" stroke-width="7" d=" M74,277 C74,277 53.01599884033203,299 52.75,307.5 C52.5,315.5 77.6969985961914,328.3949890136719 79.5,332 C79.5,332 70,334.5 70,334.5"></path></g></g><g style="display: block;" transform="matrix(1,0,0,1,890.5,537)" opacity="1"><g opacity="1" transform="matrix(1,0,0,1,0,0)"><path stroke-linecap="round" stroke-linejoin="round" fill-opacity="0" stroke="rgb(251,195,58)" stroke-opacity="1" stroke-width="7" d=" M74,277 C74,277 55.63199996948242,300.010009765625 56,307 C56.5,316.5 77.6969985961914,328.3949890136719 79.5,332 C79.5,332 70,334.5 70,334.5"></path></g></g><g style="display: none;"><g><path></path></g></g><g style="display: none;"><g><path></path></g><g><path></path></g></g><g style="display: none;"><g><path></path></g><g><path stroke-linecap="butt" stroke-linejoin="miter" fill-opacity="0" stroke-miterlimit="4"></path></g><g><path stroke-linecap="butt" stroke-linejoin="miter" fill-opacity="0" stroke-miterlimit="4"></path></g></g><g style="display: none;"><g><path stroke-linecap="round" stroke-linejoin="miter" fill-opacity="0" stroke-miterlimit="4"></path></g></g><g style="display: none;"><g><path></path></g></g><g style="display: none;"><g><path></path></g><g><path></path></g></g><g style="display: none;"><g><path></path></g></g><g style="display: none;"><g><path></path></g></g><g style="display: none;"><g><path></path></g></g><g style="display: none;"><g><path></path></g><g><path></path></g></g><g style="display: none;"><g><path></path></g><g><path></path></g></g><g style="display: none;"><g><path></path></g></g><g style="display: none;"><g><path></path></g></g><g style="display: none;"><g><path></path></g><g><path></path></g><g><path stroke-linecap="butt" stroke-linejoin="miter" fill-opacity="0" stroke-miterlimit="4"></path></g><g><path stroke-linecap="butt" stroke-linejoin="miter" fill-opacity="0" stroke-miterlimit="4"></path></g></g><g style="display: none;"><g><path stroke-linecap="round" stroke-linejoin="miter" fill-opacity="0" stroke-miterlimit="4"></path></g></g><g style="display: none;"><g><path stroke-linecap="round" stroke-linejoin="round" fill-opacity="0"></path></g></g><g style="display: none;"><g><path stroke-linecap="round" stroke-linejoin="round" fill-opacity="0"></path></g></g><g style="display: none;"><g><path></path></g></g><g style="display: none;"><g><path></path></g><g><path></path></g></g><g style="display: none;"><g><path></path></g><g><path stroke-linecap="butt" stroke-linejoin="miter" fill-opacity="0" stroke-miterlimit="4"></path></g><g><path stroke-linecap="butt" stroke-linejoin="miter" fill-opacity="0" stroke-miterlimit="4"></path></g></g><g style="display: none;"><g><path></path></g></g></g><g clip-path="url(#lottie-id)" style="display: none;"><g style="display: none;"><g><path stroke-linecap="round" stroke-linejoin="miter" fill-opacity="0" stroke-miterlimit="4"></path></g></g><g style="display: none;"><g><path></path></g></g><g style="display: none;"><g><path></path></g><g><path></path></g></g><g style="display: none;"><g><path></path></g></g><g style="display: none;"><g><path></path></g><g><path></path></g></g><g style="display: none;"><g><path></path></g><g><path stroke-linecap="butt" stroke-linejoin="miter" fill-opacity="0" stroke-miterlimit="4"></path></g><g><path stroke-linecap="butt" stroke-linejoin="miter" fill-opacity="0" stroke-miterlimit="4"></path></g></g><g style="display: none;"><g><path></path></g></g><g style="display: none;"><g><path></path></g></g><g style="display: none;"><g><path></path></g></g><g style="display: none;"><g><path></path></g></g><g style="display: none;"><g><path></path></g><g><path></path></g></g><g style="display: none;"><g><path></path></g><g><path></path></g></g><g style="display: none;"><g><path></path></g></g><g style="display: none;"><g><path></path></g></g><g style="display: none;"><g><path></path></g><g><path></path></g></g><g style="display: none;"><g><path stroke-linecap="round" stroke-linejoin="miter" fill-opacity="0" stroke-miterlimit="4"></path></g></g><g style="display: none;"><g><path stroke-linecap="round" stroke-linejoin="round" fill-opacity="0"></path></g></g><g style="display: none;"><g><path stroke-linecap="round" stroke-linejoin="round" fill-opacity="0"></path></g></g><g style="display: none;"><g><path></path></g></g><g style="display: none;"><g><path></path></g><g><path></path></g></g><g style="display: none;"><g><path></path></g><g><path stroke-linecap="butt" stroke-linejoin="miter" fill-opacity="0" stroke-miterlimit="4"></path></g><g><path stroke-linecap="butt" stroke-linejoin="miter" fill-opacity="0" stroke-miterlimit="4"></path></g></g><g style="display: none;"><g><path stroke-linecap="round" stroke-linejoin="miter" fill-opacity="0" stroke-miterlimit="4"></path></g></g><g style="display: none;"><g><path></path></g></g><g style="display: none;"><g><path></path></g><g><path></path></g></g><g style="display: none;"><g><path></path></g></g><g style="display: none;"><g><path></path></g></g><g style="display: none;"><g><path></path></g></g><g style="display: none;"><g><path></path></g><g><path></path></g></g><g style="display: none;"><g><path></path></g><g><path></path></g></g><g style="display: none;"><g><path></path></g></g><g style="display: none;"><g><path></path></g></g><g style="display: none;"><g><path></path></g><g><path></path></g><g><path stroke-linecap="butt" stroke-linejoin="miter" fill-opacity="0" stroke-miterlimit="4"></path></g><g><path stroke-linecap="butt" stroke-linejoin="miter" fill-opacity="0" stroke-miterlimit="4"></path></g></g><g style="display: none;"><g><path stroke-linecap="round" stroke-linejoin="miter" fill-opacity="0" stroke-miterlimit="4"></path></g></g><g style="display: none;"><g><path stroke-linecap="round" stroke-linejoin="round" fill-opacity="0"></path></g></g><g style="display: none;"><g><path stroke-linecap="round" stroke-linejoin="round" fill-opacity="0"></path></g></g><g style="display: none;"><g><path></path></g></g><g style="display: none;"><g><path></path></g><g><path></path></g></g><g style="display: none;"><g><path></path></g><g><path stroke-linecap="butt" stroke-linejoin="miter" fill-opacity="0" stroke-miterlimit="4"></path></g><g><path stroke-linecap="butt" stroke-linejoin="miter" fill-opacity="0" stroke-miterlimit="4"></path></g></g><g style="display: none;"><g><path></path></g></g></g><g clip-path="url(#lottie-id)" style="display: none;"><g style="display: none;"><g><path stroke-linecap="round" stroke-linejoin="miter" fill-opacity="0" stroke-miterlimit="4"></path></g></g><g style="display: none;"><g><path></path></g></g><g style="display: none;"><g><path></path></g><g><path></path></g></g><g style="display: none;"><g><path></path></g></g><g style="display: none;"><g><path></path></g><g><path></path></g></g><g style="display: none;"><g><path></path></g><g><path stroke-linecap="butt" stroke-linejoin="miter" fill-opacity="0" stroke-miterlimit="4"></path></g><g><path stroke-linecap="butt" stroke-linejoin="miter" fill-opacity="0" stroke-miterlimit="4"></path></g></g><g style="display: none;"><g><path></path></g></g><g style="display: none;"><g><path></path></g></g><g style="display: none;"><g><path></path></g></g><g style="display: none;"><g><path></path></g></g><g style="display: none;"><g><path></path></g><g><path></path></g></g><g style="display: none;"><g><path></path></g><g><path></path></g></g><g style="display: none;"><g><path></path></g></g><g style="display: none;"><g><path></path></g></g><g style="display: none;"><g><path></path></g><g><path></path></g></g><g style="display: none;"><g><path stroke-linecap="round" stroke-linejoin="miter" fill-opacity="0" stroke-miterlimit="4"></path></g></g><g style="display: none;"><g><path stroke-linecap="round" stroke-linejoin="round" fill-opacity="0"></path></g></g><g style="display: none;"><g><path stroke-linecap="round" stroke-linejoin="round" fill-opacity="0"></path></g></g><g style="display: none;"><g><path></path></g></g><g style="display: none;"><g><path></path></g><g><path></path></g></g><g style="display: none;"><g><path></path></g><g><path stroke-linecap="butt" stroke-linejoin="miter" fill-opacity="0" stroke-miterlimit="4"></path></g><g><path stroke-linecap="butt" stroke-linejoin="miter" fill-opacity="0" stroke-miterlimit="4"></path></g></g><g style="display: none;"><g><path stroke-linecap="round" stroke-linejoin="miter" fill-opacity="0" stroke-miterlimit="4"></path></g></g><g style="display: none;"><g><path></path></g></g><g style="display: none;"><g><path></path></g><g><path></path></g></g><g style="display: none;"><g><path></path></g></g><g style="display: none;"><g><path></path></g></g><g style="display: none;"><g><path></path></g></g><g style="display: none;"><g><path></path></g><g><path></path></g></g><g style="display: none;"><g><path></path></g><g><path></path></g></g><g style="display: none;"><g><path></path></g></g><g style="display: none;"><g><path></path></g></g><g style="display: none;"><g><path></path></g><g><path></path></g><g><path stroke-linecap="butt" stroke-linejoin="miter" fill-opacity="0" stroke-miterlimit="4"></path></g><g><path stroke-linecap="butt" stroke-linejoin="miter" fill-opacity="0" stroke-miterlimit="4"></path></g></g><g style="display: none;"><g><path stroke-linecap="round" stroke-linejoin="miter" fill-opacity="0" stroke-miterlimit="4"></path></g></g><g style="display: none;"><g><path stroke-linecap="round" stroke-linejoin="round" fill-opacity="0"></path></g></g><g style="display: none;"><g><path stroke-linecap="round" stroke-linejoin="round" fill-opacity="0"></path></g></g><g style="display: none;"><g><path></path></g></g><g style="display: none;"><g><path></path></g><g><path></path></g></g><g style="display: none;"><g><path></path></g><g><path stroke-linecap="butt" stroke-linejoin="miter" fill-opacity="0" stroke-miterlimit="4"></path></g><g><path stroke-linecap="butt" stroke-linejoin="miter" fill-opacity="0" stroke-miterlimit="4"></path></g></g><g style="display: none;"><g><path></path></g></g></g><g clip-path="url(#lottie-id)" style="display: none;"><g style="display: none;"><g><path></path></g></g><g style="display: none;"><g><path></path></g></g><g clip-path="url(#lottie-id)" style="display: none;"><g style="display: none;"><g><path></path></g><g><path></path></g><g><path></path></g><g><path></path></g><g><path></path></g><g><path></path></g></g><g style="display: none;"><g><path></path></g><g><path></path></g><g><path></path></g><g><path></path></g><g><path></path></g><g><path></path></g></g><g style="display: none;"><g><path></path></g><g><path></path></g><g><path></path></g><g><path></path></g><g><path></path></g><g><path></path></g><g><path></path></g><g><path></path></g><g><path></path></g></g></g><g clip-path="url(#lottie-id)" style="display: none;"><g style="display: none;"><g><path></path></g><g><path></path></g><g><path></path></g><g><path></path></g><g><path></path></g><g><path></path></g><g><path></path></g><g><path></path></g><g><path></path></g></g><g style="display: none;"><g><path></path></g></g><g style="display: none;"><g><path></path></g><g><path></path></g><g><path></path></g><g><path></path></g><g><path></path></g></g></g></g></g></svg>