<svg xmlns="http://www.w3.org/2000/svg" xmlns:xlink="http://www.w3.org/1999/xlink" viewBox="0 0 800 600" width="800" height="600" style="width: 100%; height: 100%; transform: translate3d(0,0,0); content-visibility: visible;" preserveAspectRatio="xMidYMid meet"><defs><clipPath id="lottie-id"><rect width="800" height="600" x="0" y="0"></rect></clipPath></defs><g clip-path="url(#lottie-id)"><g style="display: block;" transform="matrix(0.763340413570404,0.6459964513778687,-0.6459964513778687,0.763340413570404,317.4313659667969,385.58251953125)" opacity="1"><g opacity="1" transform="matrix(1,0,0,1,0,0)"><path fill="rgb(248,130,16)" fill-opacity="1" d=" M-224,72 C-228,72 -229.5,72.5 -229.5,72.5 C-229.5,72.5 -236,75.5 -236,80.5 C-236,85.5 -231.5,97 -227.5,98.5 C-223.5,100 -218,85.5 -217.5,82.5 C-217,79.5 -220,72 -224,72z"></path></g><g opacity="1" transform="matrix(1,0,0,1,-226.375,67.81300354003906)"><path fill="rgb(61,61,61)" fill-opacity="1" d=" M3.875,-1.4375 C3.875,-1.4375 3.875,1.4375 3.875,1.4375 C3.875,1.989400029182434 3.4268999099731445,2.4375 2.875,2.4375 C2.875,2.4375 -2.875,2.4375 -2.875,2.4375 C-3.4268999099731445,2.4375 -3.875,1.989400029182434 -3.875,1.4375 C-3.875,1.4375 -3.875,-1.4375 -3.875,-1.4375 C-3.875,-1.989400029182434 -3.4268999099731445,-2.4375 -2.875,-2.4375 C-2.875,-2.4375 2.875,-2.4375 2.875,-2.4375 C3.4268999099731445,-2.4375 3.875,-1.989400029182434 3.875,-1.4375z"></path></g></g><g style="display: block;" transform="matrix(0.9346753358840942,0.35550251603126526,-0.35550251603126526,0.9346753358840942,479.8843994140625,394.8716735839844)" opacity="1"><g opacity="1" transform="matrix(1,0,0,1,0,0)"><path fill="rgb(11,156,248)" fill-opacity="1" d=" M-224,72 C-228,72 -229.5,72.5 -229.5,72.5 C-229.5,72.5 -236,75.5 -236,80.5 C-236,85.5 -231.5,97 -227.5,98.5 C-223.5,100 -218,85.5 -217.5,82.5 C-217,79.5 -220,72 -224,72z"></path></g><g opacity="1" transform="matrix(1,0,0,1,-226.375,67.81300354003906)"><path fill="rgb(61,61,61)" fill-opacity="1" d=" M3.875,-1.4375 C3.875,-1.4375 3.875,1.4375 3.875,1.4375 C3.875,1.989400029182434 3.4268999099731445,2.4375 2.875,2.4375 C2.875,2.4375 -2.875,2.4375 -2.875,2.4375 C-3.4268999099731445,2.4375 -3.875,1.989400029182434 -3.875,1.4375 C-3.875,1.4375 -3.875,-1.4375 -3.875,-1.4375 C-3.875,-1.989400029182434 -3.4268999099731445,-2.4375 -2.875,-2.4375 C-2.875,-2.4375 2.875,-2.4375 2.875,-2.4375 C3.4268999099731445,-2.4375 3.875,-1.989400029182434 3.875,-1.4375z"></path></g></g><g style="display: block;" transform="matrix(0.9999685287475586,-0.007936257869005203,0.007936257869005203,0.9999685287475586,626.2606201171875,337.1985168457031)" opacity="1"><g opacity="1" transform="matrix(1,0,0,1,0,0)"><path fill="rgb(248,245,12)" fill-opacity="1" d=" M-224,72 C-228,72 -229.5,72.5 -229.5,72.5 C-229.5,72.5 -236,75.5 -236,80.5 C-236,85.5 -231.5,97 -227.5,98.5 C-223.5,100 -218,85.5 -217.5,82.5 C-217,79.5 -220,72 -224,72z"></path></g><g opacity="1" transform="matrix(1,0,0,1,-226.375,67.81300354003906)"><path fill="rgb(61,61,61)" fill-opacity="1" d=" M3.875,-1.4375 C3.875,-1.4375 3.875,1.4375 3.875,1.4375 C3.875,1.989400029182434 3.4268999099731445,2.4375 2.875,2.4375 C2.875,2.4375 -2.875,2.4375 -2.875,2.4375 C-3.4268999099731445,2.4375 -3.875,1.989400029182434 -3.875,1.4375 C-3.875,1.4375 -3.875,-1.4375 -3.875,-1.4375 C-3.875,-1.989400029182434 -3.4268999099731445,-2.4375 -2.875,-2.4375 C-2.875,-2.4375 2.875,-2.4375 2.875,-2.4375 C3.4268999099731445,-2.4375 3.875,-1.989400029182434 3.875,-1.4375z"></path></g></g><g style="display: block;" transform="matrix(0.9376052618026733,-0.3477014899253845,0.3477014899253845,0.9376052618026733,760.76904296875,230.03794860839844)" opacity="1"><g opacity="1" transform="matrix(1,0,0,1,0,0)"><path fill="rgb(12,248,79)" fill-opacity="1" d=" M-224,72 C-228,72 -229.5,72.5 -229.5,72.5 C-229.5,72.5 -236,75.5 -236,80.5 C-236,85.5 -231.5,97 -227.5,98.5 C-223.5,100 -218,85.5 -217.5,82.5 C-217,79.5 -220,72 -224,72z"></path></g><g opacity="1" transform="matrix(1,0,0,1,-226.375,67.81300354003906)"><path fill="rgb(61,61,61)" fill-opacity="1" d=" M3.875,-1.4375 C3.875,-1.4375 3.875,1.4375 3.875,1.4375 C3.875,1.989400029182434 3.4268999099731445,2.4375 2.875,2.4375 C2.875,2.4375 -2.875,2.4375 -2.875,2.4375 C-3.4268999099731445,2.4375 -3.875,1.989400029182434 -3.875,1.4375 C-3.875,1.4375 -3.875,-1.4375 -3.875,-1.4375 C-3.875,-1.989400029182434 -3.4268999099731445,-2.4375 -2.875,-2.4375 C-2.875,-2.4375 2.875,-2.4375 2.875,-2.4375 C3.4268999099731445,-2.4375 3.875,-1.989400029182434 3.875,-1.4375z"></path></g></g><g style="display: block;" transform="matrix(0.8243462443351746,-0.5660858750343323,0.5660858750343323,0.8243462443351746,859.906494140625,113.31533813476562)" opacity="1"><g opacity="1" transform="matrix(1,0,0,1,0,0)"><path fill="rgb(248,43,16)" fill-opacity="1" d=" M-224,72 C-228,72 -229.5,72.5 -229.5,72.5 C-229.5,72.5 -236,75.5 -236,80.5 C-236,85.5 -231.5,97 -227.5,98.5 C-223.5,100 -218,85.5 -217.5,82.5 C-217,79.5 -220,72 -224,72z"></path></g><g opacity="1" transform="matrix(1,0,0,1,-226.375,67.81300354003906)"><path fill="rgb(61,61,61)" fill-opacity="1" d=" M3.875,-1.4375 C3.875,-1.4375 3.875,1.4375 3.875,1.4375 C3.875,1.989400029182434 3.4268999099731445,2.4375 2.875,2.4375 C2.875,2.4375 -2.875,2.4375 -2.875,2.4375 C-3.4268999099731445,2.4375 -3.875,1.989400029182434 -3.875,1.4375 C-3.875,1.4375 -3.875,-1.4375 -3.875,-1.4375 C-3.875,-1.989400029182434 -3.4268999099731445,-2.4375 -2.875,-2.4375 C-2.875,-2.4375 2.875,-2.4375 2.875,-2.4375 C3.4268999099731445,-2.4375 3.875,-1.989400029182434 3.875,-1.4375z"></path></g></g><g style="display: block;" transform="matrix(1,0,0,1,400,300)" opacity="1"><g opacity="1" transform="matrix(1,0,0,1,0,0)"><path stroke-linecap="butt" stroke-linejoin="miter" fill-opacity="0" stroke-miterlimit="4" stroke="rgb(25,34,26)" stroke-opacity="1" stroke-width="4" d=" M-303,-24 C-303,-24 -181,97 -3,97 C175,97 328,-24 328,-24"></path></g></g></g></svg>