<svg xmlns="http://www.w3.org/2000/svg" xmlns:xlink="http://www.w3.org/1999/xlink" viewBox="0 0 800 600" width="800" height="600" style="width: 100%; height: 100%; transform: translate3d(0,0,0); content-visibility: visible;" preserveAspectRatio="xMidYMid meet"><defs><clipPath id="lottie-id"><rect width="800" height="600" x="0" y="0"></rect></clipPath><clipPath id="lottie-id"><path d="M0,0 L94,0 L94,71 L0,71z"></path></clipPath><clipPath id="lottie-id"><path fill="#ffffff" clip-rule="nonzero" d=" M-0.164000004529953,-38.1879997253418 C-0.164000004529953,-38.1879997253418 -36.91400146484375,-38.1879997253418 -36.91400146484375,-38.1879997253418 C-36.91400146484375,-38.1879997253418 -36.91400146484375,-17.437999725341797 -36.91400146484375,-17.437999725341797 C-36.91400146484375,-17.437999725341797 -0.164000004529953,-17.437999725341797 -0.164000004529953,-17.437999725341797 C-0.164000004529953,-17.437999725341797 -0.164000004529953,-38.1879997253418 -0.164000004529953,-38.1879997253418" fill-opacity="1"></path></clipPath></defs><g clip-path="url(#lottie-id)"><g style="display: block;" transform="matrix(1,0,0,1,400,300)" opacity="1"><path fill="rgb(255,214,103)" fill-opacity="1" d=" M-524.7304077148438,20 C-535.1763916015625,57.08300018310547 -459.14593505859375,87.87002563476562 -462.4609375,89.9000244140625 C-465.77593994140625,91.93002319335938 -554.2964477539062,72.1620101928711 -592.7924194335938,73.68701171875 C-631.2883911132812,75.2120132446289 -638.482177734375,161.97622680664062 -641.8482055664062,159.2462158203125 C-645.2141723632812,156.51622009277344 -651.5714111328125,61.70301055908203 -664.9174194335938,25.56201171875 C-678.263427734375,-10.578988075256348 -714.8372802734375,-91.48367309570312 -714.271240234375,-95.25367736816406 C-713.7052612304688,-99.023681640625 -671.6654052734375,-34.076988220214844 -641.4174194335938,-57.93798828125 C-611.16943359375,-81.79899597167969 -540.947509765625,-132.35028076171875 -536.3464965820312,-131.66629028320312 C-531.7454833984375,-130.98228454589844 -586.8323974609375,-82.76899719238281 -554.7924194335938,-61.375 C-522.75244140625,-39.98099899291992 -455.318115234375,-3.5948028564453125 -454.80413818359375,-0.80780029296875 C-454.29010009765625,1.9791984558105469 -514.284423828125,-17.08300018310547 -524.7304077148438,20z"></path></g><g clip-path="url(#lottie-id)" style="display: block;" transform="matrix(1,0,0,1,-266.73040771484375,264.5)" opacity="1"><g clip-path="url(#lottie-id)" style="display: block;" transform="matrix(1,0,0,1,61.28900146484375,55.5629997253418)" opacity="1"><g opacity="1" transform="matrix(1,0,0,1,-18,-28)"><path fill="rgb(60,59,58)" fill-opacity="1" d=" M0,-8 C4.967100143432617,-8 9,-4.415200233459473 9,0 C9,4.415200233459473 4.967100143432617,8 0,8 C-4.967100143432617,8 -9,4.415200233459473 -9,0 C-9,-4.415200233459473 -4.967100143432617,-8 0,-8z"></path></g></g></g><g style="display: block;" transform="matrix(1.5,0,0,2.3998398780822754,-164.41741943359375,376.1964111328125)" opacity="1"><g opacity="1" transform="matrix(1,0,0,1,-18,-28)"><path fill="rgb(60,59,58)" fill-opacity="1" d=" M12.5,0 C12.5,0 -12.5,0 -12.5,0 C-12.5,0 -11.534000396728516,10.692999839782715 0,11.111000061035156 C10.72599983215332,11.5 12.5,0 12.5,0z"></path></g></g><g style="display: block;" transform="matrix(1,0,0,1,-144.44140625,320.06201171875)" opacity="1"><g opacity="1" transform="matrix(1,0,0,1,-18,-28)"><path fill="rgb(60,59,58)" fill-opacity="1" d=" M0,-8 C4.967100143432617,-8 9,-4.415200233459473 9,0 C9,4.415200233459473 4.967100143432617,8 0,8 C-4.967100143432617,8 -9,4.415200233459473 -9,0 C-9,-4.415200233459473 -4.967100143432617,-8 0,-8z"></path></g></g></g></svg>