<svg xmlns="http://www.w3.org/2000/svg" xmlns:xlink="http://www.w3.org/1999/xlink" viewBox="0 0 800 600" width="800" height="600" style="width: 100%; height: 100%; transform: translate3d(0,0,0); content-visibility: visible;" preserveAspectRatio="xMidYMid meet"><defs><clipPath id="lottie-id"><rect width="800" height="600" x="0" y="0"></rect></clipPath><clipPath id="lottie-id"><path d="M0,0 L94,0 L94,71 L0,71z"></path></clipPath><clipPath id="lottie-id"><path fill="#ffffff" clip-rule="nonzero" d=" M-0.164000004529953,-38.1879997253418 C-0.164000004529953,-38.1879997253418 -36.91400146484375,-38.1879997253418 -36.91400146484375,-38.1879997253418 C-36.91400146484375,-38.1879997253418 -36.91400146484375,-17.437999725341797 -36.91400146484375,-17.437999725341797 C-36.91400146484375,-17.437999725341797 -0.164000004529953,-17.437999725341797 -0.164000004529953,-17.437999725341797 C-0.164000004529953,-17.437999725341797 -0.164000004529953,-38.1879997253418 -0.164000004529953,-38.1879997253418" fill-opacity="1"></path></clipPath></defs><g clip-path="url(#lottie-id)"><g style="display: block;" transform="matrix(1,0,0,1,400,300)" opacity="1"><path fill="rgb(255,214,103)" fill-opacity="1" d=" M902,20 C891.5540161132812,57.08300018310547 937.6279907226562,128.97000122070312 934.31298828125,131 C930.9979858398438,133.02999877929688 872.4339599609375,72.1620101928711 833.93798828125,73.68701171875 C795.4420166015625,75.2120132446289 741.7410278320312,141.48001098632812 738.375,138.75 C735.009033203125,136.02000427246094 775.1589965820312,61.70301055908203 761.81298828125,25.56201171875 C748.4669799804688,-10.578988075256348 669.8719482421875,-41.47999954223633 670.43798828125,-45.25 C671.0039672851562,-49.02000045776367 755.0650024414062,-34.076988220214844 785.31298828125,-57.93798828125 C815.5609741210938,-81.79899597167969 819.7739868164062,-167.37197875976562 824.375,-166.68798828125 C828.9760131835938,-166.0039825439453 839.8980102539062,-82.76899719238281 871.93798828125,-61.375 C903.9779663085938,-39.98099899291992 986.9860229492188,-60.59999084472656 987.5,-57.81298828125 C988.0140380859375,-55.0259895324707 912.4459838867188,-17.08300018310547 902,20z"></path></g><g clip-path="url(#lottie-id)" style="display: block;" transform="matrix(1,0,0,1,1160,264.5)" opacity="1"><g clip-path="url(#lottie-id)" style="display: block;" transform="matrix(1,0,0,1,61.28900146484375,55.5629997253418)" opacity="1"><g opacity="1" transform="matrix(1,0,0,1,-18,-28)"><path fill="rgb(60,59,58)" fill-opacity="1" d=" M0,-8 C4.967100143432617,-8 9,-4.415200233459473 9,0 C9,4.415200233459473 4.967100143432617,8 0,8 C-4.967100143432617,8 -9,4.415200233459473 -9,0 C-9,-4.415200233459473 -4.967100143432617,-8 0,-8z"></path></g></g></g><g style="display: block;" transform="matrix(1.5,0,0,2.3998398780822754,1262.31298828125,376.1964111328125)" opacity="1"><g opacity="1" transform="matrix(1,0,0,1,-18,-28)"><path fill="rgb(60,59,58)" fill-opacity="1" d=" M12.5,0 C12.5,0 -12.5,0 -12.5,0 C-12.5,0 -11.534000396728516,10.692999839782715 0,11.111000061035156 C10.72599983215332,11.5 12.5,0 12.5,0z"></path></g></g><g style="display: block;" transform="matrix(1,0,0,1,1282.2889404296875,320.06201171875)" opacity="1"><g opacity="1" transform="matrix(1,0,0,1,-18,-28)"><path fill="rgb(60,59,58)" fill-opacity="1" d=" M0,-8 C4.967100143432617,-8 9,-4.415200233459473 9,0 C9,4.415200233459473 4.967100143432617,8 0,8 C-4.967100143432617,8 -9,4.415200233459473 -9,0 C-9,-4.415200233459473 -4.967100143432617,-8 0,-8z"></path></g></g></g></svg>