<svg xmlns="http://www.w3.org/2000/svg" xmlns:xlink="http://www.w3.org/1999/xlink" viewBox="0 0 1820 275" width="1820" height="275" style="width: 100%; height: 100%; transform: translate3d(0,0,0); content-visibility: visible;" preserveAspectRatio="xMidYMid meet"><defs><clipPath id="lottie-id"><rect width="1820" height="275" x="0" y="0"></rect></clipPath><clipPath id="lottie-id"><path d="M0,0 L250,0 L250,275 L0,275z"></path></clipPath><clipPath id="lottie-id"><path d="M0,0 L200,0 L200,275 L0,275z"></path></clipPath><clipPath id="lottie-id"><path d="M0,0 L250,0 L250,275 L0,275z"></path></clipPath><clipPath id="lottie-id"><path d="M0,0 L250,0 L250,275 L0,275z"></path></clipPath><clipPath id="lottie-id"><path d="M0,0 L277,0 L277,180 L0,180z"></path></clipPath><clipPath id="lottie-id"><path d="M0,0 L250,0 L250,275 L0,275z"></path></clipPath><clipPath id="lottie-id"><path fill="#ffffff" clip-rule="nonzero" d=" M128.56100463867188,71.5530014038086 C75.84200286865234,71.5530014038086 38,110.31600189208984 38,160.0919952392578 C38,209.8679962158203 75.84200286865234,250.22000122070312 128.27200317382812,250.22000122070312 C182.14700317382812,250.22000122070312 221,209.79600524902344 221,160.02000427246094 C221,110.24400329589844 182.14700317382812,71.5530014038086 128.56100463867188,71.5530014038086" fill-opacity="1"></path></clipPath><clipPath id="lottie-id"><path d="M0,0 L250,0 L250,275 L0,275z"></path></clipPath><clipPath id="lottie-id"><path d="M0,0 L250,0 L250,275 L0,275z"></path></clipPath><clipPath id="lottie-id"><path d="M0,0 L250,0 L250,275 L0,275z"></path></clipPath><clipPath id="lottie-id"><path d="M0,0 L250,0 L250,275 L0,275z"></path></clipPath><clipPath id="lottie-id"><path d="M0,0 L250,0 L250,275 L0,275z"></path></clipPath><clipPath id="lottie-id"><path d="M0,0 L250,0 L250,275 L0,275z"></path></clipPath><clipPath id="lottie-id"><path d="M0,0 L56,0 L56,59 L0,59z"></path></clipPath><clipPath id="lottie-id"><path d="M0,0 L56,0 L56,59 L0,59z"></path></clipPath><clipPath id="lottie-id"><path d="M0,0 L56,0 L56,59 L0,59z"></path></clipPath><clipPath id="lottie-id"><path d="M0,0 L56,0 L56,59 L0,59z"></path></clipPath><clipPath id="lottie-id"><path d="M0,0 L56,0 L56,59 L0,59z"></path></clipPath><clipPath id="lottie-id"><path d="M0,0 L56,0 L56,59 L0,59z"></path></clipPath><clipPath id="lottie-id"><path d="M0,0 L56,0 L56,59 L0,59z"></path></clipPath><clipPath id="lottie-id"><path d="M0,0 L56,0 L56,59 L0,59z"></path></clipPath><clipPath id="lottie-id"><path d="M0,0 L250,0 L250,275 L0,275z"></path></clipPath><clipPath id="lottie-id"><path d="M0,0 L56,0 L56,59 L0,59z"></path></clipPath><clipPath id="lottie-id"><path d="M0,0 L56,0 L56,59 L0,59z"></path></clipPath><clipPath id="lottie-id"><path d="M0,0 L56,0 L56,59 L0,59z"></path></clipPath><clipPath id="lottie-id"><path d="M0,0 L56,0 L56,59 L0,59z"></path></clipPath><clipPath id="lottie-id"><path d="M0,0 L56,0 L56,59 L0,59z"></path></clipPath><clipPath id="lottie-id"><path d="M0,0 L56,0 L56,59 L0,59z"></path></clipPath><clipPath id="lottie-id"><path d="M0,0 L56,0 L56,59 L0,59z"></path></clipPath><clipPath id="lottie-id"><path d="M0,0 L56,0 L56,59 L0,59z"></path></clipPath><clipPath id="lottie-id"><path d="M0,0 L250,0 L250,275 L0,275z"></path></clipPath><clipPath id="lottie-id"><path d="M0,0 L56,0 L56,59 L0,59z"></path></clipPath><clipPath id="lottie-id"><path d="M0,0 L56,0 L56,59 L0,59z"></path></clipPath><clipPath id="lottie-id"><path d="M0,0 L56,0 L56,59 L0,59z"></path></clipPath><clipPath id="lottie-id"><path d="M0,0 L56,0 L56,59 L0,59z"></path></clipPath><clipPath id="lottie-id"><path d="M0,0 L56,0 L56,59 L0,59z"></path></clipPath><clipPath id="lottie-id"><path d="M0,0 L56,0 L56,59 L0,59z"></path></clipPath><clipPath id="lottie-id"><path d="M0,0 L56,0 L56,59 L0,59z"></path></clipPath><clipPath id="lottie-id"><path d="M0,0 L56,0 L56,59 L0,59z"></path></clipPath><clipPath id="lottie-id"><path d="M0,0 L250,0 L250,275 L0,275z"></path></clipPath><clipPath id="lottie-id"><path d="M0,0 L56,0 L56,59 L0,59z"></path></clipPath><clipPath id="lottie-id"><path d="M0,0 L56,0 L56,59 L0,59z"></path></clipPath><clipPath id="lottie-id"><path d="M0,0 L56,0 L56,59 L0,59z"></path></clipPath><clipPath id="lottie-id"><path d="M0,0 L56,0 L56,59 L0,59z"></path></clipPath><clipPath id="lottie-id"><path d="M0,0 L56,0 L56,59 L0,59z"></path></clipPath><clipPath id="lottie-id"><path d="M0,0 L56,0 L56,59 L0,59z"></path></clipPath><clipPath id="lottie-id"><path d="M0,0 L56,0 L56,59 L0,59z"></path></clipPath><clipPath id="lottie-id"><path d="M0,0 L56,0 L56,59 L0,59z"></path></clipPath><clipPath id="lottie-id"><path d="M0,0 L250,0 L250,275 L0,275z"></path></clipPath><clipPath id="lottie-id"><path d="M0,0 L250,0 L250,275 L0,275z"></path></clipPath><clipPath id="lottie-id"><path d="M0,0 L250,0 L250,275 L0,275z"></path></clipPath><clipPath id="lottie-id"><path d="M0,0 L250,0 L250,275 L0,275z"></path></clipPath><clipPath id="lottie-id"><path d="M0,0 L250,0 L250,275 L0,275z"></path></clipPath><clipPath id="lottie-id"><path fill="#ffffff" clip-rule="nonzero"></path></clipPath><clipPath id="lottie-id"><path d="M0,0 L250,0 L250,275 L0,275z"></path></clipPath><clipPath id="lottie-id"><path d="M0,0 L250,0 L250,275 L0,275z"></path></clipPath><clipPath id="lottie-id"><path fill="#ffffff" clip-rule="nonzero"></path></clipPath><clipPath id="lottie-id"><path d="M0,0 L250,0 L250,275 L0,275z"></path></clipPath><clipPath id="lottie-id"><path d="M0,0 L250,0 L250,275 L0,275z"></path></clipPath><clipPath id="lottie-id"><path d="M0,0 L250,0 L250,275 L0,275z"></path></clipPath></defs><g clip-path="url(#lottie-id)"><g style="display: block;" transform="matrix(1,0,0,1,-0.25,-0.25)" opacity="1"><g opacity="1" transform="matrix(1,0,0,1,910.25,137.75)"><path fill="rgb(87,213,111)" fill-opacity="1" d=" M-910,137.5 C-910,137.5 910,137.5 910,137.5 C910,137.5 910,-137.5 910,-137.5 C910,-137.5 -910,-137.5 -910,-137.5 C-910,-137.5 -910,137.5 -910,137.5z"></path></g></g><g clip-path="url(#lottie-id)" style="display: block;" transform="matrix(1,0,0,1,165,0)" opacity="1"><g clip-path="url(#lottie-id)" style="display: none;"><g style="display: none;"><g><path></path></g></g><g style="display: none;"><g><path></path></g></g><g style="display: none;"><g><path></path></g><g><path></path></g></g></g><g clip-path="url(#lottie-id)" style="display: none;"><g style="display: none;"><g><path></path></g></g><g style="display: none;"><g><path></path></g></g><g style="display: none;"><g><path></path></g><g><path></path></g></g></g><g style="display: none;"><g><path></path></g></g><g clip-path="url(#lottie-id)" style="display: none;"><g style="display: none;"><g><path></path></g></g><g style="display: none;"><g><path></path></g></g><g style="display: none;"><g><path></path></g><g><path></path></g></g></g><g clip-path="url(#lottie-id)" style="display: none;"><g clip-path="url(#lottie-id)"><g style="display: none;"><g><path></path></g></g></g></g><g clip-path="url(#lottie-id)" style="display: block;" transform="matrix(1,0,0,1,0,0)" opacity="1"><g style="display: block;" transform="matrix(1,0,0,1,68.6829833984375,84.3270034790039)" opacity="1"><g opacity="1" transform="matrix(1,0,0,1,60.06700134277344,78.61399841308594)"><path fill="rgb(255,219,67)" fill-opacity="1" d=" M5.788000106811523,74.93299865722656 C5.788000106811523,74.93299865722656 -59.81800079345703,74.93299865722656 -59.81800079345703,74.93299865722656 C-59.81800079345703,74.93299865722656 -59.81800079345703,-74.93299865722656 -59.81800079345703,-74.93299865722656 C-59.81800079345703,-74.93299865722656 -1.5010000467300415,-74.93299865722656 -1.5010000467300415,-74.93299865722656 C8.645999908447266,-74.93299865722656 17.39900016784668,-73.71700286865234 24.761999130249023,-71.28800201416016 C32.12200164794922,-68.85600280761719 37.6609992980957,-65.56900024414062 41.37900161743164,-61.42599868774414 C48.09600067138672,-53.707000732421875 51.45600128173828,-44.987998962402344 51.45600128173828,-35.26900100708008 C51.45600128173828,-23.54800033569336 47.66699981689453,-14.82800006866455 40.09199905395508,-9.11299991607666 C37.51900100708008,-7.109000205993652 35.73099899291992,-5.860000133514404 34.731998443603516,-5.361000061035156 C33.73099899291992,-4.857999801635742 31.94499969482422,-4.038000106811523 29.371999740600586,-2.8949999809265137 C38.6619987487793,-0.8920000195503235 46.058998107910156,3.2880001068115234 51.56399917602539,9.647000312805176 C57.06399917602539,16.009000778198242 59.81800079345703,23.905000686645508 59.81800079345703,33.3390007019043 C59.81800079345703,43.775001525878906 56.24300003051758,52.99300003051758 49.097999572753906,60.99700164794922 C40.80699920654297,70.28900146484375 26.3700008392334,74.93299865722656 5.788000106811523,74.93299865722656z M-26.371999740600586,-14.258000373840332 C-26.371999740600586,-14.258000373840332 -10.505999565124512,-14.258000373840332 -10.505999565124512,-14.258000373840332 C-1.2170000076293945,-14.258000373840332 5.682000160217285,-15.255999565124512 10.184000015258789,-17.260000228881836 C14.687000274658203,-19.260000228881836 16.937999725341797,-23.583999633789062 16.937999725341797,-30.229999542236328 C16.937999725341797,-36.87699890136719 14.86299991607666,-41.27299880981445 10.718999862670898,-43.41699981689453 C6.572000026702881,-45.56100082397461 -0.4300000071525574,-46.632999420166016 -10.291999816894531,-46.632999420166016 C-10.291999816894531,-46.632999420166016 -26.371999740600586,-46.632999420166016 -26.371999740600586,-46.632999420166016 C-26.371999740600586,-46.632999420166016 -26.371999740600586,-14.258000373840332 -26.371999740600586,-14.258000373840332z M-26.371999740600586,46.63199996948242 C-26.371999740600586,46.63199996948242 -3.430999994277954,46.63199996948242 -3.430999994277954,46.63199996948242 C6.14300012588501,46.63199996948242 13.326000213623047,45.45199966430664 18.115999221801758,43.09400177001953 C22.902999877929688,40.736000061035156 25.29800033569336,36.09299850463867 25.29800033569336,29.158000946044922 C25.29800033569336,22.22800064086914 22.760000228881836,17.65399932861328 17.687999725341797,15.437000274658203 C12.61299991607666,13.222999572753906 4.501999855041504,12.11299991607666 -6.646999835968018,12.11299991607666 C-6.646999835968018,12.11299991607666 -26.371999740600586,12.11299991607666 -26.371999740600586,12.11299991607666 C-26.371999740600586,12.11299991607666 -26.371999740600586,46.63199996948242 -26.371999740600586,46.63199996948242z"></path></g></g><g style="display: none;"><g><path></path></g></g></g><g style="display: none;"><g><path></path></g></g><g style="display: none;"><g></g><g><path></path></g></g><g clip-path="url(#lottie-id)" style="display: none;"><g><path></path></g></g><g style="display: none;"><g><path></path></g></g><g style="display: none;"><g><path></path></g></g><g style="display: none;"><g><path stroke-linecap="round" stroke-linejoin="miter" fill-opacity="0" stroke-miterlimit="4"></path></g></g><g style="display: none;"><g><path stroke-linecap="round" stroke-linejoin="miter" fill-opacity="0" stroke-miterlimit="4"></path></g></g><g style="display: none;"><g><path stroke-linecap="round" stroke-linejoin="miter" fill-opacity="0" stroke-miterlimit="4"></path></g></g></g><g clip-path="url(#lottie-id)" style="display: block;" transform="matrix(1,0,0,1,331,0)" opacity="1"><g style="display: block;" transform="matrix(1,0,0,1,-97.31599426269531,84.32599639892578)" opacity="1"><g opacity="1" transform="matrix(1,0,0,1,218.07899475097656,77.64800262451172)"><path fill="rgb(255,219,67)" fill-opacity="1" d=" M55.95800018310547,55.20800018310547 C40.805999755859375,70.0009994506836 22.152999877929688,77.39800262451172 0,77.39800262451172 C-22.156999588012695,77.39800262451172 -40.810001373291016,70.0009994506836 -55.95899963378906,55.20800018310547 C-71.11100006103516,40.41400146484375 -78.68399810791016,22.01300048828125 -78.68399810791016,0.0010000000474974513 C-78.68399810791016,-22.009000778198242 -71.11100006103516,-40.41299819946289 -55.95899963378906,-55.207000732421875 C-40.810001373291016,-70.0009994506836 -22.156999588012695,-77.39800262451172 0,-77.39800262451172 C22.152999877929688,-77.39800262451172 40.805999755859375,-70.0009994506836 55.95800018310547,-55.207000732421875 C71.10700225830078,-40.41299819946289 78.68399810791016,-22.009000778198242 78.68399810791016,0.0010000000474974513 C78.68399810791016,22.01300048828125 71.10700225830078,40.41400146484375 55.95800018310547,55.20800018310547z M44.595001220703125,0.10700000077486038 C44.595001220703125,-13.255999565124512 40.30699920654297,-24.6560001373291 31.731000900268555,-34.0890007019043 C23.155000686645508,-43.52299880981445 12.61299991607666,-48.2400016784668 0.10700000077486038,-48.2400016784668 C-12.402000427246094,-48.2400016784668 -22.940000534057617,-43.52299880981445 -31.516000747680664,-34.0890007019043 C-40.09199905395508,-24.6560001373291 -44.38100051879883,-13.255999565124512 -44.38100051879883,0.10700000077486038 C-44.38100051879883,13.472999572753906 -40.09199905395508,24.836999893188477 -31.516000747680664,34.196998596191406 C-22.940000534057617,43.560001373291016 -12.402000427246094,48.24100112915039 0.10700000077486038,48.24100112915039 C12.61299991607666,48.24100112915039 23.155000686645508,43.560001373291016 31.731000900268555,34.196998596191406 C40.30699920654297,24.836999893188477 44.595001220703125,13.472999572753906 44.595001220703125,0.10700000077486038z"></path></g></g><g style="display: none;"><g><path></path></g></g><g style="display: none;"><g><path></path></g></g><g clip-path="url(#lottie-id)" style="display: none;"><g style="display: none;"><g><path></path></g><g><path></path></g><g><path></path></g><g><path></path></g></g><g style="display: none;"><g><path></path></g></g><g style="display: none;"><g><path></path></g></g><g style="display: none;"><g><path></path></g></g><g style="display: none;"><g><path></path></g></g><g style="display: none;"><g><path></path></g></g><g style="display: none;"><g><path></path></g></g><g style="display: none;"><g><path></path></g></g><g style="display: none;"><g><path></path></g></g><g style="display: none;"><g><path></path></g><g><path></path></g><g><path></path></g></g><g style="display: none;"><g><path></path></g></g><g style="display: none;"><g><path></path></g></g><g style="display: none;"><g><path></path></g></g><g style="display: none;"><g><path></path></g><g><path></path></g><g><path></path></g></g><g style="display: none;"><g><path></path></g><g><path></path></g><g><path></path></g></g><g style="display: none;"><g><path></path></g><g><path></path></g><g><path></path></g></g><g style="display: none;"><g><path></path></g></g><g style="display: none;"><g><path></path></g></g><g style="display: none;"><g><path></path></g></g><g style="display: none;"><g><path></path></g></g><g style="display: none;"><g><path></path></g></g><g style="display: none;"><g><path></path></g></g><g style="display: none;"><g><path></path></g></g><g style="display: none;"><g><path></path></g></g><g style="display: none;"><g><path></path></g></g><g style="display: none;"><g><path></path></g><g><path></path></g><g><path></path></g></g><g style="display: none;"><g><path></path></g><g><path></path></g><g><path></path></g></g><g style="display: none;"><g><path></path></g></g><g style="display: none;"><g><path></path></g></g><g style="display: none;"><g><path></path></g></g><g style="display: none;"><g><path></path></g></g></g><g style="display: none;"><g><path></path></g><g><path></path></g><g><path></path></g><g><path></path></g></g><g style="display: none;"><g><path></path></g></g><g style="display: none;"><g><path></path></g></g><g style="display: none;"><g><path></path></g></g><g style="display: none;"><g><path></path></g></g><g style="display: none;"><g><path></path></g></g><g style="display: none;"><g><path></path></g><g><path></path></g><g><path></path></g></g><g style="display: none;"><g><path></path></g></g><g style="display: none;"><g><path></path></g></g><g style="display: none;"><g><path></path></g></g><g style="display: none;"><g><path></path></g><g><path></path></g><g><path></path></g></g><g style="display: none;"><g><path></path></g></g><g style="display: none;"><g><path></path></g></g><g style="display: none;"><g><path></path></g></g><g style="display: none;"><g><path></path></g><g><path></path></g><g><path></path></g></g><g style="display: none;"><g><path></path></g><g><path></path></g><g><path></path></g></g><g style="display: none;"><g><path></path></g><g><path></path></g><g><path></path></g></g><g style="display: none;"><g><path></path></g><g><path></path></g><g><path></path></g></g><g style="display: none;"><g><path></path></g></g><g style="display: none;"><g><path></path></g></g><g style="display: none;"><g><path></path></g></g><g style="display: none;"><g><path></path></g></g><g style="display: none;"><g><path></path></g></g><g style="display: none;"><g><path></path></g></g><g style="display: none;"><g><path></path></g></g><g style="display: none;"><g><path></path></g></g><g style="display: none;"><g><path></path></g></g><g style="display: none;"><g><path></path></g><g><path></path></g><g><path></path></g></g><g style="display: none;"><g><path></path></g><g><path></path></g><g><path></path></g></g><g style="display: none;"><g><path></path></g><g><path></path></g><g><path></path></g></g><g style="display: none;"><g><path></path></g></g><g style="display: none;"><g><path></path></g></g><g style="display: none;"><g><path></path></g></g><g style="display: none;"><g><path></path></g></g></g><g clip-path="url(#lottie-id)" style="display: block;" transform="matrix(1,0,0,1,498,0)" opacity="1"><g style="display: block;" transform="matrix(1,0,0,1,-264.3169860839844,84.3270034790039)" opacity="1"><g opacity="1" transform="matrix(1,0,0,1,393.0270080566406,78.61299896240234)"><path fill="rgb(255,219,67)" fill-opacity="1" d=" M46.525001525878906,-55.314998626708984 C60.816001892089844,-42.23699951171875 67.96499633789062,-24.04599952697754 67.96499633789062,-0.7509999871253967 C67.96499633789062,22.548999786376953 60.99700164794922,40.98699951171875 47.060001373291016,54.56399917602539 C33.124000549316406,68.1449966430664 11.862000465393066,74.93199920654297 -16.722999572753906,74.93199920654297 C-16.722999572753906,74.93199920654297 -67.96499633789062,74.93199920654297 -67.96499633789062,74.93199920654297 C-67.96499633789062,74.93199920654297 -67.96499633789062,5.125 -67.96499633789062,5.125 C-67.96499633789062,5.125 -67.96499633789062,-74.93199920654297 -67.96499633789062,-74.93199920654297 C-67.96499633789062,-74.93199920654297 -15.008000373840332,-74.93199920654297 -15.008000373840332,-74.93199920654297 C11.718000411987305,-74.93199920654297 32.22999954223633,-68.39299774169922 46.525001525878906,-55.314998626708984z M21.97599983215332,33.768001556396484 C30.19300079345703,26.049999237060547 34.30400085449219,14.831000328063965 34.30400085449219,0.1080000028014183 C34.30400085449219,-14.61299991607666 30.19300079345703,-25.941999435424805 21.97599983215332,-33.875 C13.755000114440918,-41.80799865722656 1.1419999599456787,-45.77399826049805 -15.866000175476074,-45.77399826049805 C-15.866000175476074,-45.77399826049805 -34.51900100708008,-45.77399826049805 -34.51900100708008,-45.77399826049805 C-34.51900100708008,-45.77399826049805 -34.51900100708008,-31.788000106811523 -34.51900100708008,-31.788000106811523 C-34.51900100708008,-31.788000106811523 -34.51900100708008,29.243999481201172 -34.51900100708008,29.243999481201172 C-34.51900100708008,29.243999481201172 -34.51900100708008,45.34600067138672 -34.51900100708008,45.34600067138672 C-34.51900100708008,45.34600067138672 -13.293000221252441,45.34600067138672 -13.293000221252441,45.34600067138672 C2,45.34600067138672 13.755000114440918,41.48699951171875 21.97599983215332,33.768001556396484z"></path></g></g><g clip-path="url(#lottie-id)" style="display: block;" transform="matrix(1,0,0,1,0,0)" opacity="1"><g style="display: none;"><g><path></path></g></g><g style="display: none;"><g><path></path></g></g><g style="display: none;"><g><path></path></g></g><g style="display: none;"><g><path></path></g></g><g style="display: none;"><g><path></path></g></g><g style="display: none;"><g><path></path></g></g><g style="display: none;"><g><path></path></g></g><g style="display: none;"><g><path></path></g></g><g style="display: none;"><g><path></path></g></g><g style="display: none;"><g><path></path></g></g><g style="display: none;"><g><path></path></g></g><g style="display: none;"><g><path></path></g></g><g style="display: none;"><g><path></path></g></g><g style="display: none;"><g><path></path></g></g><g style="display: none;"><g><path></path></g></g><g style="display: none;"><g><path></path></g></g><g style="display: none;"><g><path></path></g></g><g style="display: none;"><g><path></path></g></g><g style="display: none;"><g><path></path></g></g><g style="display: none;"><g><path></path></g></g><g style="display: none;"><g><path></path></g></g><g style="display: none;"><g><path></path></g></g><g style="display: none;"><g><path></path></g></g><g style="display: none;"><g><path></path></g></g><g style="display: none;"><g><path></path></g></g><g style="display: none;"><g><path></path></g></g><g style="display: none;"><g><path></path></g></g><g style="display: none;"><g><path></path></g></g><g style="display: none;"><g><path></path></g></g><g style="display: none;"><g><path></path></g></g></g><g clip-path="url(#lottie-id)" style="display: none;"><g style="display: none;"><g><path></path></g></g><g style="display: none;"><g><path></path></g></g><g style="display: none;"><g><path></path></g></g><g style="display: none;"><g><path></path></g></g><g style="display: none;"><g><path></path></g></g><g style="display: none;"><g><path></path></g></g><g style="display: none;"><g><path></path></g></g><g style="display: none;"><g><path></path></g></g><g style="display: none;"><g><path></path></g></g><g style="display: none;"><g><path></path></g></g><g style="display: none;"><g><path></path></g></g><g style="display: none;"><g><path></path></g></g><g style="display: none;"><g><path></path></g></g><g style="display: none;"><g><path></path></g></g><g style="display: none;"><g><path></path></g></g><g style="display: none;"><g><path></path></g></g><g style="display: none;"><g><path></path></g></g><g style="display: none;"><g><path></path></g></g><g style="display: none;"><g><path></path></g></g><g style="display: none;"><g><path></path></g></g><g style="display: none;"><g><path></path></g></g><g style="display: none;"><g><path></path></g></g><g style="display: none;"><g><path></path></g></g><g style="display: none;"><g><path></path></g></g><g style="display: none;"><g><path></path></g></g><g style="display: none;"><g><path></path></g></g><g style="display: none;"><g><path></path></g></g><g style="display: none;"><g><path></path></g></g><g style="display: none;"><g><path></path></g></g><g style="display: none;"><g><path></path></g></g></g><g clip-path="url(#lottie-id)" style="display: none;"><g clip-path="url(#lottie-id)" style="display: none;"><g style="display: none;"><g><path></path></g></g></g><g clip-path="url(#lottie-id)" style="display: none;"><g style="display: none;"><g><path></path></g></g></g><g clip-path="url(#lottie-id)" style="display: none;"><g style="display: none;"><g><path></path></g></g></g><g clip-path="url(#lottie-id)" style="display: none;"><g style="display: none;"><g><path></path></g></g></g><g clip-path="url(#lottie-id)" style="display: none;"><g style="display: none;"><g><path></path></g></g></g><g clip-path="url(#lottie-id)" style="display: none;"><g style="display: none;"><g><path></path></g></g></g><g clip-path="url(#lottie-id)" style="display: none;"><g style="display: none;"><g><path></path></g></g></g><g clip-path="url(#lottie-id)" style="display: none;"><g style="display: none;"><g><path></path></g></g></g></g><g style="display: none;"><g><path></path></g></g><g clip-path="url(#lottie-id)" style="display: none;"><g clip-path="url(#lottie-id)" style="display: none;"><g style="display: none;"><g><path></path></g></g></g><g clip-path="url(#lottie-id)" style="display: none;"><g style="display: none;"><g><path></path></g></g></g><g clip-path="url(#lottie-id)" style="display: none;"><g style="display: none;"><g><path></path></g></g></g><g clip-path="url(#lottie-id)" style="display: none;"><g style="display: none;"><g><path></path></g></g></g><g clip-path="url(#lottie-id)" style="display: none;"><g style="display: none;"><g><path></path></g></g></g><g clip-path="url(#lottie-id)" style="display: none;"><g style="display: none;"><g><path></path></g></g></g><g clip-path="url(#lottie-id)" style="display: none;"><g style="display: none;"><g><path></path></g></g></g><g clip-path="url(#lottie-id)" style="display: none;"><g style="display: none;"><g><path></path></g></g></g></g><g clip-path="url(#lottie-id)" style="display: none;"><g clip-path="url(#lottie-id)" style="display: none;"><g style="display: none;"><g><path></path></g></g></g><g clip-path="url(#lottie-id)" style="display: none;"><g style="display: none;"><g><path></path></g></g></g><g clip-path="url(#lottie-id)" style="display: none;"><g style="display: none;"><g><path></path></g></g></g><g clip-path="url(#lottie-id)" style="display: none;"><g style="display: none;"><g><path></path></g></g></g><g clip-path="url(#lottie-id)" style="display: none;"><g style="display: none;"><g><path></path></g></g></g><g clip-path="url(#lottie-id)" style="display: none;"><g style="display: none;"><g><path></path></g></g></g><g clip-path="url(#lottie-id)" style="display: none;"><g style="display: none;"><g><path></path></g></g></g><g clip-path="url(#lottie-id)" style="display: none;"><g style="display: none;"><g><path></path></g></g></g></g><g clip-path="url(#lottie-id)" style="display: none;"><g clip-path="url(#lottie-id)" style="display: none;"><g style="display: none;"><g><path></path></g></g></g><g clip-path="url(#lottie-id)" style="display: none;"><g style="display: none;"><g><path></path></g></g></g><g clip-path="url(#lottie-id)" style="display: none;"><g style="display: none;"><g><path></path></g></g></g><g clip-path="url(#lottie-id)" style="display: none;"><g style="display: none;"><g><path></path></g></g></g><g clip-path="url(#lottie-id)" style="display: none;"><g style="display: none;"><g><path></path></g></g></g><g clip-path="url(#lottie-id)" style="display: none;"><g style="display: none;"><g><path></path></g></g></g><g clip-path="url(#lottie-id)" style="display: none;"><g style="display: none;"><g><path></path></g></g></g><g clip-path="url(#lottie-id)" style="display: none;"><g style="display: none;"><g><path></path></g></g></g></g><g clip-path="url(#lottie-id)" style="display: block;" transform="matrix(1,0,0,1,0,0)" opacity="1"><g style="display: none;"><g><path></path></g></g><g style="display: none;"><g><path></path></g></g><g style="display: none;"><g><path></path></g></g><g style="display: none;"><g><path></path></g></g><g style="display: none;"><g><path></path></g></g><g style="display: none;"><g><path></path></g></g><g style="display: none;"><g><path></path></g></g><g style="display: none;"><g><path></path></g></g><g style="display: none;"><g><path></path></g></g><g style="display: none;"><g><path></path></g></g></g><g style="display: none;"><g><path stroke-linecap="round" stroke-linejoin="miter" fill-opacity="0" stroke-miterlimit="4"></path></g></g><g style="display: none;"><g><path stroke-linecap="round" stroke-linejoin="miter" fill-opacity="0" stroke-miterlimit="4"></path></g></g></g><g clip-path="url(#lottie-id)" style="display: block;" transform="matrix(1,0,0,1,640,0)" opacity="1"><g style="display: block;" transform="matrix(1,0,0,1,-406.3169860839844,84.3270034790039)" opacity="1"><g opacity="1" transform="matrix(1,0,0,1,532.60400390625,78.61399841308594)"><path fill="rgb(255,219,67)" fill-opacity="1" d=" M16.722999572753906,74.93299865722656 C16.722999572753906,74.93299865722656 -16.722999572753906,74.93299865722656 -16.722999572753906,74.93299865722656 C-16.722999572753906,74.93299865722656 -16.722999572753906,15.758000373840332 -16.722999572753906,15.758000373840332 C-16.722999572753906,15.758000373840332 -68.60800170898438,-74.93299865722656 -68.60800170898438,-74.93299865722656 C-68.60800170898438,-74.93299865722656 -32.375,-74.93299865722656 -32.375,-74.93299865722656 C-32.375,-74.93299865722656 0,-19.18899917602539 0,-19.18899917602539 C0,-19.18899917602539 32.374000549316406,-74.93299865722656 32.374000549316406,-74.93299865722656 C32.374000549316406,-74.93299865722656 68.60800170898438,-74.93299865722656 68.60800170898438,-74.93299865722656 C68.60800170898438,-74.93299865722656 16.722999572753906,15.758000373840332 16.722999572753906,15.758000373840332 C16.722999572753906,15.758000373840332 16.722999572753906,74.93299865722656 16.722999572753906,74.93299865722656z"></path></g></g><g style="display: none;"><g><path></path></g></g><g style="display: none;"><g><path></path></g></g><g style="display: none;"><g><path></path></g></g><g style="display: none;"><g><path></path></g></g><g style="display: none;"><g><path></path></g></g><g style="display: none;"><g><path></path></g></g><g style="display: none;"><g><path></path></g></g><g style="display: none;"><g><path></path></g></g><g style="display: none;"><g><path></path></g></g><g style="display: none;"><g><path></path></g></g><g style="display: none;"><g><path></path></g></g><g style="display: none;"><g><path></path></g></g><g style="display: none;"><g><path></path></g></g><g clip-path="url(#lottie-id)" style="display: none;"><g style="display: none;"><g><path></path></g></g><g style="display: none;"><g><path></path></g></g><g style="display: none;"><g><path></path></g></g><g style="display: none;"><g><path></path></g></g><g style="display: none;"><g><path></path></g></g></g><g style="display: none;"><g><path stroke-linecap="round" stroke-linejoin="miter" fill-opacity="0" stroke-miterlimit="4"></path></g></g><g style="display: none;"><g><path stroke-linecap="round" stroke-linejoin="miter" fill-opacity="0" stroke-miterlimit="4"></path></g></g><g style="display: none;"><g><path stroke-linecap="round" stroke-linejoin="miter" fill-opacity="0" stroke-miterlimit="4"></path></g></g><g style="display: none;"><g><path stroke-linecap="round" stroke-linejoin="miter" fill-opacity="0" stroke-miterlimit="4"></path></g></g><g style="display: none;"><g><path stroke-linecap="round" stroke-linejoin="miter" fill-opacity="0" stroke-miterlimit="4"></path></g></g><g style="display: none;"><g><path stroke-linecap="round" stroke-linejoin="miter" fill-opacity="0" stroke-miterlimit="4"></path></g></g><g style="display: none;"><g><path stroke-linecap="butt" stroke-linejoin="miter" fill-opacity="0" stroke-miterlimit="4"></path></g></g><g style="display: none;"><g><path stroke-linecap="butt" stroke-linejoin="miter" fill-opacity="0" stroke-miterlimit="4"></path></g></g><g style="display: none;"><g><path></path></g></g></g><g clip-path="url(#lottie-id)" style="display: block;" transform="matrix(1,0,0,1,807,0)" opacity="1"><g style="display: none;"><g><path></path></g></g><g style="display: none;"><g><path></path></g></g><g style="display: none;"><g><path></path></g></g><g style="display: none;"><g><path></path></g></g><g style="display: none;"><g><path></path></g></g><g style="display: none;"><g><path></path></g></g><g style="display: none;"><g><path></path></g></g><g style="display: none;"><g><path></path></g></g><g style="display: none;"><g><path></path></g></g><g style="display: none;"><g><path></path></g></g><g style="display: none;"><g><path></path></g></g><g style="display: none;"><g><path></path></g></g><g style="display: none;"><g><path></path></g></g><g style="display: none;"><g><path></path></g></g><g style="display: none;"><g><path></path></g></g><g style="display: none;"><g><path></path></g></g><g style="display: none;"><g><path></path></g></g><g style="display: none;"><g><path></path></g></g><g style="display: none;"><g><path></path></g></g><g style="display: none;"><g><path></path></g></g><g style="display: none;"><g><path></path></g></g><g style="display: none;"><g><path></path></g></g><g style="display: none;"><g><path></path></g></g><g style="display: none;"><g><path></path></g></g><g style="display: none;"><g><path></path></g></g><g style="display: none;"><g><path></path></g></g><g style="display: none;"><g><path></path></g></g><g style="display: none;"><g><path></path></g></g><g style="display: none;"><g><path></path></g></g><g style="display: none;"><g><path></path></g></g><g style="display: none;"><g><path></path></g></g><g style="display: none;"><g><path></path></g></g><g style="display: none;"><g><path></path></g></g><g style="display: block;" transform="matrix(1,0,0,1,-573.3170166015625,84.3270034790039)" opacity="1"><g opacity="1" transform="matrix(1,0,0,1,700.7219848632812,78.61399841308594)"><path fill="rgb(255,219,67)" fill-opacity="1" d=" M50.382999420166016,-19.40399932861328 C50.382999420166016,-19.40399932861328 9.862000465393066,62.49700164794922 9.862000465393066,62.49700164794922 C9.862000465393066,62.49700164794922 -10.07699966430664,62.49700164794922 -10.07699966430664,62.49700164794922 C-10.07699966430664,62.49700164794922 -50.3849983215332,-19.40399932861328 -50.3849983215332,-19.40399932861328 C-50.3849983215332,-19.40399932861328 -50.3849983215332,74.93199920654297 -50.3849983215332,74.93199920654297 C-50.3849983215332,74.93199920654297 -83.83000183105469,74.93199920654297 -83.83000183105469,74.93199920654297 C-83.83000183105469,74.93199920654297 -83.83000183105469,-74.93199920654297 -83.83000183105469,-74.93199920654297 C-83.83000183105469,-74.93199920654297 -38.59299850463867,-74.93199920654297 -38.59299850463867,-74.93199920654297 C-38.59299850463867,-74.93199920654297 -0.0010000000474974513,7.395999908447266 -0.0010000000474974513,7.395999908447266 C-0.0010000000474974513,7.395999908447266 38.805999755859375,-74.93199920654297 38.805999755859375,-74.93199920654297 C38.805999755859375,-74.93199920654297 83.83000183105469,-74.93199920654297 83.83000183105469,-74.93199920654297 C83.83000183105469,-74.93199920654297 83.83000183105469,74.93199920654297 83.83000183105469,74.93199920654297 C83.83000183105469,74.93199920654297 50.382999420166016,74.93199920654297 50.382999420166016,74.93199920654297 C50.382999420166016,74.93199920654297 50.382999420166016,-19.40399932861328 50.382999420166016,-19.40399932861328z"></path></g></g><g style="display: none;"><g><path></path></g></g><g style="display: none;"><g><path></path></g></g><g style="display: none;"><g><path></path></g></g><g style="display: none;"><g><path stroke-linecap="butt" stroke-linejoin="miter" fill-opacity="0" stroke-miterlimit="4"></path></g></g><g style="display: none;"><g><path stroke-linecap="butt" stroke-linejoin="miter" fill-opacity="0" stroke-miterlimit="4"></path></g></g><g style="display: none;"><g><path stroke-linecap="butt" stroke-linejoin="miter" fill-opacity="0" stroke-miterlimit="4"></path></g></g><g style="display: none;"><g><path stroke-linecap="butt" stroke-linejoin="miter" fill-opacity="0" stroke-miterlimit="4"></path></g></g><g style="display: none;"><g><path stroke-linecap="butt" stroke-linejoin="miter" fill-opacity="0" stroke-miterlimit="4"></path></g></g></g><g clip-path="url(#lottie-id)" style="display: block;" transform="matrix(1,0,0,1,998,0)" opacity="1"><g clip-path="url(#lottie-id)" style="display: block;" transform="matrix(1,0,0,1,0,0)" opacity="1"><g clip-path="url(#lottie-id)"><g style="display: block;" transform="matrix(1,0,0,1,-764.3170166015625,84.3270034790039)" opacity="1"><g opacity="1" transform="matrix(1,0,0,1,891.5360107421875,77.64800262451172)"><path fill="rgb(255,219,67)" fill-opacity="1" d=" M55.95800018310547,55.20800018310547 C40.805999755859375,70.0009994506836 22.15399932861328,77.39800262451172 -0.0010000000474974513,77.39800262451172 C-22.156999588012695,77.39800262451172 -40.810001373291016,70.0009994506836 -55.95899963378906,55.20800018310547 C-71.11100006103516,40.41400146484375 -78.68499755859375,22.01300048828125 -78.68499755859375,0.0010000000474974513 C-78.68499755859375,-22.009000778198242 -71.11100006103516,-40.41299819946289 -55.95899963378906,-55.207000732421875 C-40.810001373291016,-70.0009994506836 -22.156999588012695,-77.39800262451172 -0.0010000000474974513,-77.39800262451172 C22.15399932861328,-77.39800262451172 40.805999755859375,-70.0009994506836 55.95800018310547,-55.207000732421875 C71.10700225830078,-40.41299819946289 78.68499755859375,-22.009000778198242 78.68499755859375,0.0010000000474974513 C78.68499755859375,22.01300048828125 71.10700225830078,40.41400146484375 55.95800018310547,55.20800018310547z M44.595001220703125,0.10700000077486038 C44.595001220703125,-13.255999565124512 40.30699920654297,-24.6560001373291 31.731000900268555,-34.0890007019043 C23.155000686645508,-43.52299880981445 12.61299991607666,-48.2400016784668 0.10700000077486038,-48.2400016784668 C-12.402000427246094,-48.2400016784668 -22.94099998474121,-43.52299880981445 -31.517000198364258,-34.0890007019043 C-40.09299850463867,-24.6560001373291 -44.38199996948242,-13.255999565124512 -44.38199996948242,0.10700000077486038 C-44.38199996948242,13.472999572753906 -40.09299850463867,24.836999893188477 -31.517000198364258,34.196998596191406 C-22.94099998474121,43.560001373291016 -12.402000427246094,48.24100112915039 0.10700000077486038,48.24100112915039 C12.61299991607666,48.24100112915039 23.155000686645508,43.560001373291016 31.731000900268555,34.196998596191406 C40.30699920654297,24.836999893188477 44.595001220703125,13.472999572753906 44.595001220703125,0.10700000077486038z"></path></g></g><g style="display: none;"><g><path></path></g></g><g style="display: none;"><g><path></path></g></g><g style="display: none;"><g><path></path></g></g><g style="display: none;"><g><path></path></g></g><g style="display: none;"><g><path></path></g></g><g style="display: none;"><g><path></path></g></g><g style="display: none;"><g><path></path></g></g><g style="display: none;"><g><path></path></g></g><g style="display: none;"><g><path></path></g></g><g style="display: none;"><g><path></path></g></g><g style="display: none;"><g><path></path></g></g><g style="display: none;"><g><path></path></g></g><g style="display: none;"><g><path></path></g></g><g style="display: none;"><g><path></path></g></g></g></g><g style="display: none;"><g><path stroke-linecap="round" stroke-linejoin="miter" fill-opacity="0" stroke-miterlimit="4"></path></g></g><g style="display: none;"><g><path stroke-linecap="round" stroke-linejoin="miter" fill-opacity="0" stroke-miterlimit="4"></path></g></g><g style="display: none;"><g><path stroke-linecap="round" stroke-linejoin="miter" fill-opacity="0" stroke-miterlimit="4"></path></g></g><g clip-path="url(#lottie-id)" style="display: none;"><g style="display: none;"><g><path stroke-linecap="butt" stroke-linejoin="miter" fill-opacity="0" stroke-miterlimit="10"></path></g></g><g style="display: none;"><g><path></path></g></g><g style="display: none;"><g><path></path></g></g><g style="display: none;"><g><path></path></g></g><g style="display: none;"><g><path stroke-linecap="butt" stroke-linejoin="miter" fill-opacity="0" stroke-miterlimit="10"></path></g></g><g style="display: none;"><g><path></path></g></g></g></g><g clip-path="url(#lottie-id)" style="display: block;" transform="matrix(1,0,0,1,1161,0)" opacity="1"><g style="display: block;" transform="matrix(1,0,0,1,-927.3170166015625,84.3270034790039)" opacity="1"><g opacity="1" transform="matrix(1,0,0,1,1050.405029296875,78.61399841308594)"><path fill="rgb(255,219,67)" fill-opacity="1" d=" M0.0010000000474974513,20.475000381469727 C0.0010000000474974513,20.475000381469727 38.16400146484375,-74.93199920654297 38.16400146484375,-74.93199920654297 C38.16400146484375,-74.93199920654297 74.39700317382812,-74.93199920654297 74.39700317382812,-74.93199920654297 C74.39700317382812,-74.93199920654297 14.151000022888184,74.93199920654297 14.151000022888184,74.93199920654297 C14.151000022888184,74.93199920654297 -14.14900016784668,74.93199920654297 -14.14900016784668,74.93199920654297 C-14.14900016784668,74.93199920654297 -74.39700317382812,-74.93199920654297 -74.39700317382812,-74.93199920654297 C-74.39700317382812,-74.93199920654297 -38.16299819946289,-74.93199920654297 -38.16299819946289,-74.93199920654297 C-38.16299819946289,-74.93199920654297 0.0010000000474974513,20.475000381469727 0.0010000000474974513,20.475000381469727z"></path></g></g><g style="display: none;"><g><path></path></g></g><g style="display: none;"><g><path></path></g></g><g style="display: none;"><g><path stroke-linecap="butt" stroke-linejoin="miter" fill-opacity="0" stroke-miterlimit="10"></path></g></g><g style="display: none;"><g><path stroke-linecap="butt" stroke-linejoin="miter" fill-opacity="0" stroke-miterlimit="10"></path></g></g><g style="display: none;"><g><path></path></g></g><g style="display: none;"><g><path></path></g></g><g style="display: none;"><g><path></path></g></g><g style="display: none;"><g><path></path></g></g><g style="display: none;"><g><path stroke-linecap="round" stroke-linejoin="round" fill-opacity="0"></path></g></g><g style="display: none;"><g><path stroke-linecap="round" stroke-linejoin="round" fill-opacity="0"></path></g></g><g style="display: none;"><g><path stroke-linecap="round" stroke-linejoin="round" fill-opacity="0"></path></g></g><g style="display: none;"><g><path stroke-linecap="round" stroke-linejoin="round" fill-opacity="0"></path></g></g><g style="display: none;"><g><path stroke-linecap="round" stroke-linejoin="round" fill-opacity="0"></path></g></g></g><g clip-path="url(#lottie-id)" style="display: block;" transform="matrix(1,0,0,1,1293,0)" opacity="1"><g style="display: block;" transform="matrix(1,0,0,1,-1059.3170166015625,84.3270034790039)" opacity="1"><g opacity="1" transform="matrix(1,0,0,1,1159.3179931640625,78.61399841308594)"><path fill="rgb(255,219,67)" fill-opacity="1" d=" M-16.722999572753906,-74.93299865722656 C-16.722999572753906,-74.93299865722656 16.722999572753906,-74.93299865722656 16.722999572753906,-74.93299865722656 C16.722999572753906,-74.93299865722656 16.722999572753906,74.93299865722656 16.722999572753906,74.93299865722656 C16.722999572753906,74.93299865722656 -16.722999572753906,74.93299865722656 -16.722999572753906,74.93299865722656 C-16.722999572753906,74.93299865722656 -16.722999572753906,-74.93299865722656 -16.722999572753906,-74.93299865722656z"></path></g></g><g style="display: none;"><g><path></path></g></g><g style="display: none;"><g><path></path></g><g><path></path></g></g><g style="display: none;"><g><path></path></g><g><path></path></g></g><g style="display: none;"><g></g><g></g><g><path></path></g><g><path></path></g></g><g style="display: none;"><g><path></path></g><g><path></path></g></g><g style="display: none;"><g><path></path></g><g><path></path></g></g><g style="display: none;"><g></g><g></g><g><path></path></g><g><path></path></g></g></g><g clip-path="url(#lottie-id)" style="display: block;" transform="matrix(1,0,0,1,1388,0)" opacity="1"><g style="display: block;" transform="matrix(1,0,0,1,-1154.3170166015625,84.3270034790039)" opacity="1"><g opacity="1" transform="matrix(1,0,0,1,1282.0589599609375,78.61299896240234)"><path fill="rgb(255,219,67)" fill-opacity="1" d=" M35.698001861572266,-74.93299865722656 C35.698001861572266,-74.93299865722656 69.14399719238281,-74.93299865722656 69.14399719238281,-74.93299865722656 C69.14399719238281,-74.93299865722656 69.14399719238281,74.93299865722656 69.14399719238281,74.93299865722656 C69.14399719238281,74.93299865722656 35.698001861572266,74.93299865722656 35.698001861572266,74.93299865722656 C35.698001861572266,74.93299865722656 -35.698001861572266,-18.975000381469727 -35.698001861572266,-18.975000381469727 C-35.698001861572266,-18.975000381469727 -35.698001861572266,74.93299865722656 -35.698001861572266,74.93299865722656 C-35.698001861572266,74.93299865722656 -69.14399719238281,74.93299865722656 -69.14399719238281,74.93299865722656 C-69.14399719238281,74.93299865722656 -69.14399719238281,-74.93299865722656 -69.14399719238281,-74.93299865722656 C-69.14399719238281,-74.93299865722656 -37.840999603271484,-74.93299865722656 -37.840999603271484,-74.93299865722656 C-37.840999603271484,-74.93299865722656 35.698001861572266,21.54599952697754 35.698001861572266,21.54599952697754 C35.698001861572266,21.54599952697754 35.698001861572266,-74.93299865722656 35.698001861572266,-74.93299865722656z"></path></g></g><g style="display: none;"><g><path></path></g></g><g style="display: none;"><g><path></path></g></g><g style="display: none;"><g><path></path></g></g><g style="display: none;"><g><path></path></g></g><g style="display: none;"><g><path></path></g></g><g style="display: none;"><g><path></path></g></g><g style="display: none;"><g><path></path></g></g><g style="display: none;"><g><path></path></g></g><g style="display: none;"><g><path></path></g></g><g style="display: none;"><g><path></path></g></g><g style="display: none;"><g><path></path></g></g><g style="display: none;"><g><path></path></g></g><g style="display: none;"><g><path></path></g></g><g style="display: none;"><g><path></path></g></g><g style="display: none;"><g><path></path></g></g><g style="display: none;"><g><path></path></g></g></g></g></svg>