<svg xmlns="http://www.w3.org/2000/svg" xmlns:xlink="http://www.w3.org/1999/xlink" viewBox="0 0 1920 1080" width="1920" height="1080" style="width: 100%; height: 100%; transform: translate3d(0,0,0); content-visibility: visible;" preserveAspectRatio="xMidYMid meet"><defs><clipPath id="lottie-id"><rect width="1920" height="1080" x="0" y="0"></rect></clipPath><clipPath id="lottie-id"><path fill="#ffffff" clip-rule="nonzero" d=" M960,168 C874.0070190429688,169.1020050048828 811,244 818,346 C818.1530151367188,348.2309875488281 889.4119873046875,348 959,348 C1039,348 1094,346 1094,347 C1105,239 1038,167 960,168"></path></clipPath><clipPath id="lottie-id"><path fill="#ffffff" clip-rule="nonzero" d=" M410,90 C410,90 90,90 90,90 C90,90 90,410 90,410 C90,410 410,410 410,410 C410,410 410,90 410,90" fill-opacity="1"></path></clipPath><clipPath id="lottie-id"><path fill="#ffffff" clip-rule="nonzero" d=" M70.06500244140625,36.948001861572266 C45.78799819946289,37.46099853515625 28,72.29199981689453 29.97599983215332,119.72799682617188 C30.018999099731445,120.76499938964844 50.13600158691406,120.65799713134766 69.78199768066406,120.65799713134766 C92.36699676513672,120.65799713134766 107.8949966430664,119.72799682617188 107.8949966430664,120.19300079345703 C111,69.96700286865234 92.08499908447266,36.483001708984375 70.06500244140625,36.948001861572266"></path></clipPath><clipPath id="lottie-id"><path fill="#ffffff" clip-rule="nonzero"></path></clipPath><clipPath id="lottie-id"><path fill="#ffffff" clip-rule="nonzero" d=" M265.1929931640625,-9.75 C265.1929931640625,-9.75 -8.307000160217285,-9.75 -8.307000160217285,-9.75 C-8.307000160217285,-9.75 -8.307000160217285,-6.75 -8.307000160217285,-6.75 C-8.307000160217285,-6.75 265.1929931640625,-6.75 265.1929931640625,-6.75 C265.1929931640625,-6.75 265.1929931640625,-9.75 265.1929931640625,-9.75" fill-opacity="1"></path></clipPath><clipPath id="lottie-id"><path fill="#ffffff" clip-rule="nonzero" d=" M269.1929931640625,-3.75 C269.1929931640625,-3.75 -4.307000160217285,-3.75 -4.307000160217285,-3.75 C-4.307000160217285,-3.75 -4.307000160217285,-0.75 -4.307000160217285,-0.75 C-4.307000160217285,-0.75 269.1929931640625,-0.75 269.1929931640625,-0.75 C269.1929931640625,-0.75 269.1929931640625,-3.75 269.1929931640625,-3.75" fill-opacity="1"></path></clipPath><clipPath id="lottie-id"><path fill="#ffffff" clip-rule="nonzero" d=" M282.1929931640625,-5.75 C282.1929931640625,-5.75 8.692999839782715,-5.75 8.692999839782715,-5.75 C8.692999839782715,-5.75 8.692999839782715,-2.75 8.692999839782715,-2.75 C8.692999839782715,-2.75 282.1929931640625,-2.75 282.1929931640625,-2.75 C282.1929931640625,-2.75 282.1929931640625,-5.75 282.1929931640625,-5.75" fill-opacity="1"></path></clipPath><clipPath id="lottie-id"><path fill="#ffffff" clip-rule="nonzero" d=" M268.1929931640625,-7.75 C268.1929931640625,-7.75 -5.307000160217285,-7.75 -5.307000160217285,-7.75 C-5.307000160217285,-7.75 -5.307000160217285,-4.75 -5.307000160217285,-4.75 C-5.307000160217285,-4.75 268.1929931640625,-4.75 268.1929931640625,-4.75 C268.1929931640625,-4.75 268.1929931640625,-7.75 268.1929931640625,-7.75" fill-opacity="1"></path></clipPath><clipPath id="lottie-id"><path fill="#ffffff" clip-rule="nonzero"></path></clipPath><clipPath id="lottie-id"><path fill="#ffffff" clip-rule="nonzero"></path></clipPath><clipPath id="lottie-id"><path fill="#ffffff" clip-rule="nonzero"></path></clipPath><clipPath id="lottie-id"><path d="M0,0 L1920,0 L1920,1080 L0,1080z"></path></clipPath><clipPath id="lottie-id"><path d="M0,0 L1920,0 L1920,1080 L0,1080z"></path></clipPath></defs><g clip-path="url(#lottie-id)"><g style="display: block;" transform="matrix(1,0,0,1,0,0)" opacity="1"><rect width="1920" height="1080" fill="#526088"></rect></g><g clip-path="url(#lottie-id)" style="display: block;" transform="matrix(1,0,0,1,0,0)" opacity="1"><g style="display: none;"><g><path></path></g></g><g style="display: none;"><g><path></path></g></g><g style="display: none;"><g><path></path></g></g></g><g clip-path="url(#lottie-id)" style="display: none;"><g style="display: none;"><g><path></path></g></g><g style="display: none;"><g><path></path></g></g><g style="display: none;"><g><path></path></g></g></g><g style="display: none;"><g><path></path></g></g><g style="display: none;"><g><path></path></g></g><g style="display: none;"><g><path></path></g></g><g style="display: none;"><g><path></path></g></g><g style="display: none;"><g><path></path></g></g><g style="display: none;"><g><path></path></g></g><g style="display: none;"><g><path></path></g></g><g style="display: none;"><g><path></path></g></g><g style="display: none;"><g><path></path></g></g><g clip-path="url(#lottie-id)" style="display: none;"><g><path></path></g></g><g clip-path="url(#lottie-id)" style="display: none;"><g><path></path></g></g><g clip-path="url(#lottie-id)" style="display: none;"><g><path></path></g></g><g clip-path="url(#lottie-id)" style="display: block;" transform="matrix(1,0,0,1,822.216064453125,613.5890502929688)" opacity="1"><g opacity="1" transform="matrix(1,0,0,1,134.90899658203125,11.538999557495117)"><path fill="rgb(8,7,7)" fill-opacity="1" d=" M-107.10600280761719,-11.288999557495117 C-116.4489974975586,-3.631999969482422 -125.19300079345703,3.5329999923706055 -134.65899658203125,11.288999557495117 C-134.65899658203125,11.288999557495117 -111.2249984741211,11.288999557495117 -111.2249984741211,11.288999557495117 C-110.71199798583984,11.131999969482422 -110.14199829101562,11.043999671936035 -109.51300048828125,11.043999671936035 C-109.51300048828125,11.043999671936035 110.29000091552734,11.043999671936035 110.29000091552734,11.043999671936035 C110.31099700927734,11.006999969482422 110.33200073242188,10.970999717712402 110.3550033569336,10.934000015258789 C110.3550033569336,10.934000015258789 134.65899658203125,10.934000015258789 134.65899658203125,10.934000015258789 C125.58100128173828,3.4719998836517334 116.96900177001953,-3.6080000400543213 107.6240005493164,-11.288999557495117 C107.6240005493164,-11.288999557495117 -107.10600280761719,-11.288999557495117 -107.10600280761719,-11.288999557495117z"></path></g></g><g clip-path="url(#lottie-id)" style="display: block;" transform="matrix(1,0,0,1,815.1630249023438,592.5750122070312)" opacity="1"><g opacity="1" transform="matrix(1,0,0,1,142.0019989013672,11.538999557495117)"><path fill="rgb(8,7,7)" fill-opacity="1" d=" M-112.74800109863281,-11.288999557495117 C-122.58300018310547,-3.631999969482422 -131.78700256347656,3.5329999923706055 -141.7519989013672,11.288999557495117 C-141.7519989013672,11.288999557495117 -117.08499908447266,11.288999557495117 -117.08499908447266,11.288999557495117 C-116.54399871826172,11.131999969482422 -115.94400024414062,11.043999671936035 -115.28199768066406,11.043999671936035 C-115.28199768066406,11.043999671936035 116.0979995727539,11.043999671936035 116.0979995727539,11.043999671936035 C116.12000274658203,11.006999969482422 116.14399719238281,10.970999717712402 116.16799926757812,10.934000015258789 C116.16799926757812,10.934000015258789 141.7519989013672,10.934000015258789 141.7519989013672,10.934000015258789 C132.19500732421875,3.4719998836517334 123.12999725341797,-3.6080000400543213 113.29299926757812,-11.288999557495117 C113.29299926757812,-11.288999557495117 -112.74800109863281,-11.288999557495117 -112.74800109863281,-11.288999557495117z"></path></g></g><g clip-path="url(#lottie-id)" style="display: block;" transform="matrix(1,0,0,1,822.217041015625,566.7510375976562)" opacity="1"><g opacity="1" transform="matrix(1,0,0,1,135.43800354003906,11.538999557495117)"><path fill="rgb(8,7,7)" fill-opacity="1" d=" M-107.5270004272461,-11.288999557495117 C-116.90699768066406,-3.631999969482422 -125.68499755859375,3.5329999923706055 -135.18800354003906,11.288999557495117 C-135.18800354003906,11.288999557495117 -111.66300201416016,11.288999557495117 -111.66300201416016,11.288999557495117 C-111.14800262451172,11.131999969482422 -110.57599639892578,11.043999671936035 -109.94400024414062,11.043999671936035 C-109.94400024414062,11.043999671936035 110.72200012207031,11.043999671936035 110.72200012207031,11.043999671936035 C110.74400329589844,11.006999969482422 110.76499938964844,10.970999717712402 110.78800201416016,10.934000015258789 C110.78800201416016,10.934000015258789 135.18800354003906,10.934000015258789 135.18800354003906,10.934000015258789 C126.0739974975586,3.4719998836517334 117.4280014038086,-3.6080000400543213 108.0459976196289,-11.288999557495117 C108.0459976196289,-11.288999557495117 -107.5270004272461,-11.288999557495117 -107.5270004272461,-11.288999557495117z"></path></g></g><g clip-path="url(#lottie-id)" style="display: block;" transform="matrix(1,0,0,1,828.8070678710938,540.7510375976562)" opacity="1"><g opacity="1" transform="matrix(1,0,0,1,128.468994140625,11.538999557495117)"><path fill="rgb(8,7,7)" fill-opacity="1" d=" M-101.98400115966797,-11.288999557495117 C-110.87999725341797,-3.631999969482422 -119.20700073242188,3.5329999923706055 -128.218994140625,11.288999557495117 C-128.218994140625,11.288999557495117 -105.90699768066406,11.288999557495117 -105.90699768066406,11.288999557495117 C-105.41899871826172,11.131999969482422 -104.8759994506836,11.043999671936035 -104.2760009765625,11.043999671936035 C-104.2760009765625,11.043999671936035 105.01499938964844,11.043999671936035 105.01499938964844,11.043999671936035 C105.03600311279297,11.006999969482422 105.05599975585938,10.970999717712402 105.0780029296875,10.934000015258789 C105.0780029296875,10.934000015258789 128.218994140625,10.934000015258789 128.218994140625,10.934000015258789 C119.57599639892578,3.4719998836517334 111.375,-3.6080000400543213 102.47699737548828,-11.288999557495117 C102.47699737548828,-11.288999557495117 -101.98400115966797,-11.288999557495117 -101.98400115966797,-11.288999557495117z"></path></g></g><g style="display: none;"><g><path></path></g></g><g style="display: none;"><g><path></path></g></g><g style="display: none;"><g><path></path></g></g><g style="display: none;"><g><path></path></g></g><g style="display: none;"><g><path></path></g></g><g style="display: none;"><g><path stroke-linecap="butt" stroke-linejoin="miter" fill-opacity="0" stroke-miterlimit="10"></path></g><g><path></path></g></g><g style="display: none;"><g><path></path></g></g><g style="display: none;"><g><path></path></g></g><g style="display: none;"><g><path></path></g><g><path></path></g><g><path></path></g></g><g clip-path="url(#lottie-id)" style="display: none;"><g><path></path></g></g><g clip-path="url(#lottie-id)" style="display: none;"><rect width="140" height="140" fill="#ffffff"></rect></g><g clip-path="url(#lottie-id)" style="display: block;" transform="matrix(1,0,0,1,710,290)" opacity="1"><rect width="500" height="500" fill="#080707"></rect></g><g style="display: none;"><rect width="500" height="500" fill="#080707"></rect></g><g clip-path="url(#lottie-id)" style="display: none;"><rect width="1920" height="1080" fill="#080707"></rect></g><g style="display: none;"><rect width="48" height="58" fill="#ffffff"></rect></g><g style="display: none;"><rect width="48" height="58" fill="#ffffff"></rect></g><g style="display: none;"><rect width="48" height="58" fill="#ffffff"></rect></g><g style="display: none;"><rect width="48" height="58" fill="#ffffff"></rect></g><g style="display: none;"><rect width="48" height="58" fill="#ffffff"></rect></g><g style="display: none;"><rect width="48" height="58" fill="#ffffff"></rect></g><g style="display: none;"><rect width="48" height="58" fill="#ffffff"></rect></g><g style="display: none;"><rect width="48" height="58" fill="#ffffff"></rect></g><g style="display: none;"><rect width="48" height="58" fill="#ffffff"></rect></g><g style="display: none;"><rect width="48" height="58" fill="#ffffff"></rect></g><g style="display: none;"><rect width="48" height="58" fill="#ffffff"></rect></g><g style="display: none;"><rect width="48" height="58" fill="#ffffff"></rect></g></g></svg>