<?xml version="1.0" standalone="no"?><!DOCTYPE svg PUBLIC "-//W3C//DTD SVG 1.1//EN" "http://www.w3.org/Graphics/SVG/1.1/DTD/svg11.dtd"><svg t="1774409613700" class="icon" viewBox="0 0 1024 1024" version="1.1" xmlns="http://www.w3.org/2000/svg" p-id="4639" xmlns:xlink="http://www.w3.org/1999/xlink" width="128" height="128"><path d="M256 24A232 232 0 0 0 24 256v248c0 22.08 20.032 40 40 40 20.032 0 40-17.92 40-40V256A152 152 0 0 1 256 104h512A152 152 0 0 1 920 256v512A152 152 0 0 1 768 920H512a40 40 0 1 0 0 80h256A232 232 0 0 0 1000 768V256A232 232 0 0 0 768 24H256zM155.584 672.832a12.096 12.096 0 0 0-6.848 6.848l-14.208 36.352a159.744 159.744 0 0 1-90.496 90.496l-36.352 14.208a12.096 12.096 0 0 0 0 22.528l36.352 14.208c41.472 16.256 74.24 49.024 90.496 90.496l14.208 36.352a12.096 12.096 0 0 0 22.528 0l14.208-36.352a159.744 159.744 0 0 1 90.496-90.496l36.352-14.208a12.096 12.096 0 0 0 0-22.528l-36.352-14.208a159.744 159.744 0 0 1-90.496-90.496l-14.208-36.352a12.096 12.096 0 0 0-15.68-6.848z" fill="#000000" p-id="4640"></path></svg>